<mxfile host="65bd71144e">
    <diagram name="Page-1" id="ypHZTWtm3wBoY-DDY8k5">
        <mxGraphModel dx="746" dy="196" grid="1" gridSize="10" guides="1" tooltips="1" connect="1" arrows="1" fold="1" page="1" pageScale="1" pageWidth="850" pageHeight="1100" math="0" shadow="0">
            <root>
                <mxCell id="0"/>
                <mxCell id="1" parent="0"/>
                <mxCell id="0MlqO0iR2Z8GzJs1VqW2-55" value="" style="rounded=0;whiteSpace=wrap;html=1;" parent="1" vertex="1">
                    <mxGeometry x="131.83" y="123" width="748.17" height="477" as="geometry"/>
                </mxCell>
                <mxCell id="0MlqO0iR2Z8GzJs1VqW2-10" value="" style="rounded=1;whiteSpace=wrap;html=1;" parent="1" vertex="1">
                    <mxGeometry x="150" y="150" width="130" height="410" as="geometry"/>
                </mxCell>
                <mxCell id="0MlqO0iR2Z8GzJs1VqW2-61" value="" style="rounded=1;whiteSpace=wrap;html=1;dashed=1;" parent="1" vertex="1">
                    <mxGeometry x="160" y="417.37" width="110" height="132.63" as="geometry"/>
                </mxCell>
                <mxCell id="0MlqO0iR2Z8GzJs1VqW2-2" value="" style="rounded=1;whiteSpace=wrap;html=1;" parent="1" vertex="1">
                    <mxGeometry x="302.33" y="150" width="557.67" height="290" as="geometry"/>
                </mxCell>
                <mxCell id="0MlqO0iR2Z8GzJs1VqW2-34" style="edgeStyle=orthogonalEdgeStyle;rounded=0;orthogonalLoop=1;jettySize=auto;html=1;" parent="1" source="0MlqO0iR2Z8GzJs1VqW2-3" target="0MlqO0iR2Z8GzJs1VqW2-7" edge="1">
                    <mxGeometry relative="1" as="geometry">
                        <Array as="points">
                            <mxPoint x="462.33000000000004" y="340"/>
                            <mxPoint x="462.33000000000004" y="340"/>
                        </Array>
                    </mxGeometry>
                </mxCell>
                <mxCell id="0MlqO0iR2Z8GzJs1VqW2-3" value="" style="rounded=1;whiteSpace=wrap;html=1;" parent="1" vertex="1">
                    <mxGeometry x="332.33000000000004" y="230" width="120" height="140" as="geometry"/>
                </mxCell>
                <mxCell id="0MlqO0iR2Z8GzJs1VqW2-4" value="" style="rounded=1;whiteSpace=wrap;html=1;" parent="1" vertex="1">
                    <mxGeometry x="302.33" y="460" width="557.67" height="100" as="geometry"/>
                </mxCell>
                <mxCell id="0MlqO0iR2Z8GzJs1VqW2-39" style="edgeStyle=orthogonalEdgeStyle;rounded=0;orthogonalLoop=1;jettySize=auto;html=1;exitX=0.5;exitY=1;exitDx=0;exitDy=0;entryX=0.5;entryY=0;entryDx=0;entryDy=0;" parent="1" source="0MlqO0iR2Z8GzJs1VqW2-6" target="0MlqO0iR2Z8GzJs1VqW2-7" edge="1">
                    <mxGeometry relative="1" as="geometry"/>
                </mxCell>
                <mxCell id="0MlqO0iR2Z8GzJs1VqW2-52" style="edgeStyle=orthogonalEdgeStyle;rounded=0;orthogonalLoop=1;jettySize=auto;html=1;exitX=1;exitY=0.5;exitDx=0;exitDy=0;entryX=0;entryY=0.76;entryDx=0;entryDy=0;entryPerimeter=0;" parent="1" source="0MlqO0iR2Z8GzJs1VqW2-6" target="0MlqO0iR2Z8GzJs1VqW2-15" edge="1">
                    <mxGeometry relative="1" as="geometry"/>
                </mxCell>
                <mxCell id="0MlqO0iR2Z8GzJs1VqW2-6" value="" style="rounded=1;whiteSpace=wrap;html=1;" parent="1" vertex="1">
                    <mxGeometry x="472.33000000000004" y="180" width="240" height="110" as="geometry"/>
                </mxCell>
                <mxCell id="0MlqO0iR2Z8GzJs1VqW2-7" value="" style="rounded=1;whiteSpace=wrap;html=1;" parent="1" vertex="1">
                    <mxGeometry x="472.33000000000004" y="303" width="240" height="110" as="geometry"/>
                </mxCell>
                <mxCell id="0MlqO0iR2Z8GzJs1VqW2-8" value="" style="shape=image;verticalLabelPosition=bottom;labelBackgroundColor=default;verticalAlign=top;aspect=fixed;imageAspect=0;image=https://www.opc-router.de/wp-content/uploads/2021/03/mongodb_thumbnail.png;" parent="1" vertex="1">
                    <mxGeometry x="186.83" y="168.99999999999997" width="59" height="79.35" as="geometry"/>
                </mxCell>
                <mxCell id="0MlqO0iR2Z8GzJs1VqW2-9" value="Cloud&#10;Storage" style="sketch=0;html=1;verticalAlign=top;labelPosition=center;verticalLabelPosition=bottom;align=center;spacingTop=-6;fontSize=11;fontStyle=1;fontColor=#999999;shape=image;aspect=fixed;imageAspect=0;image=data:image/svg+xml,PHN2ZyB4bWxucz0iaHR0cDovL3d3dy53My5vcmcvMjAwMC9zdmciIHhtbG5zOnY9Imh0dHBzOi8vdmVjdGEuaW8vbmFubyIgd2lkdGg9IjIwIiBoZWlnaHQ9IjE2IiB2aWV3Qm94PSIwIDAgMjAgMTYiPiYjeGE7CTxzdHlsZSB0eXBlPSJ0ZXh0L2NzcyI+JiN4YTsJLnN0MHtmaWxsOiM0Mjg1ZjQ7fSYjeGE7CS5zdDF7ZmlsbDojNjY5ZGY2O30mI3hhOwkuc3Qye2ZpbGw6I2FlY2JmYTt9JiN4YTsJLnN0M3tmaWxsOiNmZmY7fSYjeGE7CTwvc3R5bGU+JiN4YTsJPHBhdGggY2xhc3M9InN0MiIgZD0iTTAgMGgyMHY3SDB6Ii8+JiN4YTsJPHBhdGggY2xhc3M9InN0MSIgZD0iTTE4IDBoMnY3aC0yeiIvPiYjeGE7CTxwYXRoIGNsYXNzPSJzdDAiIGQ9Ik0xOCA3bDItN2gtMnoiLz4mI3hhOwk8cGF0aCBjbGFzcz0ic3QxIiBkPSJNMCAwaDJ2N0gweiIvPiYjeGE7CTxnIGNsYXNzPSJzdDMiPiYjeGE7CQk8cGF0aCBkPSJNNCAzaDZ2MUg0eiIvPiYjeGE7CQk8cmVjdCB4PSIxMyIgeT0iMiIgd2lkdGg9IjMiIGhlaWdodD0iMyIgcng9IjEuNSIvPiYjeGE7CTwvZz4mI3hhOwk8cGF0aCBjbGFzcz0ic3QyIiBkPSJNMCA5aDIwdjdIMHoiLz4mI3hhOwk8cGF0aCBjbGFzcz0ic3QxIiBkPSJNMTggOWgydjdoLTJ6Ii8+JiN4YTsJPHBhdGggY2xhc3M9InN0MCIgZD0iTTE4IDE2bDItN2gtMnoiLz4mI3hhOwk8cGF0aCBjbGFzcz0ic3QxIiBkPSJNMCA5aDJ2N0gweiIvPiYjeGE7CTxnIGNsYXNzPSJzdDMiPiYjeGE7CQk8cGF0aCBkPSJNNCAxMmg2djFINHoiLz4mI3hhOwkJPHJlY3QgeD0iMTMiIHk9IjExIiB3aWR0aD0iMyIgaGVpZ2h0PSIzIiByeD0iMS41Ii8+JiN4YTsJPC9nPiYjeGE7PC9zdmc+;" parent="1" vertex="1">
                    <mxGeometry x="186.83" y="302" width="54.35" height="44" as="geometry"/>
                </mxCell>
                <mxCell id="0MlqO0iR2Z8GzJs1VqW2-12" value="" style="image;sketch=0;aspect=fixed;html=1;points=[];align=center;fontSize=12;image=img/lib/mscae/Data_Lake.svg;" parent="1" vertex="1">
                    <mxGeometry x="522.33" y="326" width="38" height="50" as="geometry"/>
                </mxCell>
                <mxCell id="0MlqO0iR2Z8GzJs1VqW2-13" value="" style="image;sketch=0;aspect=fixed;html=1;points=[];align=center;fontSize=12;image=img/lib/mscae/Data_Lake.svg;" parent="1" vertex="1">
                    <mxGeometry x="625.33" y="326" width="38" height="50" as="geometry"/>
                </mxCell>
                <mxCell id="0MlqO0iR2Z8GzJs1VqW2-14" value="" style="shape=image;verticalLabelPosition=bottom;labelBackgroundColor=default;verticalAlign=top;aspect=fixed;imageAspect=0;image=data:image/png,iVBORw0KGgoAAAANSUhEUgAAASAAAAEkCAYAAACPEuyWAAAABGdBTUEAALGPC/xhBQAAAAlwSFlzAAAWJQAAFiUBSVIk8AAAiIhJREFUeF7tXXd8VVXWnW+qUx1FHXsFu9jL2Ms4o47Yu446OmPF3ntDREGpoYcaWgidhBYINSTUUEPyesnrNYX5c317nZeLj3gJCbxUzh/r91Leu/e+e89ZZ62z99nnZ//73/+goaGh0RbQBNSG2C2o3f0/VNfWIVZdi1CiBlXRGjhC1agIJLHVk8AmdwLrXAmstcex0hrD0soYFu2KIn9nBHO2R5C3NYJpW8KYtDmMcZvCGLMxhNEbmga+d7x8ZlJZClPlONPleLPkuAU7o1gm51pli6tzlzpi2OSKq2va4UvAKtfnDlfDH6tBVK6d36FOvosBs++rodEQmoBaALt375ZOuBs1dbuRrN2NeHUdIsk6BBN1CMTr4I/XoipWC2ekFpXBGmzzxbHeHcUqu3T88oiQgBDDhgAGr/aj7wo/ei/345MlVXi7wIuecz3470wX/jXdiQen2tFjkh23TrDjurE2XD7aigtHWnD+8KbhwpFWXJFtxfXj7Lh+rB03j7fjjhw77ptix1N5Trw6z4P3F3rx6WIvvij0ou/yKnVNI0v9mLwpgNnbg1hSGUapK4pt/gQsoVrYwrVwyffyyffjd+V3Dst3j8o9SNTUqXtSK+D9Mbt3GocWNAFlGOxYseoapQzsoRqUeeJYUSGqoiyE7NIABkoH/qbIj/cXVeF5IZMH8ly4cYoDV0jHv2iCDd3H2XCekMk5Y2zoJoRypuBsvo6y4lxBdyGNC0ZYcZ4QyDnDLDirHmcLzhxqwelZlTh5yP5xiuBUwRlZqc92k892FZwpP/O458s5LpTzXTxarknOf5b83E3Aa+ku13e+4AK51u7jbbhkohDYZAfuznXh37M9eF2I8vPCKny/UsiqJIApQqb5O0KipKKoDMThCiUQitcoBWh2DzUOHWgCOgAkxW7QLnnFLlX4q7HBGVfWaN6OqLJDI9cF8F1xAB+JenlV1MOz89x4dIYL901zoId01Fulw14tBEMyIWEcM6gSRwyswOED0sDfBX8WdBmUwrHyvpMG/xSnCE4TMiFILGbv2ReMz57c4O/pOE7Oy/PzWozr4Wv69XaR33mMC0ZYcKWoqhuFnO6Y5MA905x4QNTaE7NdeH6BB+8sq0KvlT4MEmIavymEvG1hZSmLxeZtq0oo+0ny5j02u/canQuagBoB5zJoGWJiH0JiJfxiKTzRWuwQu1Eso/lC6TgT1gfRRzrVi7PdeFA629/EDtEGHS+d+nfSMX/VvwK/FBwm+It05BMa4EQBlYhBIB0VJDJ+H74aPxNHC/4g9+HX9feBIOFSrV0siuqOHBuemeHEh4u8GLrWj7ytQRSKrdvmS8At95pWlfeez4B2tlZbt04FTUCNIJSsQ7konMU7Ihgj9umLpT48M8eNe3KFaETJXClK5gKxIrQn54uaOVdsEa0MCYXK4QTBcfU4XkCFQIWSjs5APgS/h/F9jJ8JfmfeB35/417wd/6v29BKZf/OEdXEe0hrd6nY0CvFjt4mZP7ETDfeXliF4aKWCnZGsN4ZU5P0nLg3e14aHQ+HNAFxDoIqJ16zWxp2LbZ7k1hji2PeziiyN4bw3doA3hbSeUrUDa3ETePtavKWtomd6CgZyWlFjhiY+j3dtqTbIo29QVIijJ9JTobNNMC/USVdmW1DD7n3T831oKeopE9XBjB4fQjTt0VQZImhzCNKKVyDcKIWNWLb9LxSx8IhR0CGrSLpMELjjtZhi68aiypiGLYmgPcWeHD/VAfOksbPuY1f/LBLwDkPsUvSKVpLsRhKoiEMZaHUBSHXtAdmf2sM9cdRx9rH3xue3+xaWwJKQdbbOM6P/VaeBe0bn8Ux8n9G/nrOdaP/Kh/mikItFXVkDSYQiNeqiJuya/Kcd2u11K5xSBEQyYch4Z2+JBaIpM8ShfP6gircPd2FKyY6cI6MtueJFaCVYgc4Xho/J2BpG1qTfEgCnBtqCM6nGJPTxJ8EnGfi/BI76B/ld8638Pf9wXi/cSzjOIc1+DsnvtOvgddmds2ZBu+1QYLqWQiUhZNrOEn+RnV0ttje87KtuFCU6e3THHheCOnb5X7kbg6ixB5V0bZ4da1pW9BoH+j0BETCqQxUq4S6PJHtQ0qD+LDIj3+LpP8nw99COqdJY1ZRKAEnSDNlo9iJ2GEN9cCf2ZF4DoIWrosoK0aQ0sH3dM2yKCK8SDrZVYwqSSe7aaIdN05y4G9TnLhtqhN3SKe7I1de69FjuhN35QlmuBTuYeRt5o+4V3B3/f+I+wT3zpD3y+f+KZ/nvMutck9ulWP/TV5vnmTH33LsuFnUxrVjbbiMIfkRVhWmP12+Dwl672tPkaTx/WhLlaISZJK8eSw+H07qG9HDE+VvjCr+Xe7RI/K9XlnowXerfZgkZLSsMortVQn4YjXaprUzdCoCMuZ0EmKvSDyMoJS6EsjZGFJJfLdJZ+o6tFIph99Lo+X8DUdYs0beFBjEko5068JXqga+ds2qxOlCKifI69GCv8h1HCW/HyHoIjhKfj9acIx07nNHW3GzdKS7xAo+qRICXfhsSRX6LvdhiNhE5hPlrA8id0MAc7YGMW/7j1i4M4RlFWGFFZYwim2RPVhjjWB5Zep/BhaVh/Z8dlZZENPWBzBRjs1zDC/2od+KKnxZ6BVr6sVzjPQJUd0q9/HyMTacKR3+mGHyPeS6uwiOlO9xjJD5sYJj5DueIr+fJjDuMUnLuG/p98lA+r1tLkhIhmX7kzxbKjr+jekAL8x2qQjbUvnulYGUTYtJG6EV12TUtuhUBETfzzB5kYx4A9f48dhMN24UtXDxOLtKqKOi4AQy7RRHZ76aNeamgB2Gn0+3J+kWiT/z/1RRTBy8Qa7hPlEWz85y4c0FHnxRJIQiI/QQ6egTtoSRuyOMubvCWEiScESx1hlFqTuKjZ4YtlbFsNMfV0l8nOdwiLVwhRPwCLzRBKrS4IslpYP9iGBib6T/j/DL+43PeiOc0E3AKeA5bMHUOcsF231xlHljWO+OYa0rilVyjUVCaouF5GYI6U0U8houxDVAbG2fFT58vNiLl8USPSyEdYuot0uYxCjkynuXfp+oYoz7dzCKM53U+GxVtE2OyajkBUKUF4mCu0JInSrx6yIf5mwLo9yXQLW0GbO2pNE66NAExAlGTjjag9UotsfUWqavRCE8n+/BbZPtMvqmbA6jVIoM6htrc8CGbdgIHoMd5uhBQjDSefg7OxU719XSwG+c6FA25sFZbjwz34ueC6rwzhIfvlrhx0DpmBNEsczeFsRSUR6ljgi2eFKZwd5otSi2aiRrqrG7rhr/213TQSDXKtcbTZLEkmp92A4hqo1CUGssEZX9PGlTEFklQkqrfPhoaRVeF2v07HwhJlElJIN/yHO6TlTKRUxlkAGCCvUv9feZJHKg9o2fMay0EWUj4VGB3iKW8ik5/8dCROM2hbDUEpPrFoKO16g1bWZtTaNl0CEJyLBZgUQdtknDmb4lqKJXN4y34df9d6nJVDY2zlGwAZs10MZgjKbpxJOKMFlwtLweIaDFuGCkBbdNsuOZmS68JaTHdVtTpUGvFTJkg+aaKEbb6nazUUuHbQpIQB0NJCOz79IACSFYVyiOikAM65wRZfuGis37UEjpyTwhpMkOXCFEfoIQES3qcXKPaeHOkFcqV/VMBHzlMzpQYjJs2h8FfIbPirUcIUp0rQwKznC1emY6gtY66HAERPJxhWuwSCzLd9Lhn5jtwcUyonG9EtcxMUrCEc+wP81tpCQcjr6cI/ptPZFRxnMi9l/SSV5b4EXvlQGM3hDETOlAy63hPTapguucwrQ6ogqquZygRq63VhqydECqhf3BrHN3FJh9nwaok/dR5cWqqxESO0j7aBWbt90Xwwa5hyvF0hWIDZ0mKnHAWj8+XOLFf0Wp3CEkz0RPRvgYvSN5cHDhM6bCMXuOjcGwaQQV11ly7AvFIveY5sAHcs7cshB2BfgMtT1raXQYAuJq8h3eJOaXR9Ff7Mxzc934e44d58hoebhYLJJGc9UOyYmfIWHx8wSPd9UYG26a5FAW4al5brEOXgyRDpFbFsSSigg2ueNwqgWVnENISuciwTQG6YANO+yhCtP7k0J1bcrOcW5qp5DSKiF3Wlaqk8+W+/AMc7RmuXC72NxbJnLJi1UpItpszivRspGQmjvoMGJn5HldKQrsEVG0n64IIKcsLKooroIZnF80a5caB4d2TUBUO5wkZERrozuB4Wv8uG+qA6fLqPUHUSZscGYNal9gw+ToR/B3ynpK/OPl9RhKflFQnJN4v8CNCdLoV1aGYRO7UCOjtuokJrZCk0sGsa97LKiV/0dENW12RzFDLPd3RVV4TAaIi7KtKvqmbLHAICDjWTeVjPg+WrMjhYiofomrxdJ/sKgKhZY47KK6lTXbrSNnmUS7JiCu+1lhieCTZT6Vp3K+KJOzRKFwcpny2SCSpoIjnRF9OV1sFXNbnprhxCeicEauD2B+RRhrHBFlpxzMqo0xkS2ZmhhWHcQExv80MgOzeyzgMyAJhUUhuSMJsUhxrBMyWiCDxJhNAXyzwoeeolb/IcqIuUpsHyQR5iY1VRWxPRmT1gQt/cXZNlyV40DPhbRmQRUZTNTo5MZMod0REBVPIF6DYpG+o9YH8aKoEcpizu0o7y8Nw6zxNAQbHO0VM3mplBitulhGyxsm2XH/TDdeW+TF92t80qgCKkfGIQ2rVixAuiXY0wHSO4hG22GvZ5MC55Q8QkhlJKMdIQwrCciAUoVnxKIzqZJth+kXhs1ujk3jHCLnmpjo2F3azuMznei7ugoF5WFYAtXalmUA7YqAqut2y+hWLeQTwTsLPbhURh+uxTpSFAsbjVkjSQcblWGxCM4PHCkN6HixV9eJnH5prgvD1/pRYo/BF0mmGnVDua8Jp+OhwTMMxVnONoq8jQF8JMrln5MdOElIqIu0hy7SjtRyDnllG2kKERFG7hI/x2DEZBkcWXCOJMSpArP2rLF/tBsCoq9eYY2h1wo/bpzqUN7+DGbVDko99P01FEPtsJEwWnKi2LTbJtrwWoEHQ0sDWGZhtCoqI1ccwXg1qjmvYzRgQ+lo8um4SHuGNaJkI7Rq4QS2iZ1eLgp38raIysd6LM+p1DCtGcPwJKOmJEAawQpOVHcdbsXVEx0qIsr62b5YqtSsWbvWaBxtTkCc2NspcjZXGsjri6pwnXj4I4V02DCaEtUiOTEKwvdzfuhaLmGQRtZzkRBPiR9LKiiX4yoEvJd8b9iANToPFBEZzzpFSLT1G1wxTBPL/fGyKjwhFu1msWhcP3ZqlqVJ1oz/M9rbUfJ66Wgrnp7rwaB1IZQ44vBF9dxQc9FmBGREuCzBGoxcH1LZxEfIQ+WoZPbw08GGYDQUjkq/k9HsFFFLlNoDVlahxBZWIXKVf5Muz9kwzRqsRudHejsQMMyfIxbtsekudB9tUwmmXNBq2LLGiIjg/xk1O3yAtEFRVJ8uqcIqSwwJbcmahTYjINZTLqqMoOfiKlwlclYt1BQyIcweuIF0q9VVHvzfRPG8ITZrzIYQVtjj2OWPy2iXUKOeanj1slyTzyGO9HYgYL6RPZRAiSuKaVtDyvo/MM2B80da1JwjJ5/3Z81IVqrNyut5VENz3Jgg7dAdqdUk1ES0OgExvd0qlovFyF8qcOOCbCuOakKo1JC+rAXDrNibJznwQr4XA4sDWC42i3tUqSUPadLbtCFqaBCKiFJtJRBLYqM7hvHrA3h7iVeVJ2EyqlqXNmj/FRM4KP5ZlDszqu8XRTVKSGijJ1WLSG8/1DhalYA4KnDOhwWjHp3hxM+/b1qEi8TEBYq/EbnbbbgFj+Q6MbE0oAqLpYqU10trNiizxqah0RjYburbEKsCLKsM4e18Ny4ba1XF2RhNNdphw7aZDi56/r3gsmwbvl3pk4GWOUN6cWtjaFUC4voaFnfnCHPGCIsaXRhV2NeD5cjD/3N0Ye0Z1mZmRGuFNQKbPNxosloUVW39aNagUWloNAf1bYh5Rb5YAps9UUzdEsS7ooiuGmPFcdIWmYfW2GDJtsrJbEZvWc/pncVebK2KQ6+w3zdahYCofLi7RPaGoFrwdxpzMsROmT1EA/TWtFtcm3XrVAfekIYwa1tILfhkIzHksyYejYxCEVGqbflEDa22RfCNqJmHZrpUTaGTjCz8fRARB1ODpK6S9/dd40eJMyZtlouStR1riBYnIM750HaNWRdQ5EPbReXT8MGlgw+RYU4S1W05DkzfGlTLIrTV0mhVsJ3Vt7nVoro/XuxRu8MeLW2TaqexuSHOC5GIzh1mwedFXrjDWgmZocUJiNmis7ZFcE+eC6fKwyD5NJbfw9GFpVJ75LrQZ5VfJZE51cPjqnM2igaNREOjJVHf5jgAbnBHMW5zAP+e48LZMjhykDx2H22Zg6hRDuYfk+zotdyHiiDLs5j3k0MVLUZAzGzmKvb5u6L412y3msNh4fJ9PSySEl+ZAX2XkBXneja5Y6lRSBOPRltD2h9TO1i2NlcU+Uv5HlwuFutUVlGQtmumhtieqYI4J3T9RAcmbmZNaioq8z5zKKLFCIhMv70qiY+X+/druzhSMKmL5TH+NcuNdU7m8vCha6ul0c4gdoxzkNurYvhgoQdXjrXi8PpgilnbJhgdO1z+f3+uE7llYa2C0tAiBJSq1bwb360OqG1dGrNdhvLhVi8s/LWkMqzIZ6+1Whoa7QWihLish2VBGCkbuNaPHlMdOFYGTy5YNWvjJCdatVOkjb+22Istnrja696s7xxqaBEC8sfrsMaRwD3TXThFHozZQyHpGB752vE2vLbArcqbchGhVj4a7RpqSoBTAzUoExIaUuJX68rOGJ5aU2ZmxzjQsqzHTZPsGFDshy1UowubCVqEgDa4E/iisApnj7btc20XHwhtF2u1vCrk44swVKnJR6ODQciIta2HrPGpaprcc87MjnGg5dZDnBO6epwda5wJ1NSZ959DCRklIFqvcKIG07aE1E6epw5l1OunD4PkY+RKvLPYg8UVYUU+asW6hkYHA+eEyv0x9Bdlc0uOXZWCMYuOUfHTpp06wqr2T9taJQOuST86lJBRAuKyCG6B+9UKnyp/uq9tcfi/s+Uh3J/rwJwdoVSOj1Y+Gh0Z/6tBqTOKXkVVqnoiF6g2bPcEB+Rjsyx4apZb1RI61CekM0pALK8xV27qk3M8+PkPqV0vGz4ASlHW6r1+sgMztwTgDMU1+Wh0fNRHxzZ5YrhXBlZjF1gzcJ8z7ujx3ZoAqsWGHcpzQRklIO63/d2qAG6Z6FAqp6H64eQcrVf3UVa8scgLh5APi76bPlANjY6E+ugYC+YPL/WrrH/uxmrmANgPmMT48qIqVVuam2ya9adDARkjIO4kyV0s/jPPo7JEG950glnOLKnx0HQncjYF5HOMJJg8TA2Njghpy/FqUUHuKN5c7FULWM0iYhyEfycugJsjLNkVRSB+6FZSzBgBRatr1XY2rOe8r8gXJ+B+NaASvVf5VCKXJiCNTglp19zm6WJR+t2G/rQfUBUxWnbLZAeyigPiBKQfmPSpQwEZIyBvpAaLd4Vx1SS7KQHxpnNS+gTxv5PKgggnGAHQBKTRCSHtOr88jKdnulRuUMOIGFUR50dvnGBHr6U+VIoNM+tThwIyRkC2YLXaY+vyiXZVLjX9hhPMjeiaZcHVY6wq21kRj5581uiMEAJKRcR8avX8UQ2WITEQwxy4a8ba8FaBFzv9/Ix5v+rsyBgBVQaSyNkQwJVCQEeYrPsiAbHw/DN5TpQ4I5p8NDovhIBYt2qs9Ifzxtj2SUDsD8/Och/S+UAZI6ByXxLZJeJ7x9n2qYB+JKCoJiCNzgshIJZjZaDlbCGgIxr0B4OAuCUQd+XY6E0esvlAGSOgXf4kxpUGcNG4fc8BXTjSggenOrDarhWQRieGEFClENB4UUBnZdtUfav0vvATAvJoAjpo2EPVmLE1iMvEgu0rCsbkrKvF9y6xaALS6MQQAuKOrNwY8xzu+tKIBXtmphtbtAU7eDCXYbU9hmsm7zsMr8oSZFVishAV92XSJKTRKSEEtFwG2bcKPDhXVA43z0zvBwYBcTB+M19PQpv+o7lg3eddgRrclutSW+0YpTbSb/wxMhIcJuT03RqfWDadB6TR+bBbUCuYWhZEDxmMzxxq2bPw2gDD8EcPrMRN4hb6FPlgOYSrJGaMgIhQsk6VXzVyfkhC6Tee+RDcZ+mFuS7k7wjJZzQBaXQiSFuuE1VPdc/dME6XNk/V35CA+Pth/Stw61Qnxq9P7aRq1p8OBWSQgHYjVl2Dz5dV4VqRlmYERGJiwaYLxRd/WFSl0tY5WmgS0ugUkHbMgnrLKsL47zy3WgtGAmroBNRaMFFAT81xY7UtilBCE9BBo6auDv5YAhM3BPBYngtd5AY3ZH6CD4N7gnFzwmJbRD6j54I0Oge4Gn5XIK5Kctwo9upIISAOug3bP8GAzAeFXrFfMVFM3C3j0FyQmjECCsZrsNUbxWprGO8urdpnOQ6CowL33n4z34P1bp0TpNEJ8L8ataPqwl0hRT5UOQ2VD5EiJAtuGW/HwGIfqiIxBOVziZpDUwVljIBsgWoUbAthR1UM2RsDOGekFadmWX4yAhC0Zl1lBLhISOj74gA2e+q33zF7sBoa7Rliu3YLEqJ+Zm4P4clZLpw7wmqq/gmWqTlhqAVvL/Ji7vagUkD+qCagg8bOqiQmlwZQ6Y+jsDKM/8x2q7o/x+1DBbE0xxHyP25AOFg+5w7LQ9C1gTQ6GHbLwBlJVmO1PYo3F3pV1IuDrunAK+Ac6HnZNuRsDmKNLYKV1oi0/SSSh+iuqRknoE3OKLZ6opgno8H1k1M+uOGDMMAHcriQ0E1THZi9NQhnSJdm1ehAENtVt7sO5YEaPD/Xg0tG20wnnQn+jUXpzxd19KAMupu8MawR0hq2NgBLsAa1OhP64LBNCGh0SQDTxH6ttITVWpi3F3txidgskhAfTMOHQhwrD6XrCAtuFhIaLgS2XR6MIiEFk4euodHWkHbJ6G0okcSCXRG8u9iHv461o6uon4aRXwMcbBmYuW+GG7lbI3DIYJu3NYRX5nuxpUqOpwno4EACGl4cwGdLvJi8KaC2sZ29LYRn5rjVWph9ERBBm/a7/hW4N9eJITIi7PDF1MZvmoQ02iM43+MMJ4R8wsp2cUkF27GZ7SI4H8Qi9d3Fen29OgB3pBoWGaAHr/XjPmnz69xJTUAHix1CQKPWyA0VJfPJUq96UMnqJCYKGZlJ0nTw/xwh/ixEdMk4G3oVelGmomPywHWyokZ7grRHztnM2xHBPdOcal87EkxjbfxIUT7HiDr6SBzBamsEkepqFFWG8f5iD/45xYFSTUAHD84BjRQCuma8DQ/OcKLYEkEgmsBmsVTfrvLhSvn7vsLyBmjHTh1mwRVCQj0LPCqdnVv2VIua2mPLzBqFhkZLor7tMcmw2B5Fb1ExXHJ0wUgrTs9KRXXN2jMHVZYhPn+0FU/McmORKKYq6RMeAXOA7pzswL1CYpqAMgAS0AghoAvH2nCxoFdhldq2Nig+mZu2vcL5IPk7H1ZjowWjY6wnxFDmYzNcGF8WQKkrCl8sqSIOWg1ptBqkrXGni5goeRYYKxAC+XiZD9fkpBZc7yvUTtCOnSivp4tCIvlM2RQU8kkiEE9imaigGyfZcZ608YeEyNZ5NAEdNAwCukzUC7ccYUHumdsDCCe4BS33S4rjy+V+tQp4XyMGYdgxPkCuHfuToOcCLxbviqBOKyGN1gKtv4DzPZWBGPpL2+bi0aOyLKp9s42atV8DzPf5i6ij+3OdmLw5qI7DdWKrhHzeXuDByUJMp4ja1wRk8scDQToBcdKZ0vTl+W7xyiHslgcZSlRjudz8j0UZXSPv2deEnQGSlNrGR45FRfWojCLfrvRhoYxCtmBcJX+lyKhBw9HQOFDUD25UPdFkAutdEYxZH8BzBR7cJIrlTCGMv0ibbFheIx1s138eWImzxZ49ON2pphFYnKymrgaucBLfrw2g+xgb/iLvPWu4VkAtRkCUpxeL9313iVcRRkxGAMrP9c6oCs9fO96mHhgVT2OWjKCP5n7bV2Sn5obGbEjZMkc4IfLYaDxpDUlDozmQtmOU0eDaRBYTW7AriN4rqnD3NAdOGJpqg41NNlMRMdJ7vLyeLuTzyEwXxgp5cb6nTo7Ptj97exiPzfbgD2LfON/ZXVuwliEg1sDlA/mTjATX5Ngxcq1fjQKcw+GEMh9w39U+9eD4UBvz0gQf+skCvu9YeT1PiO1RkbY5G0PizfmAU3JZWzONZqPeatWJQmEZDa5k/6rQi+tkgDxlqAVd2D7r26BZ2yT4PyYZHi7EcrQMlC/M84jyD6tBl22Tu/9u9kTwxEwnLhgh1qv+M9yeWROQyR8PBHsR0KAKdYMZ9eIk3A0iX0etC6C8fjNCRhO4CHVYaQCP5KWiCY0lKxKKhOT/TGU/RR4yH97fpzpFHnsxsNiPZZVhlUnNkcyQ0pqQNExR3zYMq8WdTKdsDuL9wio8OMOFvwr5nJ5lUVZLtbcGbTEdaqpA2jlD7VdPtOMdIS/mBzFPSBHb7joUWqJ4fYEbl2VbVY0g47OagFqQgIybTKn5R3k4DwnRUJIyDJkUFUS5y80Jx4mdemq2G+fLwzlVRhyS0P4iZYbcPVyOe7w0lBvH2fHmQg/GbgxglSOKnf44/NGkSoZMEVI9jAaocWjBeP6CWmkTXLtll8FqnRDPnPIgvlnlUwNhN2l/rNNDBW9WzyodSvXUt9NzxEpdPcmBT5f7UOqIqAGW857xmlps8ibxaZEf58tAbAyixjE0AbUCARk3/UjB7WKb5m8Pqg38OTpwIjlaXY0SeWi9lqbC9Jw/2l+kjOBxSUS0ZgQjE4wsMFLxpYxkS0QCB8TPqxwiOZeCJqFDD1Q7xvMXsL1t9SYwRtT3szLwnTnKimNEUbP9MCOfNt+wSGbtzgDfx3SRbtLmuLZrbnkU9nCqvXGqgcrHGqrBawVVuHKMTb2/4TE1AbUCARmgHTtTbvg/pzvVvtnbquLyuVSjUJPTriiypFE8M9ejQvjc2P8o+UzD4zSEQXB/kXNSLrPQ07Xj7XhARrQ3F3mVzWMIn3NFEW4HbTRKY1Rs2GA1Ojbq7ZUBzr+4RO2U2iLILRO1s9KPx6WN/WOKUyyRTS2RYNtkyocZSaTDaGtU9SeLWuoxzYEvi6pQUC6WK8IV7SSeGqXsCysj+GSZH9dJW6Sy4uc0Af0UrUZABB/c70Xi3ivkMFSIgdXjOCIZROQMJTFXlMur+R7cKJK2q0hbhuIJNg6zY5qBEQuWw+RDvy3HgdcLvHK+IOZLQ1knRMfzsnhUokakslkj1uiQMCJZXEfICGmZN4allrDaIPBzUcWPT3fhciEdWnfO2eyPcAzwPbRbbIckEyr1u2c4MazEj81pS4ZIQB4hIm49/t5iLy4bbcNp+6iJRWgCamUC4oPkQ6cdu3KCHb2X+bC1fmKaqK3jiFWtCjTN2hLE83Pd+IPI3N8PqGi0rEdDGCMVrdypQ8R7S6M5ngXQsq24P9eBr8TuFewMwh6MqwZrnH8POHrWN2qNdgw+p7TnxmdJlbveGcHYdQE8Lxbr7zl2tTXOkdIOmHujbLu0jcYmltOhyEfaESNch0sbvEEUTd9VPmyRdkvlnm7xST4FOyO4e5oT54g1M1M96dAE1MoEZICS92QhhMvlYb4hNomV5ILpD1MalkPIgSNJ37V+Vbz7SjkuLRmVzf7WlBEGCREcvfiZU8Xrdx9pwc1CfveIFXw2340PllZhhDTWBaKONnui8EYSqrZvatlHQ6Q1fo3WQSPPgbWUHaKaS21RZa/6rvbjRWlPD8924bapDlw62qosOdsA2w7nePY3t0gYbYeKndbsAlHi9+Q68eGyKkyW82ySdsLlGUb6B1U865t/J+2/h6iss4enKiJqAto/2oSACD7c38qowgjC0zJS5QkJUTKTiIwRhSMaczPm7wjhA5HQ101x4IIxVpwhowtHMD5kFTWTnxt70Ong+1QETc79JwGPwVGy53yPWjSbIw2s0BpRi2i5/oeVGpnFzVR6LinRlq0VIR189+5alUXMhFPaZkavtvtiKhF1fkUEozeG8EW9vWKYm8+UiX5NiWQ1hNE2aLUYhuci0usm2fEfUeKM4LLcMNsB2yYDKLRcznBSZfh/Kqr62ok2/L5/KsmQ5GN2jnRoAmpDAjJGGQV52KeMsODjJVVYzW2b6wko9aBTjY95FZy/GbjGh4dlNCJxMGLGSMSBNDSDwAybppLO5DqOE3K7WL7Dc7Oc6C2NajKzru0xVWAtFI/LqJdqgD+Cv9f/TSukA8NP7mkKKfLZLVanWnX+gh1BDBNF/PYCL+6UwehcIQiWufjLUCEOUbeGvSKaMygRinykLRw+QCCvnCt6Z6EXc2Xws4oa57xStVwrw+u8NpKiO1KDsRtCqqbPidJujq4/d1PPqwmoDQnIAImDIw4t0hViyZ6R0YaVEUud0Z+oIeZXbBFlMlvUEjd+e05Uy82iXvjAU/as+Y3OaLC8Bn6exzlZGvNl0rivn2DDbdMceFAUWs+FHny1vApZJQEl95dVRlDmianCUtyOSM0l7bEIZkjrcIcajO+v0PC+GEo3oeZQyn1xlIidYUlfqo5vVwfwpiicp+e7cW+eE7cJ8VwrbYx5NVxt3kUGIFXoXZ5fcwYhwnj+R8sxaLWuFnX9yAwXPhCrNW5jAKvlOlwy8FH5Gu2QoDKetS2Ij5b5cLcQCC0aP88orNl59gVNQO2AgNJBNXOCqBBuWdJrRRXyd4XVw+bos2e5hYCJjExoXCz//26lHw+I/L5yoh1njbKmioLLsYwG2RxCMsDPUIqTjLiTK60i1/hw/uhG+X6PyvnektGRy0mypZPM2B7ESmmszO7eKvaA18yGy3VFLEdCBafyQ9I75aEC9dxq1TPjAMKJW280qaxUudynjTKgrHZEsHBXEFO2BDFYCP5TUcKcQObWxqw2eIIMCGwbBMmGytXsue0PBuEYNis1J2hVu7PcNMWOdxd5kLs5ZbVYTC917SnExXpxXRevd5Q886dnudREMxU0j3cg7UwTUDsjICWhBcoSDZPOPsmBr2WUKXVEVXTMaAyUwbXSOLjWxi/y3BauxdydYXxc6MWV2VYlhX8npNHUSUczsEEZ18NGy0ZP8G/HS8Ol7GdkrZuMfheKWrpCGnEPGZ1fnONWSZXj1gWwcGdI7ZPGOtc+abwNR9IDRsNO3pJI64R7Q/5nWM9GkdpuhlUEueSBlQCnl4WQVRzAR5wwFvtygyjNK0R9ME/sOLmnR8jzP1EGojMU6omjHvz5QDo7wedIpc1BhfNEpwqBPDMrpbjXCAm6IgmVJW0kE6Z/D65lnFYWwEPTnThHSPEIORbnetgmDvR6NAG1MwIiVGOTh0o5yyzTW0TZPC6d+itRG0t2hVToPD30uVsaOLNO3SLf10oj4iRy7zU+ZZkYcr9KGvZp0ohZIkFF3+S4ZufdH9LnF7hGiCMxwZ/5NzZERlw4d3DLBDtun+pAD7EM98tI+cQ8N/67wIPXllbhy1U+lQM1eVMQc8RmLBEVt9wSRYmQLKNw5aKgmDjHgudUTpz0NFCtEt3qREnJd9+Hnckc5PiKgFK5NcY1MLEvInaJhMoqB9tFLfC6mc2+tCKsAgbT5BmMkO/ISf0Pinx4pdCHZws8eHyuCw/J/eghpHOrqJvrx9lVJ+wmZM57zHvJHC7m6BzM4EGwHfGZGMfj8+Pqc0ZAn5ojNqvIj6EbQlhYEVGT2qFE2qLmejCTngmyVLmvL/biDmlPVMG0flTHVD48rtn5mwJNQO2QgNLBBmjkYHDC8bV8NyaKNy9xRpWEZyc1UxXsHOwQo0v9eHOBVzX47nJd3Ufb1LYo3YSQOJqywSur1uC8zQUbOxsjr9XAEdLoD+tfsQe/FXDkJaly7doD05z4r4y+bxR48e7iKrWnPvNLBpf4MX5TADNFPRVIh15iiWCZgJGWYkcM66WxMlrIigI7/DFlY5hYaYD2j/NSBjiBui/w/xzZjc+W++NqQwDaSJ6D4eYNolp4v3n+IrmORaJguH5q6tYARm8IoH+xXxHNZ8u88l3ceEEGi0fkfv9NOjrnaZihflj/XQrceOBP9VbqSEFTltw0FcbAZdgrPl8mDVKhsv7OP4TwuPTi6yKx9kKSlgA7PffiMtpNqh3RatHe75B7MVeewdcrfPhHjkPlklE1kdTMzn8g0ATUzgmIMBoWU+aPlZHyApG/D0gDH7Tar3IvOEoZkQk1cgshGSM2519ckRq1IHDmthB6y2j8xHQXLpJR7Ci5xl//sEslOXIC0ezczQGvMx0kNTbWdPB7sFBbN7EW3MJFdRBRTdwpk3aO+Es9jpfOe5o00AvEUv51rA03iU1h5OdhabBPz3DhxdkuvD7fjQ9E6dHKGPh8SRW+EdtKfCudre/yfaOP3A+umzM++66otFfnufCcHPtJOcdDcp97iJK7bZJdKVEWkrtABgJe27FyjccIjpJrJ44W8PmcJq9nCGij+Z1JCHvdA7kvBO8P75PZvTwQ8Njp9oo2mST4xnwPskWNrZK2QpL1x5Mqb4dRrB/Jpx7SbiqE1GdsCcpg58HV8nlabZbj4LMjMnnNmoA6AAEZYAMzoh3MHbp5kgP/EWvzzUqfkvzrXZxnYd3ovRURQ7mxGi7zSIXx5+8My8gdwucr/KqUx73i6a+WayYZMHeE4HkOVl43BjZio0EbHYfnNOwC1QFxtNxHWlGDuM6RDn+RNFqulbtciOCvYi+vl2u/QRSVAVqMWyc6FJjf9I9G8HchFdpF47PXCdFdJYTHCCDPQ7V4npDNWXJezsWwlATvv3F9KaSumRFE4/kY343IpMIxSIzn4ADCNAyCyaksfkeyfFps3tuFXvRd68MUaRfLRbWxDMxeia71oOVi0imVYKFY4SGiPl8VIu4hbYILSEmmrMjZUm1BE1AHIiADRodV+T/yM6MklPy9hVDytoexwRMTe5FQDY72rOFkIueManbvhjNcjWJ7DDkbgvhgiRf3SaO7bKLYNLl+lgZh5zM6ntH4lc0SsGPxbwbMrjNT4LloVQjjvKoT1v+tJUEryY5nWOGWImQD6feTr/y+hk3mfec1MUHwTJKiPPdzhCS6j7fharFXL4piyRI7uEBs005fFJFE4ifPniDpcG6NIf9tYjWLRBmxVhUVzzVCwIx2KlUs5+L5G15jJqEJqAMSEBsmO4IREaEyoJ05aZg0yGyb2mfpW7EWy8pT5ThYE6hhI6RlowSn36dN84hy4tzJOncEeVsD6CuqimFgqgNOLLPDc5SntCdYM8bopC3dSIn0jpn+e2sg/ZzGzy0F3mfC+Jn3+decP5N7blTZvEqe8aPSab8Qi8kkwCWVUeyUZ8cIFkP8tFdUOg0nlA2QfLZXJTBBBp6XxZ5dKO31xBFie4XYGKzg9+S5W+P7agLqgATUEGwoJAHKf9oV2pTrxVo8MMOFlxd78cNaP+ZuD2JrfSi8oQxXkMbK6niM8DhDcWx0R1WOESU8S4SwYNXbopKeEcvHNUGsOXSpjMBUSJybogWgImMnoY1Skr2+EfPaMmVDOgt4PwyyYTTJyPGh6ugqRECLeYO0o3+KsmEhu5cWePDJCh8GlAQxblNQVUwodTLfSkhHBhk+u5880/rnytIYnGinFWNy4edynGdE7fSYlrJZqeeXsr8trfAaQhNQJyAgMzDk/hsZOX/zwy5cKnbq2Vku/CDynIteGdFhxUQWRWMUjQlyqgE3mDsyQMIicZHAGGbO2RBQk9lcO/ZwnhO3iOK6iEpJGnO30cxlsag9zZikxqRIdjIqJVqJdJhZOcLs+7RXNLxm43d+r4bflzaKHZwhdxI3dxRlEiBzf7rKfTtP2s31OXbcm+vAc3PcahfRIdKeZssgsI45OuEEknW7Rdkwr6jBc5JnR7vFagpUOFWiaDmvw0jh4sqwqj/19kIvbp/kwBlyflVdQQivtZTOvqAJqJMSEO2ZMV/D3xlC5Rqv7kJG/5xsV5GeUaV+rLSE1ap7rmz+SaMmKXEOScCoGomK8p6WjQ2caQBs4CWuOBZVxpCzOYjvRSm9v9CD/wrh3SWjN+0CI15URr8SMvyVkCJBW8FO0CXNyhG83rbsEM0FlQyvm6/GzwS/l/FdFeS7MzGUGwpQ3dw+0YZ/TXfgNVGUXxZ6MaIkgPzyEFbZwyjzRlSul0cGCGaSU8HQKtMyq2gnrZXJYMGQeihRh23eBHLlWXwhx31qpkvtyHuCPHtGGFlLnNdN4jHIv+F3ak1oAuqkBJQOdgyOwJzDocRntIuRnn9OdeCpuS68J9aKZRzGizwvFIXDAlMcbVNru4i9G7oBjrhUR9HqGpWNzcWqTMjjxnMLy8OYvjWIsaKWaOF6CTG9tdSLF4Wc/j3fjcdmu9SkN+erOM/0V06mimriHATtgLIk0mEV6u2JASPqwyiQGYzs3KaAtjX9s1QFPAdrLxl/4/n2nN+4pnowQsSOzHyfK0TFXD82lQ3OEqW0Tk/OdeN5JmDKPf5oeRW+ExXKZQzMKGbCIjcSKLWLIhUiZ+4NN7FM1nAJRDrBNCAbue+c1zOs1RpbRB2P95mRzecLvGppDu8rAxQkHX4vRhSNAam9QBPQIUBA6WBnSR+l2dFoCxhyvkPk+ev5bpUMyJovq5wRbJKOwUQ/EhInOCnvSUxm0ZWfgO8hiQmi0lmotEhuq6xhFamZKoTHqM1Xy6rU6m4myd2d68SVch0XTrSju3SgC+Renied+hzBWbR4VFSCc+Xnc8dw0t2Ks2j7pKN1E3SV73GO4EL5mfamUch7aH9OF8t4hoDH4OdPFZwpxzxXjn2enOcsOR/PTYvJa+E1MfJ04QQbrhbLdKcQ+b9EabwilvTjxR4MljYwSYh37pag2uKGxcEqAjFVZC4h90/dkybcP04iM4rJqpW0yiQoh6jOMl8cK8VGz98VVmTG5TcPTnOohaS0VyRMzueQYNu7mtQEdIgREBukASOSxr93lVGSyXMnclJZRvOT2DGlE94iNuplsQnDin0o2B5EmRCIKnQvlmBfc0Zm66N+7EzcZzxVMpRpAtzvngscWWrEJp2rUkhqhxDe1kASG33VaocPzmEwI3eadOgJQlrclJHKiqHjIWv9+GGlD98u9+GrIh8+pdJY5BUb6MUbQqa0OGZ4K9+DD+R978n7+PqJEEcfZmLLcYhB8hxHiEXljiUsZzptSwgztkfkWiJyTRGUyn3Y4o+r6FOFXLNVrp0lUDmvxu9EsqZCoWWlfaqulQ4m39+cuHm/Gt6z1L0iaTExcJmQTY58334rfLhT1A2fzamj5FmNEMgzSyU+/qjs+GzbO/kQmoAOMQJqDCQjWhJaICMhkfV8LxUF8PfJdtw/w4WnZZR/RTp5b1FJXB80XUhhYXkIa+0RWAIJeKOcI2I0LaWU9u5UJmCHVDZvb6Tq4NQimuSOmon60T+1dILpAsROXwzbvDGlqjaIImBUiNdBS7JSbCDtDSfNzVBkCSurSLDkBD/HY2xypcAJdy7J4HloLak8uJhUhbmFPJm8t2fiviHMvmdDkJDFRlHZsJQJ53zKxL4WCcHN3ibqcHMAfVb78JqoG66he5RzatOcuE3U4VliVY3nQzCKRtKhuiXMnm17hSYgTUCNgg2acyqc/+AkKiePuXyjq4y6LBnCBMiX57rx2dIqUSZB5IlKWFAZQzEXlkonpkLgPAUVDidU2eFYkoLKgNX0GLUxbNpe+IlSkL/t9XtboME1kGxMrp3ExLkxKj2uLOd3VrlWoo6o8rgcYqeoGqY6FApJzhZ1N0FU1vdrfMqKcpnJfVPsQjSptVeMZHLCnmTT3MJz7R2agDQBNQrDqnGENaJqaiJTLBtD7Awnny44SWzbydKYuo624aJxdjXB/fB0pyr1QCv0wyo/cstCSn1w/doGURnWICdSpSOz45pak6ZAPmv697YDV8ozl6rMkxBllSq/wbIko0oDqnTqS0LYvC/3C3mzDMd52Va5d6m1byy1y8RPBgoMS8X7bSicjmCrmgNNQJqADhjsDOwULBtBG8DV77Rvxt5k58sIzsntv0oHu1WsA7ciemKOG/+e58bzBR68vcSHL5b78J1YDRYz71fsx2DppJxzmb0tqBIhV9vEWomaWl8Pwx7RGrGT05qxXCltn5pzEXXFZEqjdMae8h17rB5/T9k74z18P6sR8vOpYmEJuMRuWcVS0ubxfLR5PD9LhvCaWA2SUaypZUGMXBdQyZ78DsQXK6rU9sTPi5p5cp4Hj8x24YGZLvSY6lTr1LjOjNEpRs54H4+RtsKJY4L30rBSnY1szKAJSBNQi4GdyIi4GZUVDdDSGZ2N72VnO3NoJS4WJfDPHDueFPX06nw3PlxShS/VyvYq9OYk8QofBhb7MHp9AJPLApgpJDBvVxQFFVEsFKWxxBJCkS2MFfaIwmpnHCXSuNd5WMZDSEReS0WZrHHF97yH7y+0hlSZjXnlIbGRQUzbGsL4TUG1qSP33efSFF7DF0t96ppYQuQ/omLuncLok01ln/M7EFQrnEvj9zzMsK2C9OUrnclGHQw0AWkCajEYHZLgBDc7ZjqMSA1Bm8HfufCV9oMKipnUp4+w4lRRUgSjcyfL6xmiHk6tx+mCM0RREMwm7iZqizjTAMPo9SH0s8dYFfg7YbzH+Aw/z+PwmKcJThEwGniiXMPJzFFS1yF/l+ug5eQ8WMoq/ZjtTZBUzWyroWoIs/t1KEITkCagNociKOmcVAXGzwQ7LZUEc1oMi8dkSuNnw7a0HFJLWgiel9eRjoZlNwxogmk6NAFpAtLQaDNoAtIEpKHRZtAEpAlIQ6PNoAlIE5CGRptBE5AmIA2NNoMmIE1AGhptBk1AmoA0NNoMmoA0AWlotBk0AWkC0tBoM2gC0gSkodFm0ASkCUhDo82gCUgTkIZGm0ETUIYJaFSxENB4TUAaGk2BJqAMElBFIIkJ6wO4coJdE5CGRhOgCSiDBGQVApq2OYArJtpVwS2zG66hoZECS5dcLAT0RJ4Lm7xJ1GkCOjg4w9WYuz2Ey3Ps+OMATUAaGvsCayaxeNtlo214fo4b23ys7W3erzo7MkZAwUQdSlwJXDvFqQlIQ6MRGAR003g7PltShYqAJqCDRrJ2N6yhGvSY7tqzZa+ujqeh8VOwZC2rSnJX2dGlAXEP3FHEvF91dmSMgIhwdR3+O8+jagV3tj2cNDQyBdYI5zzpQzNdWFweQiBea9qfDgVkkIB2I15Tgx9W+3H7JIcmIA2NfYDOgBte9lzgwS5fXPpNnUl/OjSQQQKqUztiFuwM43lRQYcPSBUuN3sAGhqHKoxpCe6N9u0qn9qPrbZut0l/OjSQUQKq212DykACvVYF8LuBqU36Gj4ADY1DGdzt5PQsCx7JdSC3LCD9hvM/moAOHtyBs447bVYjd2sI146z4cxhFjUZbfYgNDQORTBAc4L0i35rAijzxOq35dYElAHITdzNybQarHfH8PlSHy4ba1Ne1+xBaGi0J9AaGXubmSETEV3OiZ4xtBI35NixoCICfzSJ6ppqZcF2m/apzo+MEdDu3f8TC8YbWYNALIliewx3TnfhWN54gQ7Ja7QV2PYItsOfkEva/0+UwdLY4ZVWyfiZ4HuNY+3rOEY7T0f6NfCYN4634ZPFHlQG4kgK+YTiSTUJrZdiHCQSchN9ZPTaatSIFfMLCQ0oDuC2KQ4VctQT0hptAZIDiYXgLq+H9a/Yg98NqMCfpG0eW982SRIkEf7M7bG7ZqV+TycWbjnNnWnTj/Pb+uMwt8c4l4K8tyEJvVLgwSZ3FNHqJKLJJDzhBILxaiGjQzMUnzEC8kXFejkjCCWS8nuNyMpqrHNG8XmRD6fJw1QPUpOQRgbB9mQokL9Ih+8iJEAcJz+fLuTRfYQVV2bbcMM4O/420Y6bJznwt6lO9Mhz4b5Zbjw8x4N/zXPjhQIvXl9YhTcWegUevLXIg/eXePHOYv6e+h/xmqDngir8e74XD872yDFcciwnbst14qbJDlw/wY5rxtpw6SirIjAS0NH113SyXM8D052YtDkog3W1uIVqBET97PLH1cCd0AR0cKgMJDFrSwAuYfTdcnP/JwTECbZFlWHcLQ/9fGkMHD3SRwQNjeaAbYcDmUE67ODEaVkWHCN/P1xwhOD04RZcPsaGu6Y48cIcNz5e5MU3y6qQJYp8yqYQFpeHsdYew2Z3HNurYqrt2kM1cIUSpuD/0rHDV40NzjjW2qJYuiuMmVuCGL42gN7LfHhbyOxZIbc7hOy6CxEdL0TURcjnXLme8ZsCsIn1SkW+quGQY5fIdbjDmoAOGuW+JKatD2BHVRQxkZepm1wDTzSBQiGhh2Sk6Do01WAMmauh0VSQfNh2Dk+zP8cMqlAq534Z4HrO8+BLIYCs0qCKwi6pjKDYmVArzXf6q9V6K1tQSCZSA3+sFsFELSLJOrFCdWoOJlG7G8naOlPwf+mIVe9GWD4bkmME5FheOaZdjr1LzrFN+sFmOedqIZYCIadp2yMYuzmMiZtDcg1xJKo5MHPtVzVKHRGMKgnAIp+rOURzgTJGQNurkhhXGsDS8hAq/TH5mxCQKCBaMSZbjRJyekRIiNJY2zGN/YHtg/OGR4mdOl5ezxCVw/o514jNuUMsz6NzPXhlURW+XhnAhA0hLNwZwTpHXNSMWJtYjVIUtXWp4IhZe21p1NTVCVEJQcVr4Y7UwinKKVkrKoeRYhUtrsU6VxTj1gWUqtKT0AeJrcL6lKEj1pCEwvI3ElCK7XcLEQViCfG/AVwtHtnID9J2TMMA24JhsQwwkfVPgpOlvVwpFubRXBf6FvlQsC0saqIGEVEvZm2xo8AWrMYqawR+ISlNQAeJHaokawDPz3ajf7Ff/lZPQJwLEjA6xtDjjG1BPDTduWeSTtsxDbYBtoUuonYYMSU4f3KvWKt3FngxXJR1vgxqpa6EslJV0VrEanZ3+E5L60eFVK3zgA4eqib0Gj9uzbHjuXy3IptYMvkjCckrk6580QTGbgzg2TluJalPEUtGiW3WMDU6L6h2jOgVw+C05peIyvn7VAcenePCp6J0xou1WlkZhSWQQCRZ22Z2SqPlkFEC4q4Y3aURXT/Zjimb6G0TQjyihOpVkCIjUUZcrrFQRrTHxMufIyPd0fVKSFuyQwN81iQfzvEcwTmeoRZlzV8v8GDShoDY+ShCCQYxzNuaRudBxgnoknE2nD7ComzWakccdbvFpzcgoTp5rRIlxCjAF8uqcJOopt/2T+VvmDVYjc4FJvIdKc+aNvyxPBf6rQ5giSWuokcszkW1c6hGhQ41ZJyAuC8Yvfz5QkJccLfZU5/3kDYfpH4WUuLi1TW2iLzPhx5CWJdkW3GaSHHKco6QZo1Xo2OCNvskeT1HSOeaiXY8NMuNj5f5kFsWxlZPAtWMWJm0K43OjRYhIE4iMunw7xNsGCjkwgloqp49BGSQEIlJwHmhVZYwnp/rxvliyQ6nLJfPa0vWsWFEtk4XcE0glfGNE+z4doUPa+3RQ3YnCI0f0SIEdIQQEH3+CaJmHsxzYsnOMKoinA8yISEBJ6eZlr7WGcWw0oCS5eeMtColpSJlWg11SNBqMY/n3OEWPDPHhSx5tivscZQzVydeqxWPRgsR0KAKNfIdKUR0wWirqpBYUC4kJErnJyS0h4xqFBFxbUxuWRCvL67C36c6pfFacYIc61i92WGHQHoC4XmjbfhnrhPvLfFixraQPNukJh2NvdBiBGQ0SK4QPkxGwjcXe7FcbBYzozn3sy8SMmwZKytO2BhCj8kOnCojqHFMQ9Ybx9doH+Azoeql9f6L4A+CZ+d6MGNLSJWcqKk9dOsea+wbLU5AbJDM8zgn24oXF3qwXmxWUBrkvpVQCrHqahXGX+OIKulOCX++EBGzY0lq6Y1fo23BgAGfCctbnC2K9dGZbmSXhbHGmYArXKOWJezeraNaGj9FixMQkbJjlbhY/vdOoRcLd4VVHRSDbPZNRIye1aDCH8Os7UF8tLQKj85y4bqJdpwjZHSiHNeImGlV1PrgPVf5PPIMzhTiuX6SA68urMIUIR9fjAs5NeloNI5WISADR8vff91/F3rO92DxznAqOlZPMqYkZCDNmjF3qN8qn6osx9q6jJgZE9WahFoPBvnw3p+aZQFLrkwWpWoNyPMyaR8aGmZoVQJSdkwI4+xRVjwy04WJG1iKIP6j2jEjHwP1aonRsp2iiIqsYQxfF1AFpHpMsuN0ktHACjUa66hZy4Lkw+qCxw2x4KoxNny+3I8FFTHYg9yUQM/1aDQdrUpABBsvo2NdR1hwT65Thd3Xu1hDqBq1oohMyScd9UTEn+3BOIoqwxhR4seLCzyqTAOV0Vliz2jNOC/BfCJNSJmBEeGiku020oo7c134ZmUAa50JVR/HrF1oaDSGVicgAySHX/SvUJXrPlniRbmoGpZz/UnCYmNIs2aucBxLdoXw9VIvrp1ox+HSUX5Tn4dizBEZMLsejf2DdouDx+8Ej+S5MG0zy66YtwcNjaagzQhIhWuFHLoOtahV0H/LdWBISQCbRQ0pYlEwIZ2GqFdEiZqkyjPaVhXDUmsEE8qC+GqlD0+J1bturE2FiEl6XeTaaNPYmXgNZtem8VOQuJkYepkozI+E5PN3ReEIkfzN24OGRlPQZgRkgOqERPTHARW4faoDXy33YXFFOFXOg6Vd0yxXozDeVz+XFI4nscUTQ96WIPqsqMLz8924J08s2iQ7LhttxZlCfCQibdMaB+8LyfuMrEpVeP2jIh9KHTGVyWzWDjQ0moM2J6B0/EFI6AQhhh6THJiwMYCKQAw1dTVNi5Q1BMmo3p4x2uaPxrDGGsbIEj9emOXEDXKd3KmASZIc2UmExnVoq/YjqBJJQFxcPKI0qOoXmz1/DY0DQbsiIGPF9HnDrbgux47/5Hswdh23sK0vdN8ca0bUqyLOKyVJQrGEUlalzijyy0MYsyGgbFrPfDfum+bAJaOsOE7OTyJkRI3KjFbNCPObXXNnBb8vyYclMx6Z4UZOWRjbfEwQ1ZPNGplDuyIggqMtOzyt0ZkjrCpS1kss1MztQWwSS8UND7mcwyAXU+Ixwx7ySiEhhOaNxBW5LRQyyhai+3Qp93xyq72e/iZ28NoJdlwspMRrYvoAd2HgKzO7mZFtTG6bfY+ODJLP6VkWtZXSU7NcGLsxqBMLNVoE7Y6A0sFOzvR+dvibhAx6LfVhtS21+WGtkAiL3StCMSOc/YGfq7doCvXHCYpK2uaNYu62IL5bXoV/5blwgdiPI+U7/bp/Bf4gyoigQmIBtYbKqKPbN147lQ/Jh+vwOB8Xr+Y9Mn/uGhoHg3ZNQNxvmyTE3JMzxApcPNaGm0WZcE0ZV8xv8cbUlj97iKg5iogwVFTa5zhfFE4m1QaLjKhxLVr+rjBytgQxqFQs2wofXpfzPznTiTsn2XFldmoXTNa8oWr7vRAm0WVgx7NvtMCcD7t4tBWvFHhRaInDE+HWSlr5aLQM2jUBGaDVodpgnaE/SefuJorksZkufCFkMEmIoVhIIlW4vH6lvQmxNBnqcwah/QjOQbmFlGjZmPyYVxbA0LV+fLmsCq8t8OC/c924f4YLt0xz4q8THfjreDv+Osam5pWooM4amiIpI5GPZEUcI6Ct499JVA3RWmqK5yLhc1fRl/K9mL0jqnad0OUzNFoSHYKAGsKwZr8VnDXSihdmuzF5Ywg7fAkZrVPWbPcea9WAYA4UJKJ0y5Z2/OoaklMc271xrLREMXV9AP2W+/B2vgfPznDijhy7IiKG/pnI9/Mfdgkq8H9i6ZiMye/BxbpMCyCOT0Nr5CqR5KjUOPnfY7ITK+xyH3W1Qo1WQIckIMOaEadJp75stA3XTXLg/plufFRYJWQUwDp7BIFYXCxVevQsRRimBNMUKHXUAPL3OrFtiRruAMtth5Jq/2/uOb7eHcVaR0SsTBRzy6Nqy+CxmwLKyn29yoePRD29sciD50Q9PS2K7tHclK27ZbwN14h64rZFVE5UgIcLSf1eyOon4N/3gT8J2f3ZBJy/2ut9gnNHWNV1LCgPwxMlgZs/Zw2NTKJDElA6jElTlv9k3eHLhYwenu7CB0u8GL7Bj9k7QyhxRmENxlMWTW2N+1MSOWjsRXJ7o07OyZo43I6IE+jeSAI7fTFscEWxyhpG/o6gsnRcnJtV7Fer/b8WBfVBoRevLRSCEiX18BwX7p3lwl1CVHfmOXH7dCf+IYR1q4C276apDoUbBddPSeFGAaN5DcH3Ge+5QXDrNAd6LqhC7pbUhHOdrt2j0Uro8ARkBmZVG9bm0mwbXpzjxhRRRTv9SdSoziXE0MBGmZJKpkAianjOJkE+qyA/y3GSQmCBmNi9UFzVSNriiWK9M45iWxQrKsMKS3eFsVBIt6ko3BXCamtE7TaqbZdGa6NTEhCjOWpyV167iYVhVOcGsTb/zHPh2XyvUhh5m4MotUWUGmFO0B6i2Av1BJIJpCuuA4EcgwmVjNLFxe5Fk0lRUwlVnoS5UVwHR/D7uJsMRrmS8MVqVI6Ptl0arY1OSUDpaBhBY4H7v4234ckZLlUsnfMxM7eLChAy2ugWqxaIq07Nxa17JTw2IIM2gTp/Gjnu9fsBQKksndms0Xbo9ATUEAw3M9LE5RaMQv1ccJHYtCemO/HhwtTWwKy66A7FEKcy2ssS1aMtSSiT0HM9Gm2MQ46AOGlNEqIqMnJxzhCbdtEoK64Za1Or5bmVzL/nuPD2Ii/6rvKrpMfllohKTOT+Zolqdl4SUWNo0NnbIzQBabQxDjkCMgNtmpG1zHwcY2fXC0ZYcdN4Ox6f6cIbQkYMnWetC2D8liBmloexyh7BJk9U7WXGzOlggtatGrW7a+uzs9nJmwgzgmgx8NpYTkMTkEbbQhOQCQybZhAT82m4/uv3gl+JdSOOFdX04DQHPhLbNqLYh/nbg9joiqpJ3XjNbtTt5tyKdPR9QojAiHARrUlCinzMn6OGRmtCE5AJDJumXgVMeGREzagzTXAyu/tIKy4X23bNRLvKpblzulPl6jw2z4u3C6vww2o/Rpam8ntmiGpaaQ2jzBODNZCEJ5oqsB9JJlFdV6dyhcytXHNAciH28b895KOVj0b7gCagA4SRAEkyMjKMmX9k1BI6Z4QFt4h9u3uKA4/kOvGsENNbiz34coUP35cEkLU+hHGbg5i+LYiFFTEst8Ww2h5V4No21izaLGS1wxdXu8Q6QqnQuTeagE/A0DtBEgvEqxEUcGFupLoasZoaBYbrDTB8r8lHo71BE1AGQDJqiPR5JRIVFdRvB1SKfavEr4WkiGPkb6w0yHkmlr54YKpT4XEhrOdnpqJy/YSwskVF5W4OYJ7YvCXlIZVwuMoSxmpLRJVHXeeMq4RElqAt9ydgDdYo2IJJOINxBRKU2XPT0GhLaAJqIRgkZIAkxORIw8JxRbyqJyTvO3e4Bd1HWPfgIrF2rFt9rdi76ybY1Tq3W0RJ/V1s3m1CTlyC8ff61x55LtwluGeGWD9RWU/OduPpuR6Fx+Z48Mhct4rkrbLGTJ+bhkZbQhNQG4LzTCQmkhV/NhRTOkhaDReS0uaxGgAXkvJ3/p2JliQ043N7Cu4Ps+DDQh9W2uKmz02jdVFTW4dgLI4yhxelFifWWVzY5qqCKxBGPMmdgg8ti6wJqJ0j3dbtD+mfOVHI5/SsSlw33oZlQj7JOvPnptG6IPmsr3Tg49yFeHZUHl4YMxO9ZhViVukW2HwBJA6x6pOagDohaOtY2fCmSXb8IM+kMlCt13m1E+Ru2oG7R+fh9oGTcM+gyXhk6FRc++0Y3Nh3HB4Znovec4uwcHM5fOEoqms7f7qEJqBOBqofEtDJQy14vsCDTW6WIdHrvdoau8VaxUTdfJa/En96rz8eGDUdH+QtxpezluI+IZ4rvxmN8z4Zgmt7j8IL42dj/OqN2OzwIBBlTataZd06oz3TBNTJwAlvEhAja9xptlYarVY/bY9qIRCLL4g3py3Aie/+gJkbtsMn5BJLVsMZjGD+pp14d2oBTntvAH7TszeO+2AgvplXhOJym3pfUC2Q7nyKSBNQJwOTJZml/cmyKhQ7dOSrvYDqJZJI4lOxWH8RkhmwZC22u31qcEiKwnEFw1hb4UD2yvV4euxsnPVZFq4WVXRH/4l4WBTSIyOm4/Gxs/CsENigJcUo2LwT2z1+RIXAzM7XUaAJqBOByueULAsuGmfHrJ1hBOKH1oRmR8AosVZX9R2LZ4VMppWUKQVkWCvaNFbtnF9WjpcmzcPfvp+AK3qNxGVfDsfFXwzDuV8OQ7evR+LWgTl4fsIc9BU7N3fTDmwTIiMRdcTdSzQBdRKoyJfYL67of6vAi20+bldk/qw02g6b7W78ULAC53w8GP8dNxu7qgJ77btGRUS7FoglUGxxIl+s2cy1ZZgkyqhf/nK8MGE2Tus1HIe99h0Of/4rXPbVCHwyeyl2ejumGtIE1ElA9XP4wErcO8ONgvIofLHOH0HpiGAYfm2FHf/NnoEHh07FBzOWYIc3ICpo7/dRFZGE3MEIHP4gLEJUZQ4PVuy0YlzpVnw5bwX+M2o6rvs2G9d+N0ZF0LKWlmCdzbXXcdo7NAF1AhiRr1OHW/HOMj+qhHyq9WaC7RaheAK5azfj2TEz8dc+2cgVQnEJ0Zi9l0RERUR7ZvyNtbsdgRAWbd6J9/IW4x/9J+Ksjwahx4AcfDVnGVZUOOAOx1DTAdqAJqBOAEa+ug61qG2kubNFw9FUo31BTUgnazCwsAQXfjkczwsRzVm31fS98Zoatb0Uw/Dpf+cxkjW1aiHy4m2VeGPKfJz17g847o2+uK5/DmZtrlD/S/9Me4QmoE4AtT+aqJ/viwPY4mUZWfNnpNF+wEFircUpiqUIt3wzGp9OXwR/JLoX0fA987ZW4tnJ+Ri1cj022t17HYPgPJ8nHMWqXTYMWrQG94/IRZePB+NvAybjm/xVKlLGie2Gn2svyDgBXSIExLVJZh1FI/NQSzBE/Vw5wY6CyhjCOumwwyAUT6K4wo4be4/GU8NzsabcilAssef/tFo5pdtwrVirJ0Ql5RRv3uvz6aAi8goRjRFrd/XgyTjlw4G48bsx+H7BKpRWOvc6bntCxgmo+1ibqotj1lk0Mov0yNfbBV5s93HjRfPno9H+wHkdzv30zJmHf43MxXfzimDxBfZ6jysUQcGWXbhv5HR8kb9yr/81hDFxvcHhxSsT5+LCjwbhqJe+xueirtZVOkw/09bIGAHt8icxtjSAS8fb1Aptsw6jkVlw4plrvu7KdWLqpiA8EZ3309FAwhhaWILHsmfg1qwpKLV79vo/s5+dwTAml5ZhyXbLXv8zA3OBIolqrNhpw8d5S3CB2LHrxeJ9mLsI24WYIqK6zD7XVsgYAVkCSUzZFMAVE+3agrUSSEB/EQXENV/bvHFEq7X96mhgDlCREMszE+fhuM+ysGB7pcqMTn8PlY1f7FUo1vSSKrRvqyuceHNqAbp/PhTX9snG9wUrsVEIjmvSzD7TFsgYAdlD1ZixNYjLhIC0BWsdnJFVie4jLPhmVUCFXLX96nigYqmKxPDJrKU45q1+ap6HczkN30cSSg/FNwUkMrdYuJcmzcdZn2bh6Hd+wABRWxW+oOn72wIZIyB/rBYrbTFcPdmhCagVcCzXfGVZ8ChD71vNc0g02j84aDCcPqKoFFd+PRJfzl6K1eU20/ceCGrq6lSY/rnJ+fjFm31xVf+J6Fu4FonqWkVqZp9pTWSMgGI1u7EzUI2/57qUBVOJcQ06jUbmcKTc4y5DLei90o+N7vYZ4dBoOhaU7cJ/xs3CE6OmY/SKdYo4mqt49gXOI03dsB3d+43H4e8PwD+ypmJNhQP+aNtXycwYAXENSyBRh8dnuVWZUZYEZZlRs86jcfAgAR0/3ILZ5WGEE3ryuaODa8LGrt6Ii74ZjZemFKjJaZKQ2XubC6osWyCM6Rt34PLvxuDUjwYpoituB5GxjBEQQRX0ZZEf142z43hNQC0CqkpmPncbZsHfxO4WO+MdchW0xt7glkqlNjd6iDp5dOR05JZshieUOWvNyW5rIKSWblzdJxtdPxyIoWLFuMbM7P2thYwSULK2DtO3hPC0qKCjBqYKrpt1Io0DB60tC9X/dawN7y70olxsr9mz0Oh4oCX6Ym4RHhuZi/9kz1DRsWAGEwhrRVEt2CJWb/xs/PLl3nhsdB5y121VA1hbBTAySEC7Ubu7Bjt9MXy6ogq/7F+hJkrNOpHGgYOk/tsBFbgz14m8LUFURbX96ixg1Gqzw4u3chfhuPf640NRK5mckCaohIau2oCfvd0PfxAV9NTkfFFf1Rmze81FBgmoDrvrUrtz5pQFcNkYq1ogqW1YZkEC+o2Q++Nz3djkjup6z50IjEpxecak4s24a/AUPDA8FyNXrjd978FgtcWF53MX4DSuGfthglJaVeG2qZ6ZOQLaLR2Be5D/rxoljgjeLnDj0myrmgsy60gazYea/xEcLXijsEokO0cuPf/T2bBihxXvTMlHjyFT0G9Jsel7Dga0eqsr7Li+TzYu/Gwo+sxbga0un+l7WxoZnQNK7TteI7YggWWVYdw81YEj9cr4jIGTz6cOseD6cTZklQZTyWmmz0GjI2Pmuq14cNAkvC0kNHfDdtP3HAyU0hKn8s+R03HsJ4PxjwE5WCakZ/belkbGCChZu1uF4avrauTnarjCCXy8rApXjbertWEnaCt20GDZjROzLHg8z4W8rWHT56DRccG8H87RDFlaquoEsbzGFofX9L0HCxY5+zJ/Ba7+bgxOerMvslesVxnZZu9tSWSMgALxWmytStbXHqkRa1CNxbvC6LnAiyOl45CAdGLiwYFbLXPHi/cWe7FS7/Xe6cBoFJdOfD5vOU76aDDyRAmxhKvZew8WPNeisnI8N2YmfvHs53hz6gKxZa2fF5QxArIGq5G/IwRvJKHmgjghHauuxoztIdw60Y6zh1l0WP4gceRAIaDhFgwu8WOnT2c/dzZwScYGuwcfzSrEFd+Mxspd9hZbLkHrzkJm/Zasxc9f6YNrvhuLH0Rxmb23JZExAtrlSyJ3YwDlvpjIyGT9hHQNdgXiGLchgPtznThHOg9JSCuh5sFIPmRaw7mjrZi2JSiNR+f/dDZwlfrCLeX4KG8xHhw6TZGR2fsyBYb952zaiRu/H4/zuUtH9kxVlZFEaPb+lkDGCGiH2K8JpQGstETgCHF0ThFQTW01ArEk+q32447Jjj07d2oSajp4r7i0hT/fMMGOwsqIWF2960VnAzcunFK8CR/lLsTrOXOxzVX1k/dkOuhQ5vDi27nLcMFHg3Bzn2wUbatAlclq/JZCxgiI8z8j1gYwpjSIFVZ+ASGg3azQxw3TRAn54xi41o/zRAWxQ2k71nQYBHTecCseyHVhozfZLlYya2QWzAHKXrEOH+YuwMeCnR7/Xv9njeiausySUCAaQ2mFHTf/MAHdPhmCVybMQanFafrelkDGCGg7Cag4gNfzPRguSojko2yYQrXYsmqsc0Xx/Zoq3D7ZjtOyKnHUoApNRE2AQUBXZtvQc54HO/zafnVGBOMJDFu6Fu9OzcenooLKGxDQLm8As9dvw2anN2Mr2avFhvlE8bwt52M5kAuEhKas3ayuxez9mUbGCIg1oUet8eO2SXa8utCjVvNWi/1SBFSXek3WJlWo75uVPrWQ8nghoROkc9GWmXU8jRRU5UMhoJvFfn2zzAdrkPbW/DlodFwoAiosxtuT5+OjaVRAqeRArtNieJ7k8++Ruap2UCbnh6imc9duwsNZU/Dz/3yOT2YswSZHy84/GcgoAaldMcbacHuuA4vKQ/BGUxExRUACRsZqBe5ojdq/6t4pdpwhlqyLTlZsFFSJvxtQgdunOjF5XQBeXfu5UyIsFmy8WLB3p+Tj1Yk/zgFxnRZ3T1VVE9/oi/sHT0bO6o0/+fyBgvlHO4TsvpxZiP976mPc3nccRgnJmb0308g4AV0sBHT2aCtenOfGGnsEyZr6iFg9CdGO1e2ulVE8qUq4vrrAg6snpArZ62RFc5CAfi8E9MAMF5bsDKucK7NnoNGxwb3dZ6/bgreEgO4dMgXrbal9wBgdmyXqh2U6uIr91A8G4sMZhervmSrFwjWcU4s34+KPh6D7p1l4XgiQ5Ttaun50xglIbUwoZHLWMAuGl/phCTBhTr4E54T2kBC/VI0QUQ2WVYTxQaEXZ4+x4Qz5DO0Gt5rhq1lnPBTB9V+sMvnMfA82OGN6AWonRUI6O/cGe3taAS79eiRWlNuUPeJWzt/NW44b+o7FYa/3xR8F/xozE1tFIXEHDLNjHQjWWV14Z+oCVT/68j7ZGLN6E9ZUOuAKhpUFbIm6Uy1CQFQzJJBHxIpN3MCCRw0IqF4J8e/R6mps98WRty2Cu6Y5cbyQzx/l83w164yHIjgJfdygSry+qAqWYA0StToC1hnBDs4iZJ/NXoYT3vlB5ehQgXDC+RVRRZd9MxpdPx+GK/uMxhMjc/F9wQpUZLCgGNNl1tuqcEv/Sfjdq9/iBFFazEcavHgNyr1+lSZg9rmDQYsQEEdrTiyfM8KCZ8WKFVki8Kn5IBMSEjBC5gonMX1bCO+LGvr7ZDu6yWc58aoTF3+Mgn2w1I9gok4aqvkz0OjY4GQz6zcPLyrFpV+NQN+ClVgvqsQbieHe0TNwvqiiOwZOwuezluK1SfNxa99xWLRlF6IZIgZWVgglapTyeSFnHm7rPxG3yDnu7J+D/8j5e80pwowN29VykURNZqxZy1iwQRWq0/xJiKi7WKu3FnqxysbkOblR6QSUTkRUSYKd/hiGrPHhnjwnzs+2Kitn2LJDkYj4nfn9SeifrwigRhqpXgHfuVFQVo5/Z8/E06PzMGJZCba4fbhqYA7O7TVC5ekwWZDkdDK32Vm4GjvcP01YPBhwLmqzw4MxQoQvTpyLG78bi25v/4C/CgH+d/xsTCvdovYXC4gyO9i22GIExM5D9XKcvB4/3IovllWhVEjI1I7tIaLUSnqW81jtiGBIiR8PTLXjVCEhbvVzKBa6J/HwPnIt3berA5p8DgFU+AKYULwZV/UehfuGTFURqXO/HI5L5Pdec5ZhmxAOQ/L3CCk9PiJX7aJhdpwDBeedOOfjF+XFiei1FiemlJTh07zFuHfQJJz+/gC8JMQ0Z+P2g54XalECIhjZ4vbB10604+OlVdjgjCLI7WHNSKjekhGcld9aFUPe1iA+EPLi9sMXjrSqvKGjD6GwPQmIuHiUFQPWtm0BcY3WAStKlLmq8MbUBbhrQA7+LgrkyDf74haxRLmiPmiByr1CUqs34qGR01Wh+UqPHzFVicL8mAcDkpE9EFblYccI2b0i9u+u4bl4dNwsDF5ago0Or7KOZp/dH1qcgAjDjl02zo4+RT6UOKKKYH5CQOmoj5QRO4SIcjYG8J85blw5wY7TR1jQdWgqOtTZrRnJRxUhG2vD8NL2s6OlRsuCnX7Z9kq8PTkfZ783AGd/moWeQkhlLp8iKC7L4KTxu7OWoeeUAkwWMrKLWsnUXmL7Au0ZJ75fnL4Yl/Ybj1t+GI8BhWuxXiwZr4uF780+ty+0CgERtBEnZEmHGmHFu4u9KKpkQa16kknPEzJBoqYaflFNlcEE5uwI4cNCLy4bbcXRcsw/iDXrzFsAkYDOyLKgxyQ7JmzUBHSogETCqBOVzvIdViwX9bFNVE68hukrKZLhpPFOIYPBy0pxR9ZULN1pO2Al0lTw3FwtbxVFxCjda5Pm4gYhooezZ6LY4oK/mbt4tBoBEbRjRwpZXDHehp4LPJi7PaQqJ+6xXibko5BmzTyRBFbbIxi+LoC3C6vw0AyXUgddh1nU2jKCqsjs/B0RJKBuQy14XCzo9C26CuKhBmZBMxRPsHxGw/+zsmGpzYMBQkIz1m/DFmfLVFA0gzcUVUXNvpi3HM9MmIt/j52NWRt3qOVWTVVirUpAhGHHuooS+leeCzO3BeEMxdXkc50Z+TREmjWrDMQxRz7/0SIPbp/mwDnZVpwy3ILTpcOeLmqLRJSyMObX0hHA62ck8LnZbszbofeA1/gpaMei1bWYL52/cGuFsklUR5kKWPA4xsQ0I19MTLT6g2o31+2iyhZtq8S7eUvw6xe/VnZwZYVDEafZsRqi1QmIUHZMXo8Xorg5x44vl1ehwh+TG8fJ6cbtWDqSYs0CYs3soQRKXFFMLgvi3UVeVXeIO4ceJvaMVQR5PrPr6AgwCOjFOS7kawLS2AdIENzEkKRQYnWqvLtaISaz9zYXJBNmXG+1ezCndAu+nbMMb06ahydH5uKOQZPwtx8m4oIvh+PnL32tInWfzy1CJEmraH68dLQJAREkBdY4Pi3LghuFhF5b4kXuthDK/fG9LJcZ8eyBek9qDonJjPZgAiusEeRsDqHXqgCezfegxzQnrhhjw7FyPpLRUXJOnpsdmzC7tvYElREuBNRznhsLyzUBaTQO7nZR7gsIAcUzNh+0wVWF98RmPSc2676sqbi63zjc0X8iHpafn86eiZcnzcerUwvQc3I+euevxJxN5UiINWyKAmszAjJAMuBWw7Rlj85yI3uDSDuxVlQ2qpyHGfGYIc2a1e6uUws21zujGFMaQE8hossm2NFNLNqpYv2oKBhZokXj+Q1Cao9WjSRNpfiafIfCitarVKfRMUHVUV1HIqpWVszsPc3FjLJyHPfFMBz26rf4dc9vcOQng3Hf8Fz0FiWUu7YMS8SCbbC7YRPi44r+5iivNicgdnpm+pIEThBi6D7WhofynJhWFhJFU2/JmhApS8dueS+rMLIoflU0qeaKNnljmLE9iG9X+vDvmS78VVQRJ8W5bo1rz7h8pD1G0xQByX15a4EHRZWagDT2DyqPWrFkRrTsYLHR4cGHM5bg3E+H4JT3+uPpMTMwe8N2OANhtU6NlRyZg8ToGBMTmzP31OYElA52Nu59xbKt9+e58PkKP+buCKlyrrRYB2LNfkS12rFjgyuqjjlClNHny6vwnCiL++RcN+U4cOEoUUeiNkiGagcKuR7DqpEkza65pWEQ0NsHSUDJmhoEIjE1Su0USb3N6YUnGM548hobYSAWR6WcZ7u7Cru8fhUViVfXNmlOoK3BqJIRdToY8Dhmx08HOyttktnnG4OaYN7PvVRKyOS7HEjmMjOi1+yy4d9jZ+HiL4fj2q9G4OvZS1G0vfKgi9i3KwJKx+EDKlSxsieFHMauD2CDO6oKnFHVsKiZKfE0hnp7tgdCSJSLzMyesSWIvit8eHa2G3dOceAKUWGnjLSqSB3tGuepDJVm2DbDshkw+w6ZwMEoIDbSGmmEnlAUG0UiF2zaiUmrNmB44VoMXrQaM0q3YJ3VqSIbTekwjYEJaFGR/UyUK9hagbGrNyKrsBiji0oxV85bYhWJHmB9KBJRyybLNQe8FloVbziqlh1sFGJeWekUOFQ0p7lYJZ8ttbnhDP50vo7nIuH7wjE45Fw7PH6VwMe92lPn3D/43i1uPyz+kAqDM6G34bOjAokma9R70q9ttXyeg8GB3v9xxZvw4LBpOFZs2DVCQq/lzEO+PFvWrmbOUnOUj4F2S0Ds5OzY5woJXSmE8NgMFwat9qHEHlFLOWizmmvN9oJ8jkTGciD+WBKOcAI7xaqtddQrpHUBfFLoxVMznLhxnF1NBDPp8Tf9K1R1Qlo2lsjg+rSWzMbeMwdU0Pw5IJKPSzpC34JVuHvIFJzz+VBVePz0jwfjtI8G4azPhuLhEdORI6TEDmF2jKaCdYXXbJcBY/wcnPP1SJwhcv00Oc8Zcr6zPx+GG/uNxwczCrFTlXWQ+29yjNZGihBqsGqnVS3qfG7CHNws9+m8vmNx3rfZOK/P6GbjEvnsPcNzMWlt2V7nMnY9LRUSGLZkrdr7nSU1/jFwEi75frycc1yT0F3u491y/Fcnz0f/ghUo3Faplkmkn4uDwTaHVz3383qNxHnfyLX1Ho2L+2RjlhDGgc4NcVX+YhlcPpi2AFcIAR379vc4WxTR+3mLVdZ2c7OgiXZLQAQ7NYmIOG+EBbdOtqOndMTBJQEs2hVGRSAhBJJSM3vQkGj2BfX+egJLA60eQ5i0fWtsEczeFsQoIaNeq3x4dYkQ0jw3HprpUrWLbplgV2u0eJ1dhJBYiO1IAZMhSRwsJ0Jyonriew7EytGScjFuKgrWPAKiR5+3cQd6SCM/5p3v8TMZuRriJCGie7OmIr9sl6rjbXac/YFEx0zdf4+bjVOF5H722rc/Oc8f3+yrMmaHLy35yW4PbQE+Z64y/7awBE8Jad4onbvrZ1n40zs/4Gev8vp742cvNx+HyXc/+4th6C8q88dz1aC8KoABK9bhP6Ia/iaE0/3LYTj5g4E4Qjrxr17vK/fsuxRe6WMO3lP5/89f/w7HvD8A58p9vl7I7vHsmei7cA3W7rIr68vzkQjWi+J5a+qC1HXx+wgOk8+PK96cWgZVf23NBe0Y14T1nrcc90i76fZpFq4X4n153CzklpSp/CCzz+0L7ZqA0mEUKmPHvnS0DS/OcWPsxhBK3HE4Rb0w/Mi8IFOyaQ5ITHtZNYH8PSkNtopzSGLZFotCyhFS+npZldg2l8plOivbipPFtp0kRHmK4CRRbicKcTApsmtW5U8SI7mOzSBXwiCphuBnmNP0wgHkAbGWTC/x6l0/HCgN8Wv8TBrvL9/oi18JGRD/J7+zcf9BOkCv/JXY7Gx+WQfKbp80yoFLS1MNnZ2Ix+W55ByE+l3Oc6J0uIek0RaJUjI7VmvC5g9gjCi/474QwjQIR17/INf7FyEhFgQ7EJwm3/EqIbOhK9annSuIydI5z5KOqu4PSUHux6/k5z/I8zhaPnfce/1xvBDL8fLz8UJKe0EGj+Pfk//J//m+w+Uaf62uWchdjnWhqBGuVOceXySfvQjoJXnufK+cj1GscWs2HRQBGWDhtHmipv4rg86VQrgXi9p9XOzZzHXbVHtot5nQBwp2UKMDd82y4IIRVpyfbcMtUx34YKFHzePs8om/VTtxpJFIc1RRI2BBfW6ySMtGC8gJbVswgR2ilNZ7YigStTRzRxhjNgTRv9iPT5ZW4SVRLQ9Oc4iFs6G7kBJJiKTC70ALx9QDA8xPop1riKMGpizYs7OanwldLI3w/dyFOFUax8969sHPpbFz9Dz5w0E4UUjpsLc48n6L38jf7xs6FZOlcZodpzHQxjAd//kJc1MdgiN1PQEdJec5WqB+l8Z/lHQelhUt2LLL9FitCZazeGLUdBwuHTxFnMR3uEXUYq+5yzFi+TohqI3Nxni5hyzatVXUlXGuufL7w3J/+f33nEteT5B7QzXEZ9R/0WoMLSptHKIefyhYifsGT8YZfKavpI7ze3l+Z4mSpQLhPl+tQUCcd+LcIS31UrFlQxevwdNiKZ8bOwtDRP01dWK6wxBQOtiJqRqOko57knTqa8fa8PAMJ94t9Kq5m4LyEMqEFAJxRiPqSSgdDcilSVCfrVdEDUByovriXJJVbOEWbwzF9ohYpjByywIYKdfUT0jpy+U+fLzMh7eX+PB8Ae2cB4+Igrprugt3CJHeJkqKW+9cJ9/nr6KouOCWVSXPEWXF1IFZ25pHQGtElr+duwCnfDxENUCqH87NULrfJY34mA8GqMb5C1FAXUVK08szrMq9osyOZwZmyX4hHfai3qPUOXi8w9/9Aed/NVzN+1z8zSj8H0d9+fuR0gGv6pONeZvLTY/VmhgpHfra78bgd3JPeG2/fasfzhQ19OnsZao2coUvqCalmwub2F6Wy+DKcJ6H0aghy0px+ieDcRjPJeTDgYD36J4RuRi/eoOag9rq9Cqb1ijEujIbOXftZjwhHf1nPB7JnRZXyOj7BavkPb5WIaB0sCIjd/BgUftv5xWhn5Ak56Z4H8zen44OSUDpYN4OlQILlvG8rBn075lODJBrWWKNY5s/oXKBWI2xyevNDgTpts0ELMCvIiDRaliD1djqTaDEHkXhrjCmbQ5hREkAfZdX4YvCKrwviu71+W5lMx/Lc6l99d8q8CB/50EQkCigXwrRnCNy+V+j89B3/go1V6FIQzXiPugxdJraFZMp/WbHawiSD+cd7hyem2rk9Uqn22dZ6DlhDl6ZMBv/HJCD/+P/BGYERKnO0DBHVBKfgQON1KgcGDkeF24yxE3wZ5WfknbM/kuK0V2sy29oEeuv7R4hZVqI9OMdDHgt3Mn0iwWrU/emHr+Wc57++TD0WbjG9HNNQZbYx18Jif0fr1+e4e+F5D/OW6R2OW1tAkrHRiHvacUb0W/BSrWrB6/F7H0GOjwBEcZcCVVRN1FE3YaLahAFcYmoiUdFOfSWjr1gZwjbq6iK0iJoBg5UFTUTdXXM4WBReeZkVKtRMiiNgQTJqgBc02YJxlERiKNcsEMsZZkQ1QZPEptF0XkichyTe78vNCSgX0gjPUWkes/JBSja6cAV/SYo22EQEHdC6C8Nhztwmh2vIdzBMAo2bse1oqiU/eJxpMHf0HecipZ8NmMxbpKfGyMgEgSlPPOG0kGb29y1TKrDy2cYamYZi80yKm9yVmG7/NxwaYIioF5CQPU29EixpndzDkO+T/oxDwZ7CKhACMiwpnK/fyukwQLzQ8RSmX2uKRi7tgwnfTYUh9FCtiMCYioGJ6JX7bJhu9x/Rkcbmw/qFATUEIwcGaU5zhULc8tEO56c41IWrZ9c44RNQSyrjKBcOjgbemoHVxOYkMhBQR2XhNcUpD6zWwiLDYqJhDV1zUv4MiMgTgS/M30J7IEoXppagK5UQfUN9Dj5H4ueF+20KXVjdsx0sFRnz8nzcYZ0BH6enesIsTJPZs9QeTV95y9Xdq8xAvKGY2o19Tu5C/GGAek4C4XAUoPFT8+7LzAaRzLLKSnDa7mL8LIc56XJ+fh01jJFiE4hTOO9ewjIUEDv98fdQ6di5oYWIiDegzQCuvrbbAwXa2b2uaZgYskWdP1yOH7P6GY7IiCC8z98/iSfcDxx6BFQOqiKGA43Imhdh1pwzRgbXpnnwejSAIqsYWwVImIeEOdwwmLVWACNOUKc2/kJibQ2SER71Frz8iz2RUAfzixUoeFp0lEfoH1KC9X+8c1+GC9efn8hedqkKaVbcZqQj+oEMsKTaC5m3WIhHr6HuTX7IyAW1PpWLMpv2FEM/PcLfDWnSEWPmmPF+J2scrwnxs1OfR/5zj97sRe6fjgIfRnls/+43fDgwhK1clvNy8h7/yx25h8/TEDOmo0qT4YEzHPvD40R5KFKQM1BpycgI+pkRNBOl99Z4J0Tu+eJTes+3oabJtvx1CwX+q30Y/bWEDa6omKLRLJXy4NSJGAQAEFCqP9bQ7JoaezOjAL6QAiIe4ux+Dm3+/3Z81+lFIw00N++3hfvTV8kn7WZHpPgiLZTbE2v/BUq7+UX7Fjy2f/r2Rs9p+Rj6Y5UmL3JBCTv+w0tnIGDJaDxQkDyXZXtkWvqKt+fu0ikE9DU4k24Z9Ak/JEEJN+dE/RHyPU9P2k+Fm+pUAmcJOF9gfu4M6GysQxyTUD7R6cnoH2BNo1Jg1zyQYXEjOs7JjnwuBDRyws9+GhFFYatC2DWthAKK8LY6I7BFoyrHTu4pobbS++xSmYwI5CDRYYI6L28JfIdalW6/thVG3D2R4PwB86FSAP9lXSSq78fj/7L9j0/wQbO4ugPj8pLEYZ8jhOrXURFZC0vhas++tF0AlqD35AACR7vuQMjIM7xMCv4yYlzU52dkON1/YQEtGovAlon9vE7UWoXfzUch5OEmAck5+/+9Uj8K3umkPBiRc6mmL0Mn84twueiqgYsLVU7RjC3ySKETkIyLIcmoP3jkCWgdNCmGXk3fxJC+mX/FM4fZcW9Uxx4aY5b1JEPuVuCWFQhCsmbgD1cA3c0qWpV07ZxUpnWjZPMapK7JRRShgjoHelcbIRsqOw4/8megZM+GvxjJxEyejxnntoquCEB8HdG896XY5xrzB+J0jji/QG4XMhmwbbKPe9tbQJKSud3hRJ4Kid/vwTEQaTU6sKrE+eoZQVdhISYkPkbuU7uv/5/VIXPfWmOF+R/TOyU9x734UD5juPwityvyWJdqSpp4XjdmoD2D01AAto0JjoayY5URwQXodKudRe7duEYGy4Wu3b5RDvuzHXi37PdeHGeB31W+DBlkxBTeQiljigqA0nEazh/QLKgZWsimqKaWoCAuJNCXulWXNJrZGouiJ1EGuudQ6aiVD4fFCuafkxG7riI8q5hufi9dCRldaSTX9BrBL4SVVCWlk3dngmIx+U92OH2Yeb6bera7xsyRRTRCPxFlNwvec1URS+Z4IVeKdsqJPQb+f6HCwlwG+Mr5bu9MHGeuu8hsWmagPYPTUCNgDlGVEfGRHYX+V7EaVmVuGCEReUc3SyE9ECeC8/Mc6PnQi8+KPKjz9ogBpQGMHJDALlbg1gsFo7ktFls3E7fj1aOuUmMwO1Ot23Gz6YgATV9IropBMR5E2azPiiE0oUhXTVv0kdNJn8jnXJ7WkYvwT3CR0rHuaj36BRhqE71LW5m9EzUVFU4tue97ZmA0sGw/TqbG1PXbsaAxcX4VM79utyjV3IXCRb+FNKxX5gwV62hOzMtivh7UVDnCyn0X8BzuTUBNQGagA4QKvdISIl1g7hKviG6yN8ZcbtlvB3/meVWCYY/iFpi5C23LIiFYuXWOiPYJoTE3B8W5ueOH75YUoWfCeYIEVznRuURF4vHzO7GwprpaAoB8X20DF/OWaZyU1RjFXQRsrhGyGOxWCojJM/zMpzN3TGPE8tlENDv3u+Px8SChBOp6JFx/o5CQAcClnJZtnUXnhw3S4Xy/+8NOZd8xz8LiT82bBpmr9vabALi+xsi/f/paK8ExKhgc1InNAEdBIwlIays2BD8O99zppAQLdwl2TZ0J8amrNxFgktFPV2RY8dVk+zoIbbuublufLTYg2+KqvD9Sh8Gy/0cttafIq3NnAyPYKs3hlh101RQUwmImcLMu3lmwpw9IXmu0D5aCIOLKjmxy85Aohq9agOOlk72G/k/3/fzV77FbYMmq7VTqWzjH8/fmQmI9445R1zDdeGXw/C7t/spJci1ZXcLQU8TNcV71lQC4pINvrch9lXErb0SEHOA0hM+9wdNQC0IIwXAICkuOKWFM6Jv6ThJ3nvhSItaB/a3CXYVkbtrigP3THXgvmkOPDjDhdfF4mULGbkinDcyfw7paCoBsZOTZPouWqPmP7g4lY2W8xtvTFuA5Tut6j1MrX83b/FeeUO/lOOyXOc6i+sn5+/MBGRg/Mr1uL7PKPyRRCD3i/NBdw7IwZTiTc0iIFY55E6nC3dYMUHIZeTKDUIWmzFlbRnmrN8G7naRXsenPREQr4vZz2vk3KulzbHd8dUhbcpsL7N0aAJqR1C2jmRVH5EzwPmnw/pXoNsIrnNzY4vc66bI3KYSkAHudHlTv3HKfrHB/koa7O39J2CUdBSOaiOXl+KOwZNTJCH/+yU7nJBVjnQSziWlH4toOgGt/pGAXiEBfakmhTsCAY0VhXjNNwYBiQJqIgFdKXZ36NIfCYjhey5m/VCs8C3y+XM+y8JFvUbganlfj/4TVboEd0Y1wvzjS8pw2ueivJpJQGOFgFjDOf07HAx4Ldyqed6mHTJoLMX3BSvVcp4vZy/Fwi271ILUxp6hJqB2hvSInAGqKO4cwjklloxdZY+YdviGaC4BbZIO2mdekaqcyI7LVewko+cm5YtCiuGxsbPRhXM/nKiWBs11ZY8Om4aV9Qop/VhEUwiIZStYi2gPAb0qeLEXvpq3vEMQ0JCiUlUVkKTC72hKQOmLUeWe/lrsKytTfrdg1Z7jsCPzmW5yVamtbUg+f5H7dfhb/VQZj3N7j8JbMwsVCVFxDF29Eb99vz9+wfM2lYDELrOsB2v5pH+HAwUtN3PJZq3fqlbBfz6rEMNYhndZCb6VAeT7/BWq7G9jpTk0AXUAGFbuRHm9RCwa98f3x36U4/tCcwnIF4li+Y5K/LXf+BTJqA7zLS78biw+yl+Ns74e9ePfpWNfJTZirDToShkB049joCkExDSAgYUl0jnqCYjHl2M/OXYW8tZtU+Ut/NEYQrF4o+AEuD+axI6qIB4bv/9ERH5/JkzSevIamgN+3y0OD5ZsrcDzOfPlew1QmdS8/iOEgJ4cladqAPE8nMPhtsknfDxoj7Vl5jgrIT42eoaql71NSJhKgaVQ+Eol+vLkfJzz5Qj8rp7YeF+6y/1+e0Yhhq9Yh2cnz8fP+D9Ofst3/IO859v5y1VZjzohhl1CVJ+JmuL/1D2V/1PRPj1uNiaKCiqT9zFnyez7NQUqKFJdC69cL7PKvxb1QwIatHAVRi1di+FL1uCrmUswUsiIOVckY+Pep0MTUAcCI27HDbdi9AbWnsk8ARGMuN09ZiYOe++HPQ1X1Z3hJGs9IalRXP5+//BctfRhXztrNIWA2IhzhWiOlU78a56H55D3MsnxGZLQ+u1Ytt2C4nJboyi1uLGm0o35Zbtw54jc/RIQlcS8snJMX79Nzr+1WZi4egP6i9X496jpOE9skOrkcs3MHTrlw0GqI5aIAjHONb10K/45cJKQk9xTFhFTJNsHJ4uCZF2mwUtL1D0pEiVJMPKYI8rh70Om4Ch5XuoZEEJwPMdZolBP+aQ+cVSeBYnlWFFKY1ZuUOqG9pzPN0vs4Z9FsbL6Jc/J53CsPAMuOP5Bns2ENRtNv99+IdfG+kScs7JU+dUc1cBFa/DF7EK1AHn4kmLkrt2kVNEw+W7hRnZJ1QTUgcBJbO6Q8dVyP0qd+6/ZsxcBSeP9hXRwVkJsjIDiNTXIElVza/+JqYxfqhJ25DRy+Ln87aKvRuCr2ctS2dIy4jY8DtEUAqLF2uH1Y0DhWlz2w4TUeXr2VlnJLEHa/YvhuFTOdXmvkY3iClFnlwsuEjt0lFiTfREQR2KW+Ri+fD3+3j9HJR52l890l2M0FefL+8/6LEtdH0u4kkxoG0+Xe/uvkdNRtMOm1osZ35F5ViNEtXQ1FGQ9YR0mnz1ajsG6TBfJ/y79ZrTCJYIL5DxHyv+4xGXPdxGyoS3+vQwGLKDG33m8s+TzL02Yg5JK555JX2XDbG58I1b2HPmO6hoFv3n1OxwlRMgNCfg9zL5fo5BzdReSzV6+Tikhll9lJcav5y5TxDutZLMqUL9gSzm+FALqu2h1qm57/b1oCE1AHQjMzj55qAUvzHUjf+f+C9QrApomBMSyqC/3xs+l0XPVd8/chfskIP5tozTcXiLfu8no+wc2cmYE1+O30hGY9fvqlHwsFAXR8PPpUAT03Rj8n2r836gQNSsnztm8c6/3qexq6aR9ZbR8SFTPzUJEF0ljP1Wu+wjpgIfLNRwu195UMHrXGAFxXuar/JWqNO2vOEci5KEie81BPYlwjuwC6eD/EMLmvWZnZImR9BGfczZlrip8MH8FeohqvEzuwbGiftS8EY/D85Ps94L8jdfG//P7pA0A6nf5WQ0onw7Bv8RW5cs9ZQmM9PvKLPZNVhc+m7sCdw/LFcs8RhEP1+yp4/DYfK5m329f4FKUf32EPnOLYPEH1bzV/I070Gd+Ed6QwY7JnAXSLr6XAYXBhcl6DqjzQK3mz7Lgnzl2jF0f3G8kjNUNP5tZiItk1Ooijb2LjHxdRLr3nLFEreTmJKLZ54gVYgWeEyt2/qdZOEIa/J+lwR4ho2e3jwajh9iG/C279ru9zgghFO7IcdQ736ss61M+Howr+o7DvH3UhCYRbZWOytrUn8k1Pi5q4up+43GFdJwrRBXsD5f3Ho3LREmoUrP7IaB+hSW4UD5D66fuy7v9mwdRJ11Y3laI5z0hntkbt6sOafa9CCo9rqBfLnaSGeb/zJqKs0SB8L5wHVoXUXym4P9FWfFcf5ZXKi5VfUCUDy3r9f0nYIDcZ5Kc2YDCNhKIVWP1LicGyD14cfwc3CAE30UUXBchQfU9zL7fvvBmP3QRYhywYLXadYXHX1fpwMiiErwkg9Lo5aUYI2rv0XGzMFqe4w5voNF2pgmoA2FPhGxoJT5Z7lOTe41FidjguW6LeTwLtlaohaILdlhQJn9rmDTYEEyyY1Rs4ZYKTC3ZgtEr1mNicRnmbCpHicWlli+YNfh0MIpVIiS4YKucV7BEzr2iwqH2lzJ7P6+JJOQKhlOb9okS44Z6K0TJNQWFIv25ru32oVP3SUA8D0moQq6tSD7DYmjqvhwIdljVZn+sh0z10VhkMkV8qeRFVpxcK8pk6U6bei7zy8xRIPdePTchLZ5r1OqNeHnSfJzMhcNig7lFzxGiZm4fNAkjRXFYfebBgOpa5hgl1OT5ZodXXTOPp45r9r0aA69HLDSrVhoJhyFpZ8wD2uCoUs+MNbXX2jywCkExSsbv3vCaDGgC6mBgUuPvB1TgPwUetec9F76aPY9MgYXHmDeSitKwFEnjiWVtCe71VSFW7nEWJDNsmBDQmaLiaAe3OL2mn2tr0K5xXqohGnZcEvPCsl0qQtZdbJxho04QG/jP78dj0JJi6fxulSvUnPSFTIDXymsm0TGaR5XZGPEY0ATUwUAC+m3/Ctw3w4XF5WEE4u2XEJoC1XBFGSRqatSIeqCg+qAqY4mNB0bPSHXOegJiXtNosQjcMcLsGjoSSC4bHR68J9b68Le+VwXVGIKnRb6uT7ZSeiQBvs/s8+0NmoA6GGjBmJR4a44D36/0wxZs2rKM9graSBaQ5+JN5s5wQvNAMLVkM/qJynlsVB66MpGSBES88q3akpjhbdofs2voSGDCIgMIJUK0w5evw9dzi/BJ3mJ8mrcIvWYvwwSxadyfn3lRZp9vb9AE1MFgJCVygeuDeS5skvtu9jw6CijX8zftxL+G5eKJkdPxZPbMA8ID8vkb+41TEbrfvV4fGn+lD87tNQKv5S5UE8QdRRU0Bcy94lorlv1g9jPB/cWoACvlu5LYzT7X3tAyBDRQE1BLg0mJJwgJFdrj4r1b1+9nEoykDF60Boc9+zl+/tyX+PnLvQ8YvxC7xQRJrnlibR5alDenLVDLEpq6U6dG6yLjBHThWJvaatis02hkDiSgY4ZZMLQ0gIpAx1VBioCWlqji9tzS54T3BxwQTvxwEM4U63Vj37F4cvQMfD6nCLnrd6h9wVidsLUnZTWahowRULkvieySAC4WBXS4JqAWB+eBjs2yoGe+G4t2ZWZxYVuAE6aLd1jw36kFyiqxYP6B4P2ZS/H5vOUYWrgWs9ZtwwabWy3z2F+ulEbbImMEVCmjcM7GAK6caNcWrBXAeaBTh1hw83g7hpVy1bj5c9HQaM/IGAHZgtWYXhZQRdu1BWt5cDKaOEts2PuFVXCGuPd955lk1Tg0kDEC8kZrsKQigqsmOfDHAZqAWgNGSJ7733NXjo6eE6Rx6CFjBBSprkNZVTVunOZUe2uZdRiNzOJkAefbrplgwzfLqlARqG5S9qmGRntBxgiotk5UUKwWj892q5GZpUVpEcw6jkZmwPvLcq1nig3rMdWBIksE0aRWQRodBxkjICJavRsfFfpwZbYNx0vH4L5aZh1HIzMwkhKPk3t91kgrRq8PqGCA2bPR0GiPyCgBJWp2Y8y6IB7KdapOoQmodcCcoD8PseCNhVVYZjFfaa6h0R6RUQLi1iJrbHG8sahKLZhU2xubdBiNzOJ4uc9/Efx1rA0D1gZNV1JraLRHZJSAmIviidRgSGkQpw+34NSsVKTGrNNoZA5UmpxzY0TsuXwvtnqTYod1SF6j/SOjBGSANuDJXIdaMGnsEKrRsuBc0G8HVOC6HDuGruEq+Y6xGlrj0EaLEJA1mMTUzQH8fZJdE1ArgRPStLxniPK8daoDK+3RTrX6W6NzokUIiHuXVwQSeGOhF5dkW3G0WANNRK0D2rAThIS4SHWXjohptHO0CAER1XW7MWtLCE/McuEX/StUvopZh9HILEhAXeT1iRku5G0J68lojXaNFiMgrkJ2hmowcn0Ql42x4cSsVOcw6zQamQPngk6Q17NHWvH+sio4w3qNmEb7RYsRkIGNniR6LffjuokOnMSomHQQnSHdsmDkscvACtw13Ym8rUF4oh27bKtG50WLExBD85Hq3Xh/iQ+XjbbhBFFBOkGxZUGCP1Hu80Wigp7Mc6lBwOzZaGi0NVqcgDgHwS06Vtqi+FwsAUmo61CLsgpmnUcjMyDJnySv58j9zioJYEcHrx2t0TnR4gREkITCiRq1WPLdRR7cNMGudvhUWw036DgamQMn/o+Se/yQqKCcTSG1h5guTarRntAqBGSA+zc5QzG8vdCD7qOsKnFOL9doWXA+iCU7nsn3wBVKINnCGxlqaDQHrUpAHH3jQkKlrgS+Lw7gxgk2nDg0tZjSrPNoHDyMkh3Xier8YpkPOwM6Q1qj/aBVCcgAJ6bLvEn8sMqPu8UecJ6CSojJinrtWObB+8p5t2vH2zFtSxjuiI6KabQPtAkBGWARs/k7o3hunkfZsaNECXFRpVkn0jg4UAUxQfFFudcFOzvuLhoanQttSkCcnHaFa7DEEsM3qwO4Y4oTp8lI/QchI5aYMOtIGgcGqiAmKHbPtuKtJVUo88QRSer5II22RZsSkAF2hHJ/EoNLAnhslhvnj7HhZCEio6iZTlzMDHgfjxpUgZsm2dF/jR/bfQm9YFWjTdEuCIjg0o1k7f+w3p1E72U+dB9rU0XNdGnXzON0wcWjrJixLYhAXE9Ka7Qd2g0BEbRkgUQdNnuSyNkawZtLfLhOiOjELAuOqJ8f0pPUBw8SOvOwHs5zYuLmkK6gqNFmaFcElI6Q2LLV9jh6Fflx3wwXLhtvx3nDrSpxkREzbc0OHCpLWtBNbO5/53rkPicU8Zs9Bw2NlkS7JSCOyAzXs6xHqTOGQWv8uGeyAydKp1H1prU1Oyio9WJy/2jFuF5snTth+hw0NFoS7ZaA0sEdP7f7klhSGcP3awP4zzw3rh9nU6vrjxhQoa3ZAUKpSLmH5wkJfbzUhxVWvaOGRuuiQxBQOiyBJObvCCtr9tBMN66aYMeFI62qIx07KLW0Q68vazqY7sD1YipTWu7ptqqkDs9rtBo6HAExWlYrtixZu1t1lpwNQTw13aFqIf/yh134nSiiY6VDmXU2DXNQPR4h5H3VeDt6iRLa7tORMY3WQYcjoHRwpK4MVGO5JYbxm4P4YmUVnp7twg0TbGq74i7SqY4dlJpwVcs8NDGZgvNBVEKnyj27VKzt1yv8KLbHTe+5hkYm0aEJKB3x6hrs8scxe2sIvaUDPT3Xg5umOPBXGdUvHGXFaWLRTpBOxslr1iIiGel5o71BC/ungRW4MceuSEjbMY2WRqchoFTUbLfanTUh9swZrkHhrjD6r/Lj3zNcuHiUBUdKBzusf0oVMcGRk9c6lP8jeC9Izn8cWIlLxtnxldgxkpDZ/dbQyAQ6DQE1BOeIvJEabPEmsbQyikli0Xqv8uHlAo/au56VGUlCfxpQoerlcOsgTUape0CC5lIYktBny3R0TKPl0GkJKB2ctI4pi5bAsooIxq4L4t3FVbhflNE1kx24ZLwN3Udbcd5wi7JqnA8xQNt2KFo2khCV0DViYT8q9KHYmYA/XqczpjUyikOCgAjDojGxkRYtWp2yaStldB9bGsC7Czz4x0Q7ThtmUZE0A5wT4bzRoWbZlB0TdJHv3W2EFfdOc2KFLaGWbZjdXw2NA8EhQ0BmqBYi8sdqRRklUeKIY97OKEZtFKu22od3C714dp4b94hdY9Ij1REVEe3aH4WY/izqgDt8MLpGhdRZiYnfmUR0gZDQM3M9GLcxBFc4iYQu7aqRARzSBGSGaLIWjmACG1wxFOwII1vs2pfLfHh+ngd3CRldLZbtQrElLBlySbYN50vHZLVBEhDtmprgltd0+9bRyYn2k+qPa8ful3swYVMAmzxxBBO1pvdQQ6Op0ATUAEx0NKJpnMiO19Cu1cEeSmKTO6ZyjiaKCuiz3I93Crx4WDrkVUJEnB/ihDaTIVnd8ff19k1N6ErnNevYHQkkUZVLJa/nCun2XlGl1uiZ3UMNjaZCE1ATwe2NwzLi+8SyMflxkyepkvUW7Iph6pYIRq4PoG+xHx8VVeGVhR6xKy48PN2JHlMcuHGcHd1HWtV8CknKDLR2LBZG1WQkThrKia8ksYZ/b0mQaIzzGTCugdd45QQbns/3YNKmkNyPGrVw2Oy+aWg0Bk1ABwljxT6jbFWRJHb64lhtiyB/ewiTNwYxpDigdqN4Kd+LO/LcuHGaE9cJKV2ZY8elXMdWb+fOFxV1QbZVJU2SrM4fblHzTmeJ7TkjK9X5aYNIACQgQkXm0kBiMOxfc2BYReM4xrF5vvRzdpXrOGuYBWcLTh4qJDTOhjfme1BYEVULhs3uj4ZGY9AElCEY1o0hf05uM9Jm2Ldwsg5BgT9RB2ekGjuEpJhbM29HGFM3BzBSlNMPK3z4YokXPee68XSeEw9OdeBWIagrhJRIRCShdIVCwmBkzgAjdVRRtH7NBWtwH1N/HLOts7sJ2VwwwoKLhByvHWvDnZMcuF+u79kZTry/wKuiiNqOaTQf/8P/A3RT4INZKv0/AAAAAElFTkSuQmCC;" parent="1" vertex="1">
                    <mxGeometry x="194.33" y="423.77" width="50.5" height="51.2" as="geometry"/>
                </mxCell>
                <mxCell id="0MlqO0iR2Z8GzJs1VqW2-15" value="" style="verticalLabelPosition=bottom;html=1;verticalAlign=top;align=center;strokeColor=none;fillColor=#00BEF2;shape=mxgraph.azure.sql_database_sql_azure;" parent="1" vertex="1">
                    <mxGeometry x="772.33" y="197" width="47.5" height="50" as="geometry"/>
                </mxCell>
                <mxCell id="0MlqO0iR2Z8GzJs1VqW2-16" value="Landing adls" style="text;html=1;strokeColor=none;fillColor=none;align=center;verticalAlign=middle;whiteSpace=wrap;rounded=0;" parent="1" vertex="1">
                    <mxGeometry x="511.33000000000004" y="382" width="60" height="30" as="geometry"/>
                </mxCell>
                <mxCell id="0MlqO0iR2Z8GzJs1VqW2-17" value="Gold&lt;br&gt;adls" style="text;html=1;strokeColor=none;fillColor=none;align=center;verticalAlign=middle;whiteSpace=wrap;rounded=0;" parent="1" vertex="1">
                    <mxGeometry x="614.33" y="382" width="60" height="30" as="geometry"/>
                </mxCell>
                <mxCell id="0MlqO0iR2Z8GzJs1VqW2-18" value="Azure SQL DB" style="text;html=1;strokeColor=none;fillColor=none;align=center;verticalAlign=middle;whiteSpace=wrap;rounded=0;" parent="1" vertex="1">
                    <mxGeometry x="758.83" y="245" width="60" height="30" as="geometry"/>
                </mxCell>
                <mxCell id="0MlqO0iR2Z8GzJs1VqW2-20" value="MySQL Container" style="text;html=1;strokeColor=none;fillColor=none;align=center;verticalAlign=middle;whiteSpace=wrap;rounded=0;" parent="1" vertex="1">
                    <mxGeometry x="187.83" y="478" width="60" height="30" as="geometry"/>
                </mxCell>
                <mxCell id="0MlqO0iR2Z8GzJs1VqW2-28" value="" style="shape=image;verticalLabelPosition=bottom;labelBackgroundColor=default;verticalAlign=top;aspect=fixed;imageAspect=0;image=data:image/png,iVBORw0KGgoAAAANSUhEUgAAADQAAAA2CAYAAACIsLrgAAAABGdBTUEAALGPC/xhBQAAAAlwSFlzAAAOwgAADsIBFShKgAAAGIJJREFUaEOVmod/VFXax/l39v3sawdCgAApBALqSlNZbDTp0gmE0HtCkUWkd+kEQhEpruu67ooru/Q00kMaEELKZPrv/T5nZmJAVN4DT86dOzP3nu99+kk66akRCoUUDAYVDoedtI/ocSAQ0P37991xOOTjh1/yeyRfC3MbwuvnHiGFg20K+lu5fMDd2yQynro/w9ZVV1fnjmPri0nsu51aWlrU2moXjHy540Vj5zqOEBf1tLJ4FhMMtMnva3XHNoIBqaHZr8J6r65Ve3SlpEHfF9Xru/wafZ9Xq3/eua9/5z/S7bJmldS3qqbFq5boPXwBH9/3Ahh5IB3v3XFtzc3N7jg2YjA2/DzMTvYBg4qN2AdsfuKi0Rm12A936GGyb16rD2rLhZtak/NvZez/TmM3XdQ7q3I1aMkRDcjYq9Q529Vv9nb1n7VTb6bv1zuLjmhkVo6m77ikxYe+1c6L18QzUDAU5AcH0QcUu2dsji386dER+Bcm1xEiNuzMzxjcFDPzBMKq4N4bL+ZpxIavlLTktHovPa++Ky+r37KvNGDZl05eX4GsPKsBy3PVf2muUheeUlLGcfWac0jdZuxXt6k7lTDpM01etUc/3Sp0dwmaqu1mSHRy41lre3o4oN/7oMGAwYXtc5icp0Wm+DWn/6P+S45r4OovlbrinAauuaTERWfUb/lX6o/0XXIOOasUYJMXAQJM4oJT6pN5Ur3n56jX/JPqw5yceUKJn2zSn2et0dX8Mq7MvQLc9SmFPDfQb40Iws9APmzcjOIfFR4Nyz4NxHl9tOm8Pj33X52+XqO1525pyJpzSlqU62CSF58BJNdB9Mo4oYR5x9Vj7jH1SD/qpPuco4rnXML840qeuVNjFm9VVaPXmU8wYNZgIM8HY+P/BUS4UCtRzh7c5ku3NGDJYQ3LOqVNud/LXDkY9DnNLcrNUw8WOXDVRael5EVnATqtXvNyADqhngAZSPc5RxSPdJ1zGDmi3nMOKm3KWl368Y67X4CHF8ZnDcYBPQdTBCgU/WTsS0990QCccPEWP5GG4+zzt9V30TENWZWjo9/d4ExQD6vvisCtXVcfY0456o8PpSw+i5mdUe+MXCXMRUPpEe0YSPzsw8ghxQHUhdc90w8redJ6bTl8gavYA3oK6DmIOoWCfMHs9Vmf73AuMgXRUFhNHGVdKlbfpaf11uqzWnn0G3fOoB8jc4/8By0cVdry885HnLmhGYNJMFNj8d2BMIlH4mYdVOfZBzk+oN4T1unTvee4CmHYh3EDYg/S8hThwp3/tWHQnQLYaTjIcm010dH+NGyy89FDyF10e8ThivOFSliYowFrL+vNFYe16Ni3OnClSAuP/lMDluL0C88pcfF59Vp4WgmZOeqJ/5hmDKgnED3QTHfENNR1JkCzvlC32fuUMCFbG/aft7vJ29bG2syPIkAG54atJ3rYcUTCtr1pi444iRtBy0MhLhAlCWGS7q1wUC0UB40cZl0oYsEn9OZfvlVa1nmOj+IrhzGtw0Q5wveyi0pZeoFwToAgMCRknAToGGZ1BJiD6g5A/EwgkDjk1en7FQdQ9/Frlb3vK7ubAj5uZrmJ+zq3iD7c9vmp8XMesnUj9jBiw4DCYS7oSM3lEdOQl8DAq+ycH5VAqO2/4KD6ziV5ztuvxDl7lZS+T72m7eA9ZOoOdZ+yVd0+2a4EtNLTzA2g7phYDCiOXNQVmJen7lXnmXsUP2GtsvZFfMjXZjCRtcXkt8YvE6t7CoaPhNqIMq3yBlsUAAbDVABVtvFWIx+7cKNO609e1V++vKNPz97UutzrWnfmmrJyf1L2yR+1nqphw/Eryj5xRQsOX1G/+YfUE/NKcECYmmkHkK7T9qkzMC9P3aPXpu9S17GrtGbvGacAr6/N+U8QkqD7F4mwtkxc/xeQzoci/mIfs6eBFkLkmTYPCw+6iPUQsVLUpJaP1jBXMN9jtuOY1HaQquhs37FS8ga+PXj5KfVAK73nHVM8GoqfecDBdAHmtSm79Monu9R52i51+3i1sg7k8C2vfH6rHGJyJypcPczKzHCiMJGEz9IhRUP2AjGno/K1WsoMLe9RUGduVWvurrMau/64xm7I1ai1xzVy7TG9n31M7644pGFL9urdJfv0zuJ9Gr7wgEYsok5buFtDFuzU0Mxdejtju4ZlUL/NP6CeAMTPJBAAFTfTzMw0g1Y+2a1XJ2/XS5N3qDPHcWOylO2A6tRw/5ia7n+u5gebkc/UVLdZngeH5W/4XmrjkbHmEAEtyuW01cHkUC1hEg6dy3ugURtPa9CKHA1edUp/Wp6jN5ed1JtLc/TGUhLmkhNKW3hU/TMPqV/GF/jQAaXM2a+U2XuVPHuPkty8Vymz9pD996j3zH3qMeMAJrZPcdP2ALMHbewGZheyU69M2grQNoB2qMvIbK3df5L1VKql7nPWnSlvXQZzhnw185GFaruXpZZ7xxVqLaadoUo3fZiYhkxNFuUCXp/oavTFtYfqtyJXr6//RgPX/UMDs4hiqy8rbeVFpa24SI12wUnq0kjSTKZ260No7k2NluDqM8SKTyQB80ogH/W0QnT6XnUDIm7qLnWZslOdTUwraOfViVv0EtJlyjZ1NaC9pqFCBetXY7uTpPrxKGwCx8w1ozkeJV/1PDXXHsZD6tpbsJD5kPU3Xp85nPSv8ja9s+GS+q/9Wq9nX1DaKhYPSL8VF1zBmUoV3dcqamBiNVriAgpMisteGSx+HnlmHmF5LqaV/gWJEzNDc91m7XNa6Yp2umBWnSejmUk7AdmBbNcrE7bppQnb1QW4rqOylb3/BKspkL8+S+GaqQBMBgapAe4eYNWjFaydpsbKtWp5eAUScxI0hHSyOO+HxnLLhkvl6k/99foGtLIGoNWXlLqcegxJWXZByUu/Ird8pWTLLYtOKwmYpMzjVANHcfbDaINIlm4wOP3cg4oDqutsnH/WfnWegfNP26tXP9mjlyft0ssTdwKxw8mL4/GhiQQFQDuPWqcVe46zmgK11qxUqHoKQJMUrjYYk4kAjVWoZoLaKtLlqTkK0IMIDaMT9YU7+Fe19NYaNLP+e/VbeV4DVmNiqy47oFRMLMW0ssQ0YzBnlAxMCppJmn+MVuAIiTMClBADQuLmfKEusw4gBrSPsAzQ1N16cdJ2vThxm15AMy+iGQN6YTwaQ2udR69X9sFcVlQgT70BAVCLVkwzJpXjFa4ci4xWqHykPGUr6DTzLQQ4qE5hAoHBXSoKaiDF5MC1f9eAVTRoK85Ti31Fs3Yef7G+5jTFaK5S6GuSF550PUwyZpaImfVEupvMpaQBKB6txM82UyP7ExC6AtLFBQFMDD95aeLnTl4cv1kvjed4/BYH9gpai//4L9p19jIruiJvzQI0g99UjwMGqfoYIGAqxigMjMqHq614nkIN/45oCKhOQaKEBYODVx8qbdk5vQ5QGhqywrI/MP3QTOqSM0pdTH+zCK1QvyUvQDOZR5WIVnrjMwbUbe4RxZlYAJhtJc2BSHhGM10Asoj2ypQdeplo9uIEYEyAeRGYFyZs0R/HbVPc5N1KHLtW14puk4Zy1FaGdmoAqpqARoCpGs0MSMVHwLyPDFNb4RT56i5CQNrBfTr5+WHFZvb5fKIXrXLWN8zALAcEzaTi/KmLTyOngEErC4/jO0fxm4MEgC/oe8xf0Apg3QCLp9ex1qAbBWcc0nUGfjT9AMlzL0C7AcJ/MK1XkJcJCnb8v/jPK5OIgqPWa9Gnh8iFJUS21QpWsfjqMc7MTDOq+gig9wAZIZW9K5UOlq9wvFqr8KOwRQE/1TaTVQMz9nxHWD5HIPgaM/vSSSph2YCcqaGZpAXAZGJmmTRj8zGvDMyMoGDSw7rRdNqE2afUc8YJxU8Fzglam3JYr008gElRs03Y58QdIza/au99+Kkmrdylxy3UHS3n5amYKn/1BwpWfuBMLIRWQsCEMLNw2TvAvC0VD3FAjaW70Y7VJgF18mB3VsaM3kxUM1NzQJiaCdEslQDg/AYzSySaWUTrQxDohTb6zKdNILrFTflMKdM/Vypz2pQtGvDJVvWdsEn9JkYkFUmZsFHJEzcqkbkPs0n3sevUY/QaDZi0VttPXFBLKyVO4Cww6QrXEppr3leg4j38Bc1gYqHyd5FhACElQwEaLP/dj/WweCPfQ6umIavXynGoYatz0BBBYCWRDb9xGxzt2jkVCc8ZaAaxfNMnk9qM4jKNymDy2sM6+8NNXa+s1tWyCl2vqNT1snLdKCtrl+sm5eW6xvn/cnytvEL/Ka/SzaoK1bfYI6VOaz6kptKZ8lXh9DUfOu0Ey9FKGVoqA6zsbY6HKFSCAKO7f5KvaKTuF6+jCiriGl6CApMVk8OzT0ci2vJLSgEmZclZt9GRbDCWPAnPCcD0RCOJC3LUmwg2es1RXbxeSHCxx3Kb9uNf8vr/roCJ71vKwp8l0PY3N4fcazv+G9UJn2u7LF/zcbXUZKm1dKrCVeMUvjcS+UjBig8AGKFw6Z8xMfOZIWjmLTTzlsLAqGgAGnpPD4rX4HcFrMET8SGzvnGb/+q0koqGUpZS0iylEiCyJRGi+8y3SsAc/ojzo5S5ezQha5/K6iu40E9qqv1c3tpF8tybp6aKWWoxKTeZrZay2Wou47hsJjJNLaVT1FoWkZaSyWotmUguGYM2PuTJmsPjI05GKARIqORtIIZIJYMQIIrfQDMDgUlDkuUtGqr6u8sUClgl7rMoJzVwmL7/JyVSyiSTRG3T0KQPYboPAL3xGytpEvCZJCqAIRlbdLXInshNcsU6isd5CtTPVOj+XHoGpD46R4/DdfhE3SwEDVDGhOsmRsQSZvXHaIX6zMJx+QdELyIY2giXmJ8MAwKYYgN5MyqvA9QfSUX6yA/Q/aKVPNi7RLqoybldnHNFaCJHKRSgiYTpRMytN5GtFxGtV2akCkhekKs+UzZrzf6zfKNantqtOG4mC5/PAtMVQoI1cyhLZhN0ZkUF0JoZClZPJetPZh6v4L2PFTKpimR8VYwChtyCr6g0AqRSYMxPMC/dfQMTe11hTCxcCExhP6Qv0kNt+YN1v5CgQJHa0vQYk6M4NQ/Y+0MtUey4M7lkqmfb4eydmaMEwnRPfKcXGkqac1SDZ23SzSLUG/6aincO9krxWJuOGARiMDWAABGqRWqmAzINgCmATIzA4PTBSgQQl/HLMLdSEmUJMMXAFBsMJub8BI0UDVSooD9ukoqkKJyPdvIBK+qpxtuD9LjKaj8CXYDE6jIs43xJgP7+C4LCZSIaMBloZ94JKmdyjG1BkTAT6TRHLt6qh81lCj0+KG/VbEBmks0NzACmoqFpThwEYpoJ3vsEiEkkynGAEI4xrwB5JVD+YSSClRLBDKZkOCDkl7uYmcGgGYMRWgkBEcrvC1iywnlo5zZABQlquPMOTd8lx2BbOZ08zY+chn7EkQYsp7dZdA7To7eZm0PlfJIW4CSZ3+aj6kUZ80HmBj1syVO4aa/8lbOAAQhNhZmD+IifMj9YM4UaDM2ZmVVxXEnFXDmRHEKCxLSC+Eqw7H0FAQmV/BkYQMzMCAARGLRTBEzhABaNeaEZFfRFM8lA9aGdTkCS5buZoscF3Lv1lgPy03F3amq4r/uNja73X/91ibpRIfch//SYB0j6GWBOK252DhX0MQf00YL1avTdVqBpmwJVMSA0hakFa6cjOH3NZLI6Jb9JBfWYSTnlSxkmBoiF4lDpcGCQu+SW4qEKk/VDhWZiZmr4TWFEMyo08zIzS1K4IBGgXrzuzOsEPb42Qs2l1j60op2wvIGWSAtuuyrW9H1b1qQByzCzhWfVc+GX6jL3rLrMyVUXgOLT8afpBwHaqEbvTYC2UJoAQ6Ol6hnITECY0Y7oXcKVVuoDYlJBJMNHwkDIypYysrzLKYMBsbwCSIn5StThi8zpk5HeLL4H2ukZnbsyv8z5PxIcktSUR/RsvBlpHVyLSulj+0G289PmbXXR7rNvyvQqrbFt35r59Zh3itYAE5xHmz3tkEZlblSz55aCjVsUuDc9AoCP6J6BmZnRhLkKmWLyHnMFc4WFZauQ8ZMKS5JAWX5xzh8pYdqh0IbyE4HCtAoxrfzugCB53ZA4CopX8aF4Pbr5njxVB7Gz+6Qf2zO0vs6AbLhewuf2u2p479Oz1zV44R51m7RJCdPoUWibe0zdp4Tx2zQmPYvwyFNpIGRXAkDnGOkkaZGdjMdvRrliUhWULzi9l8TpJZF6SyfLVzxO3sKx8haMURviyR8tT95H8tx5X778EfLfGSr/zTfkv5UmH9J2qz/SV56bSWq9nqamq2+o8fo4CtJ9UlspDK2Il/XbPriLctERtt+toinUZxr8R0GdNub8oMwdFzRnG7Lza6VvuaCNe45QqhjQdsIumrHmq8o0EukmRd8SqsRXnEaG85nhPMmp8t3/VMEHWxWoXa9AzVr5Ed+9bOq2bHkrs+SrXIWskK9iORHQZKX8ZavlKVlOJbGQzy6R994Gecp30XH/Fc3QYtuGm+0lun1vE9s5Ne0wDMLtcIX8wFrLFxmtfOcxn33IW/eZH7eaYVIVN2xDC5iby/KYlYmZVzlNGOE4aP5ilXHFUKoJNBnCPPQlYhsgtqsTnUNIOPYa8Z3GHa5wrpwnT1EWZOFhNKFixPbi0AhrcduI5jYOIArBHAFC3FYvYntbRhds8yGo0X0rslnvtGe7lgCFHmySv9Q0Y5meJswEGJWhGcv2aMcc36SVArK1YgaN2DzqvDk85XSe+iwsZqraSiahhSlqujtZjcUzVVe4Qo+qL+IBzbGH7u4ftg17W6j9tH0r2wt2L2IwkUNa8OjfB/CK8PDzB2w2OAsaQNnmvbGFzGYBCjggzA3zEvnFARGWI1k/5vg4/d3BChW9LX/hu/IUDJWvwMLzUAUoWQL5byiUl6bgnVT5SZZteW/qwQ3AKk5y/1bW5Z6t4diPyHBgUZinhsG7ve0YUGSf+xnDwVlgt+sZ0F0FGzbLV2IgALgNC6TUYKiYLdtb9AJGheSVAopKShcXigssFCeRT94gELytpuuDSJCpCt/uotCdrmq6/YFa7mF6oebIjqi7K6MdyA7azz4x7K0OW8G/Mtz3oxdxWjcgep+G9QBFQzHJ0sSVL1aLtWd7QnGhwRCOC9KiNVhfBfIGqbmAJPxgP3acKzVuUtvtIUQzkmX+B2qrN5/C5PjZrgt70XF+xmj/7UNMfnXYeyYG5Aqlmwo1EKEMwLXE1udb5n+H3GKaAcTVYQZi5Qu9i2kI81LeAHlvjqRsOsRqH3At29yg2K1fKe/tVD3Oe1fN1Yc51+QsPvbb0ucBcr8fem4gu7r7iJkeLXPDbvlLKPfL/0QZM9RJkArZdZKubGHxlvWtDkMr4TxmCsrwjRS13hhD6P6GrpUe0+1zkhw9O2gF0vTw5nCATnE/fAibi/n+7wHZ+tt/4fWbMDY6XMz9wZJpqeUyQBbZWHipNV6DqMtiQBETkzMxMj+FZPgOheUt6rHbveSh5PeWfcazITQH6Xr1NUwT1ULRWX9znHwNP3CeYGXqiY3fAbJhHL/qQ09A2nH7S27ifv9aSO1G8qNjjDRhALhO8ueCUnlWGVNMWnV8h3rsjpUwr+FD8Wq+NUhtxbQdDVlU32PVmtdfjwgSjRVbsbN79DZWkkWA3O3t0Nbg1hWTJ4d9/ldN7snXdrXYFe2I2Tb2QlfpUreotXAC2qGbvGs1WBLaYbYyP5+IlgdIHiB3qMOAUd4LBIf/oa/5A2B/IBB0xgST9OjGaDWV7yGYluA3rZH4Y/9YpIvATwD9vJaOwwHZ37896+/jfh0oekErBsPYfriAgHRMHuo0TxG1WCGBIZ9A4IpMg0NDBfEcW6VM2Z/XRT4APQA341+NBe+rpWSxAvVn8KO7XLtJ/pDHJXp3J9bh3PcJoJg8OWzNT5hcR6hnA8WE5+fSOL4UtChVyekfWdAluta98t2dT5KcoJY7o8grw9VEwdmcN5hyf4ga80bo/p1JqitYpqbaPWp7fBETo0EL1iBNLJNI4e5hI7KGXwLFXjw5fgHUcTwPUKR6oJcyl4qN4MPIAn3fU/hdVKDhlPwNx5Cj8j86rmDLed67xufsV8ohFzP9tmBXAdiryMWcqTlfteOI/D7Q80a5J2CiF3MXt+9yxsS9xaJCaC1sfyBjmovN9uuA2O/TbbY/G7TFG4R5pM12EXtQdqHIdZ8Y9toJP9ybT3/ATv+Ghn452q/oXrkpymaj/R6IwVnEtT0/Hw/Zy9q9zD7W6+N9e+6Rr9lPu0g0okUXGzv7xLCTMbHR8XX7uf8X0DOGU80zhP8dhz25mBWE0EbkDyiCfJQZU7M/rogN+5SJnWm/TOxkxxE7Z2L3tBEO6/8ApoSw01X1I60AAAAASUVORK5CYII=;" parent="1" vertex="1">
                    <mxGeometry x="571.33" y="216" width="52" height="54" as="geometry"/>
                </mxCell>
                <mxCell id="0MlqO0iR2Z8GzJs1VqW2-29" value="" style="shape=image;verticalLabelPosition=bottom;labelBackgroundColor=default;verticalAlign=top;aspect=fixed;imageAspect=0;image=data:image/png,iVBORw0KGgoAAAANSUhEUgAAADQAAAA2CAYAAACIsLrgAAAABGdBTUEAALGPC/xhBQAAAAlwSFlzAAAOwgAADsIBFShKgAAAGIJJREFUaEOVmod/VFXax/l39v3sawdCgAApBALqSlNZbDTp0gmE0HtCkUWkd+kEQhEpruu67ooru/Q00kMaEELKZPrv/T5nZmJAVN4DT86dOzP3nu99+kk66akRCoUUDAYVDoedtI/ocSAQ0P37991xOOTjh1/yeyRfC3MbwuvnHiGFg20K+lu5fMDd2yQynro/w9ZVV1fnjmPri0nsu51aWlrU2moXjHy540Vj5zqOEBf1tLJ4FhMMtMnva3XHNoIBqaHZr8J6r65Ve3SlpEHfF9Xru/wafZ9Xq3/eua9/5z/S7bJmldS3qqbFq5boPXwBH9/3Ahh5IB3v3XFtzc3N7jg2YjA2/DzMTvYBg4qN2AdsfuKi0Rm12A936GGyb16rD2rLhZtak/NvZez/TmM3XdQ7q3I1aMkRDcjYq9Q529Vv9nb1n7VTb6bv1zuLjmhkVo6m77ikxYe+1c6L18QzUDAU5AcH0QcUu2dsji386dER+Bcm1xEiNuzMzxjcFDPzBMKq4N4bL+ZpxIavlLTktHovPa++Ky+r37KvNGDZl05eX4GsPKsBy3PVf2muUheeUlLGcfWac0jdZuxXt6k7lTDpM01etUc/3Sp0dwmaqu1mSHRy41lre3o4oN/7oMGAwYXtc5icp0Wm+DWn/6P+S45r4OovlbrinAauuaTERWfUb/lX6o/0XXIOOasUYJMXAQJM4oJT6pN5Ur3n56jX/JPqw5yceUKJn2zSn2et0dX8Mq7MvQLc9SmFPDfQb40Iws9APmzcjOIfFR4Nyz4NxHl9tOm8Pj33X52+XqO1525pyJpzSlqU62CSF58BJNdB9Mo4oYR5x9Vj7jH1SD/qpPuco4rnXML840qeuVNjFm9VVaPXmU8wYNZgIM8HY+P/BUS4UCtRzh7c5ku3NGDJYQ3LOqVNud/LXDkY9DnNLcrNUw8WOXDVRael5EVnATqtXvNyADqhngAZSPc5RxSPdJ1zGDmi3nMOKm3KWl368Y67X4CHF8ZnDcYBPQdTBCgU/WTsS0990QCccPEWP5GG4+zzt9V30TENWZWjo9/d4ExQD6vvisCtXVcfY0456o8PpSw+i5mdUe+MXCXMRUPpEe0YSPzsw8ghxQHUhdc90w8redJ6bTl8gavYA3oK6DmIOoWCfMHs9Vmf73AuMgXRUFhNHGVdKlbfpaf11uqzWnn0G3fOoB8jc4/8By0cVdry885HnLmhGYNJMFNj8d2BMIlH4mYdVOfZBzk+oN4T1unTvee4CmHYh3EDYg/S8hThwp3/tWHQnQLYaTjIcm010dH+NGyy89FDyF10e8ThivOFSliYowFrL+vNFYe16Ni3OnClSAuP/lMDluL0C88pcfF59Vp4WgmZOeqJ/5hmDKgnED3QTHfENNR1JkCzvlC32fuUMCFbG/aft7vJ29bG2syPIkAG54atJ3rYcUTCtr1pi444iRtBy0MhLhAlCWGS7q1wUC0UB40cZl0oYsEn9OZfvlVa1nmOj+IrhzGtw0Q5wveyi0pZeoFwToAgMCRknAToGGZ1BJiD6g5A/EwgkDjk1en7FQdQ9/Frlb3vK7ubAj5uZrmJ+zq3iD7c9vmp8XMesnUj9jBiw4DCYS7oSM3lEdOQl8DAq+ycH5VAqO2/4KD6ziV5ztuvxDl7lZS+T72m7eA9ZOoOdZ+yVd0+2a4EtNLTzA2g7phYDCiOXNQVmJen7lXnmXsUP2GtsvZFfMjXZjCRtcXkt8YvE6t7CoaPhNqIMq3yBlsUAAbDVABVtvFWIx+7cKNO609e1V++vKNPz97UutzrWnfmmrJyf1L2yR+1nqphw/Eryj5xRQsOX1G/+YfUE/NKcECYmmkHkK7T9qkzMC9P3aPXpu9S17GrtGbvGacAr6/N+U8QkqD7F4mwtkxc/xeQzoci/mIfs6eBFkLkmTYPCw+6iPUQsVLUpJaP1jBXMN9jtuOY1HaQquhs37FS8ga+PXj5KfVAK73nHVM8GoqfecDBdAHmtSm79Monu9R52i51+3i1sg7k8C2vfH6rHGJyJypcPczKzHCiMJGEz9IhRUP2AjGno/K1WsoMLe9RUGduVWvurrMau/64xm7I1ai1xzVy7TG9n31M7644pGFL9urdJfv0zuJ9Gr7wgEYsok5buFtDFuzU0Mxdejtju4ZlUL/NP6CeAMTPJBAAFTfTzMw0g1Y+2a1XJ2/XS5N3qDPHcWOylO2A6tRw/5ia7n+u5gebkc/UVLdZngeH5W/4XmrjkbHmEAEtyuW01cHkUC1hEg6dy3ugURtPa9CKHA1edUp/Wp6jN5ed1JtLc/TGUhLmkhNKW3hU/TMPqV/GF/jQAaXM2a+U2XuVPHuPkty8Vymz9pD996j3zH3qMeMAJrZPcdP2ALMHbewGZheyU69M2grQNoB2qMvIbK3df5L1VKql7nPWnSlvXQZzhnw185GFaruXpZZ7xxVqLaadoUo3fZiYhkxNFuUCXp/oavTFtYfqtyJXr6//RgPX/UMDs4hiqy8rbeVFpa24SI12wUnq0kjSTKZ260No7k2NluDqM8SKTyQB80ogH/W0QnT6XnUDIm7qLnWZslOdTUwraOfViVv0EtJlyjZ1NaC9pqFCBetXY7uTpPrxKGwCx8w1ozkeJV/1PDXXHsZD6tpbsJD5kPU3Xp85nPSv8ja9s+GS+q/9Wq9nX1DaKhYPSL8VF1zBmUoV3dcqamBiNVriAgpMisteGSx+HnlmHmF5LqaV/gWJEzNDc91m7XNa6Yp2umBWnSejmUk7AdmBbNcrE7bppQnb1QW4rqOylb3/BKspkL8+S+GaqQBMBgapAe4eYNWjFaydpsbKtWp5eAUScxI0hHSyOO+HxnLLhkvl6k/99foGtLIGoNWXlLqcegxJWXZByUu/Ird8pWTLLYtOKwmYpMzjVANHcfbDaINIlm4wOP3cg4oDqutsnH/WfnWegfNP26tXP9mjlyft0ssTdwKxw8mL4/GhiQQFQDuPWqcVe46zmgK11qxUqHoKQJMUrjYYk4kAjVWoZoLaKtLlqTkK0IMIDaMT9YU7+Fe19NYaNLP+e/VbeV4DVmNiqy47oFRMLMW0ssQ0YzBnlAxMCppJmn+MVuAIiTMClBADQuLmfKEusw4gBrSPsAzQ1N16cdJ2vThxm15AMy+iGQN6YTwaQ2udR69X9sFcVlQgT70BAVCLVkwzJpXjFa4ci4xWqHykPGUr6DTzLQQ4qE5hAoHBXSoKaiDF5MC1f9eAVTRoK85Ti31Fs3Yef7G+5jTFaK5S6GuSF550PUwyZpaImfVEupvMpaQBKB6txM82UyP7ExC6AtLFBQFMDD95aeLnTl4cv1kvjed4/BYH9gpai//4L9p19jIruiJvzQI0g99UjwMGqfoYIGAqxigMjMqHq614nkIN/45oCKhOQaKEBYODVx8qbdk5vQ5QGhqywrI/MP3QTOqSM0pdTH+zCK1QvyUvQDOZR5WIVnrjMwbUbe4RxZlYAJhtJc2BSHhGM10Asoj2ypQdeplo9uIEYEyAeRGYFyZs0R/HbVPc5N1KHLtW14puk4Zy1FaGdmoAqpqARoCpGs0MSMVHwLyPDFNb4RT56i5CQNrBfTr5+WHFZvb5fKIXrXLWN8zALAcEzaTi/KmLTyOngEErC4/jO0fxm4MEgC/oe8xf0Apg3QCLp9ex1qAbBWcc0nUGfjT9AMlzL0C7AcJ/MK1XkJcJCnb8v/jPK5OIgqPWa9Gnh8iFJUS21QpWsfjqMc7MTDOq+gig9wAZIZW9K5UOlq9wvFqr8KOwRQE/1TaTVQMz9nxHWD5HIPgaM/vSSSph2YCcqaGZpAXAZGJmmTRj8zGvDMyMoGDSw7rRdNqE2afUc8YJxU8Fzglam3JYr008gElRs03Y58QdIza/au99+Kkmrdylxy3UHS3n5amYKn/1BwpWfuBMLIRWQsCEMLNw2TvAvC0VD3FAjaW70Y7VJgF18mB3VsaM3kxUM1NzQJiaCdEslQDg/AYzSySaWUTrQxDohTb6zKdNILrFTflMKdM/Vypz2pQtGvDJVvWdsEn9JkYkFUmZsFHJEzcqkbkPs0n3sevUY/QaDZi0VttPXFBLKyVO4Cww6QrXEppr3leg4j38Bc1gYqHyd5FhACElQwEaLP/dj/WweCPfQ6umIavXynGoYatz0BBBYCWRDb9xGxzt2jkVCc8ZaAaxfNMnk9qM4jKNymDy2sM6+8NNXa+s1tWyCl2vqNT1snLdKCtrl+sm5eW6xvn/cnytvEL/Ka/SzaoK1bfYI6VOaz6kptKZ8lXh9DUfOu0Ey9FKGVoqA6zsbY6HKFSCAKO7f5KvaKTuF6+jCiriGl6CApMVk8OzT0ci2vJLSgEmZclZt9GRbDCWPAnPCcD0RCOJC3LUmwg2es1RXbxeSHCxx3Kb9uNf8vr/roCJ71vKwp8l0PY3N4fcazv+G9UJn2u7LF/zcbXUZKm1dKrCVeMUvjcS+UjBig8AGKFw6Z8xMfOZIWjmLTTzlsLAqGgAGnpPD4rX4HcFrMET8SGzvnGb/+q0koqGUpZS0iylEiCyJRGi+8y3SsAc/ojzo5S5ezQha5/K6iu40E9qqv1c3tpF8tybp6aKWWoxKTeZrZay2Wou47hsJjJNLaVT1FoWkZaSyWotmUguGYM2PuTJmsPjI05GKARIqORtIIZIJYMQIIrfQDMDgUlDkuUtGqr6u8sUClgl7rMoJzVwmL7/JyVSyiSTRG3T0KQPYboPAL3xGytpEvCZJCqAIRlbdLXInshNcsU6isd5CtTPVOj+XHoGpD46R4/DdfhE3SwEDVDGhOsmRsQSZvXHaIX6zMJx+QdELyIY2giXmJ8MAwKYYgN5MyqvA9QfSUX6yA/Q/aKVPNi7RLqoybldnHNFaCJHKRSgiYTpRMytN5GtFxGtV2akCkhekKs+UzZrzf6zfKNantqtOG4mC5/PAtMVQoI1cyhLZhN0ZkUF0JoZClZPJetPZh6v4L2PFTKpimR8VYwChtyCr6g0AqRSYMxPMC/dfQMTe11hTCxcCExhP6Qv0kNt+YN1v5CgQJHa0vQYk6M4NQ/Y+0MtUey4M7lkqmfb4eydmaMEwnRPfKcXGkqac1SDZ23SzSLUG/6aincO9krxWJuOGARiMDWAABGqRWqmAzINgCmATIzA4PTBSgQQl/HLMLdSEmUJMMXAFBsMJub8BI0UDVSooD9ukoqkKJyPdvIBK+qpxtuD9LjKaj8CXYDE6jIs43xJgP7+C4LCZSIaMBloZ94JKmdyjG1BkTAT6TRHLt6qh81lCj0+KG/VbEBmks0NzACmoqFpThwEYpoJ3vsEiEkkynGAEI4xrwB5JVD+YSSClRLBDKZkOCDkl7uYmcGgGYMRWgkBEcrvC1iywnlo5zZABQlquPMOTd8lx2BbOZ08zY+chn7EkQYsp7dZdA7To7eZm0PlfJIW4CSZ3+aj6kUZ80HmBj1syVO4aa/8lbOAAQhNhZmD+IifMj9YM4UaDM2ZmVVxXEnFXDmRHEKCxLSC+Eqw7H0FAQmV/BkYQMzMCAARGLRTBEzhABaNeaEZFfRFM8lA9aGdTkCS5buZoscF3Lv1lgPy03F3amq4r/uNja73X/91ibpRIfch//SYB0j6GWBOK252DhX0MQf00YL1avTdVqBpmwJVMSA0hakFa6cjOH3NZLI6Jb9JBfWYSTnlSxkmBoiF4lDpcGCQu+SW4qEKk/VDhWZiZmr4TWFEMyo08zIzS1K4IBGgXrzuzOsEPb42Qs2l1j60op2wvIGWSAtuuyrW9H1b1qQByzCzhWfVc+GX6jL3rLrMyVUXgOLT8afpBwHaqEbvTYC2UJoAQ6Ol6hnITECY0Y7oXcKVVuoDYlJBJMNHwkDIypYysrzLKYMBsbwCSIn5StThi8zpk5HeLL4H2ukZnbsyv8z5PxIcktSUR/RsvBlpHVyLSulj+0G289PmbXXR7rNvyvQqrbFt35r59Zh3itYAE5xHmz3tkEZlblSz55aCjVsUuDc9AoCP6J6BmZnRhLkKmWLyHnMFc4WFZauQ8ZMKS5JAWX5xzh8pYdqh0IbyE4HCtAoxrfzugCB53ZA4CopX8aF4Pbr5njxVB7Gz+6Qf2zO0vs6AbLhewuf2u2p479Oz1zV44R51m7RJCdPoUWibe0zdp4Tx2zQmPYvwyFNpIGRXAkDnGOkkaZGdjMdvRrliUhWULzi9l8TpJZF6SyfLVzxO3sKx8haMURviyR8tT95H8tx5X778EfLfGSr/zTfkv5UmH9J2qz/SV56bSWq9nqamq2+o8fo4CtJ9UlspDK2Il/XbPriLctERtt+toinUZxr8R0GdNub8oMwdFzRnG7Lza6VvuaCNe45QqhjQdsIumrHmq8o0EukmRd8SqsRXnEaG85nhPMmp8t3/VMEHWxWoXa9AzVr5Ed+9bOq2bHkrs+SrXIWskK9iORHQZKX8ZavlKVlOJbGQzy6R994Gecp30XH/Fc3QYtuGm+0lun1vE9s5Ne0wDMLtcIX8wFrLFxmtfOcxn33IW/eZH7eaYVIVN2xDC5iby/KYlYmZVzlNGOE4aP5ilXHFUKoJNBnCPPQlYhsgtqsTnUNIOPYa8Z3GHa5wrpwnT1EWZOFhNKFixPbi0AhrcduI5jYOIArBHAFC3FYvYntbRhds8yGo0X0rslnvtGe7lgCFHmySv9Q0Y5meJswEGJWhGcv2aMcc36SVArK1YgaN2DzqvDk85XSe+iwsZqraSiahhSlqujtZjcUzVVe4Qo+qL+IBzbGH7u4ftg17W6j9tH0r2wt2L2IwkUNa8OjfB/CK8PDzB2w2OAsaQNnmvbGFzGYBCjggzA3zEvnFARGWI1k/5vg4/d3BChW9LX/hu/IUDJWvwMLzUAUoWQL5byiUl6bgnVT5SZZteW/qwQ3AKk5y/1bW5Z6t4diPyHBgUZinhsG7ve0YUGSf+xnDwVlgt+sZ0F0FGzbLV2IgALgNC6TUYKiYLdtb9AJGheSVAopKShcXigssFCeRT94gELytpuuDSJCpCt/uotCdrmq6/YFa7mF6oebIjqi7K6MdyA7azz4x7K0OW8G/Mtz3oxdxWjcgep+G9QBFQzHJ0sSVL1aLtWd7QnGhwRCOC9KiNVhfBfIGqbmAJPxgP3acKzVuUtvtIUQzkmX+B2qrN5/C5PjZrgt70XF+xmj/7UNMfnXYeyYG5Aqlmwo1EKEMwLXE1udb5n+H3GKaAcTVYQZi5Qu9i2kI81LeAHlvjqRsOsRqH3At29yg2K1fKe/tVD3Oe1fN1Yc51+QsPvbb0ucBcr8fem4gu7r7iJkeLXPDbvlLKPfL/0QZM9RJkArZdZKubGHxlvWtDkMr4TxmCsrwjRS13hhD6P6GrpUe0+1zkhw9O2gF0vTw5nCATnE/fAibi/n+7wHZ+tt/4fWbMDY6XMz9wZJpqeUyQBbZWHipNV6DqMtiQBETkzMxMj+FZPgOheUt6rHbveSh5PeWfcazITQH6Xr1NUwT1ULRWX9znHwNP3CeYGXqiY3fAbJhHL/qQ09A2nH7S27ifv9aSO1G8qNjjDRhALhO8ueCUnlWGVNMWnV8h3rsjpUwr+FD8Wq+NUhtxbQdDVlU32PVmtdfjwgSjRVbsbN79DZWkkWA3O3t0Nbg1hWTJ4d9/ldN7snXdrXYFe2I2Tb2QlfpUreotXAC2qGbvGs1WBLaYbYyP5+IlgdIHiB3qMOAUd4LBIf/oa/5A2B/IBB0xgST9OjGaDWV7yGYluA3rZH4Y/9YpIvATwD9vJaOwwHZ37896+/jfh0oekErBsPYfriAgHRMHuo0TxG1WCGBIZ9A4IpMg0NDBfEcW6VM2Z/XRT4APQA341+NBe+rpWSxAvVn8KO7XLtJ/pDHJXp3J9bh3PcJoJg8OWzNT5hcR6hnA8WE5+fSOL4UtChVyekfWdAluta98t2dT5KcoJY7o8grw9VEwdmcN5hyf4ga80bo/p1JqitYpqbaPWp7fBETo0EL1iBNLJNI4e5hI7KGXwLFXjw5fgHUcTwPUKR6oJcyl4qN4MPIAn3fU/hdVKDhlPwNx5Cj8j86rmDLed67xufsV8ohFzP9tmBXAdiryMWcqTlfteOI/D7Q80a5J2CiF3MXt+9yxsS9xaJCaC1sfyBjmovN9uuA2O/TbbY/G7TFG4R5pM12EXtQdqHIdZ8Y9toJP9ybT3/ATv+Ghn452q/oXrkpymaj/R6IwVnEtT0/Hw/Zy9q9zD7W6+N9e+6Rr9lPu0g0okUXGzv7xLCTMbHR8XX7uf8X0DOGU80zhP8dhz25mBWE0EbkDyiCfJQZU7M/rogN+5SJnWm/TOxkxxE7Z2L3tBEO6/8ApoSw01X1I60AAAAASUVORK5CYII=;" parent="1" vertex="1">
                    <mxGeometry x="366.33000000000004" y="270" width="52" height="54" as="geometry"/>
                </mxCell>
                <mxCell id="0MlqO0iR2Z8GzJs1VqW2-41" value="Ingest" style="text;html=1;strokeColor=none;fillColor=none;align=center;verticalAlign=middle;whiteSpace=wrap;rounded=0;" parent="1" vertex="1">
                    <mxGeometry x="362.33000000000004" y="239" width="60" height="30" as="geometry"/>
                </mxCell>
                <mxCell id="0MlqO0iR2Z8GzJs1VqW2-42" value="Processing" style="text;html=1;strokeColor=none;fillColor=none;align=center;verticalAlign=middle;whiteSpace=wrap;rounded=0;" parent="1" vertex="1">
                    <mxGeometry x="567.33" y="183" width="60" height="30" as="geometry"/>
                </mxCell>
                <mxCell id="0MlqO0iR2Z8GzJs1VqW2-43" value="Storage" style="text;html=1;strokeColor=none;fillColor=none;align=center;verticalAlign=middle;whiteSpace=wrap;rounded=0;" parent="1" vertex="1">
                    <mxGeometry x="564.33" y="301" width="60" height="30" as="geometry"/>
                </mxCell>
                <mxCell id="0MlqO0iR2Z8GzJs1VqW2-44" value="Orchestrator" style="text;html=1;strokeColor=none;fillColor=none;align=center;verticalAlign=middle;whiteSpace=wrap;rounded=0;" parent="1" vertex="1">
                    <mxGeometry x="562.33" y="460" width="60" height="30" as="geometry"/>
                </mxCell>
                <mxCell id="0MlqO0iR2Z8GzJs1VqW2-46" value="" style="shape=image;verticalLabelPosition=bottom;labelBackgroundColor=default;verticalAlign=top;aspect=fixed;imageAspect=0;image=data:image/png,iVBORw0KGgoAAAANSUhEUgAAAOgAAABSCAYAAABe+JhrAAAABGdBTUEAALGPC/xhBQAAAAlwSFlzAAAOwQAADsEBuJFr7QAAYv9JREFUeF7tvQWgFtX2/v+e5NASwlVRUFE6Rey6er12F7aCNAgKGKBId3d3d0tId9eh+9BwuvP5P8+e2Yf3HA5h8P3/rrJgnZl3Zs/Mnj37M2utvffMeJAMZNAkZ5qWhXqvv6oqjXe6TL8v218W665XU1OAlJS036E2farRVFfT3KnWJaemISlNmsJlaU7+4qipVEoKf3OVm+c05sPZPl25DFqv9HZ6JdV6q9zshqn3sTLn4a9Su++sjv931xskLqA8gqlULF1vTZVquasm7fWq3R+vWpKryVRDiLt/e1xvtce6Tk1j/rJWN/uXaZqrBFIAkvA0UZ7KTJv5VCSwxKNY02I4l8haF85Vp3lKi45FYtPBM5zjoWP5J5Fq4ExOV+3DOT/mj5MslUkyTK1ykxum3sfJfNw/q/+X5/H/qt4gIaDcOytZOjTeANlabWBgaoFnLd61VPtVZU3jj1SqzE4Ka7R+p5s+7jsrMAnQn1cehpOMSnCNEirC6Sjzkq4ElicqKON5smkENC45Cad4OsupH81YglGrt3GOpxjJPwlUU3ZJ3NRRc16m3HRArv8nKE83y+X/JL1BQkBVwVShqJf8Nior2yXanHWmlvOnLsi1lBCkcjtpMmtyMqt8Gqt+qmN2nP3Jour4VjPfGExlv5radMxUJpUFvUwzwEkAjeqGwTylOjcP5dZAy90LwFBO5lDfi07E00vXYdSOg/zF7EbxjwGUx+ONJ43bp+kGZCwxD6Z88P9N/YfoDRJPOhS0FEiTcxfHKhrNuhdBpMKNJiCSWEVxeQzrbSw17hp6KU0q95DE3/GpUYhJCKeBZjBnrCoJSAfUnXcCRGedt1oLl3m5UReGTHoZnNIMgNLi6eZj4IzncaWETMfhf1nIGBbQbOrDiREozLMpvnk7Bge7gMby2ObexX0ZQFl2NwH95+oNElpQVXJ7BAEVw+PFcBrOaRiXhVPlz0VTZTbUWiLTkZWykqfPs6KyUmc8Ax2LYLASxyfGIyYuzmhsYiISCZtiQqeCU8389Sj3nYVaKMWKA6fUAir3VYDKagoq5lc3jkROY7jPCOAc0y9mjv974RTyJp5HXs7fvnojBm3fbc4kIT6OWWQ+5drKeqYDqjzdBPQfpzdIPKYiRcUg9OgxJJwNQfSxYMQf34rEkLVIOrmaugbJIeuQfGI9Uo6vR9rxTdTN19CtSDu2A6lHg5F2ZD9SD1EP0/KcPAFcPM/arRaWTJJMS5sQhaQkWuqUWNZxr8qe7vZaKL3VhSGTWkAzqAFUcWaScbXVHKRoU1beWNEEAhfG7XnopczS29FxuCP6HHJxQR7+LrpqM4Zu32WyG5cYbfJorKexoM7UNjaZA+rKOXcGM3tT/8Z6g8SjP3EnzqDhWx+g7lP/RvPHq6J5mSJoXjwPvrs3F5rdkxtN781DzYUmxXPi2+I5OJ8T399DvTsHvrsnB5rcmwON78uBRkZzUnOhcfFb8O09hdCk2B1oclcRNCtWFC3LlMLAV17ArEZ1ETJ1NE7Om4ST86cgacMymqzjrNiy0ISU1jo5hQ6mqew8+/TGI1Z6U/kzA5qVZgEp/8h6CtAUwplEbyCB3kKicWZpPXk4wbmZk1fPRyJfZLSxnLm5bUGuK7piM4bs2MEl9CeSI5iccbUsp7GgmQGl8kheB6dy0U39e+oNEg+SWKFYN2O37kePN6uh6W23Yuj9/8KQIjnQo1Agut4aiC6FA9DxNh+0u8ODtkU86Mhp93950LMQp4U96Hy7B+25vB217Z3OtCOXdS0UgB4FcqB73iB0zRWIjjn90Ym/O9yWGz8WCEAzrv/2Vj/0qXQPVtf5FOt6tMKqOaNw4aLivDh6nDHMHi0dgZP1M+Bdt+vLtF4W1agBhedr4k81XClOluseyd3GmTm11lY7cwKFz5xFHnKbm+5u7qhU5OfmhVdvRp9gB9AoAyjdXAPoJUhNi7U5BvMgQK3ehPTvrTdInEaiKBKq2rnjAMb95z/oUiA7RhbJg0GFsmNAAX9OfTGIIPajDiB4owngNEI6lzqPQM4r5sHsuz2YdY8HM6mazuGyeXcFYkGR7FhYJCcW35UbC4vmwQz+Hn9nNgy/MwAD7wpAvyJ+6EXQf8xBvb8AalS8E41ffxKLR/dH7LkTrO9xiI+PoUWlW0rrZOI+Vf4rgupasKwANcu0Xo1ULkxKyzK4wNOfR32fVrxw5El44uKRjQY9P8Pw/IQ0HzcvsHYzuu1zAI10LWiqtwXlvIlpTcswj2NicG+1kEr586b+ffQGCQFlRYpjxToVClxgjTx5GtM+eh8/3pYXXYvfil735EHvu/zQ/y4PgfJgeFEPZpTwYFkZP6wtHYiNpYOwpXR2bJaWyY5NRnNgY5lc2FAmL9aVzYcNFQpic+XC2FLlDiwqnR8ji/qjB+Fud5sHbQh9G07bFgtCu5IF0JiWuyGP+27R/Bjyc1NEhBw2GU0kpClJzGe6sFQygJlZBePlkFo315x3IpfFcZaTDdzjF0Tu3oRQ5OOxAmJTkYPFkS9cgKagAHdV0AvQqORIbpfAQwh0Ry9ZUFe5v0vKPN20pH9fvUHiSZFFURdLPCv/BZqL8FjCeh6/NqiPFvfdjvb35kUPAtqXEA2lTiJYywjotjLZsLNUNgQTzD3U4NI5sNtLdxHSHWVzYnvZXNheLhe2UXdUyIe15fNj8n1B6FPUB+1pjVvTehqlC/3Lv/zRmoC2vjs/mhUvjI+LFkbzV1/Gjl9/RUJCnOm8UdOO/mUNpbcqjZSlJ3UHQKifU3sxrdeEkymgdtmvw5JQlOefOz4ROWJTEEj3Nju9ijyRBDQyFQWYvMCaTRkATXYBvdRIxDK8GqAGTinzoot6U/8+eoPEk8KKk0KLksgKlkRYkyJZyS5Sz4RieuM6aFbqNnS6Ly963+6L4fno1jL23Fk2N/aXyoV992fHvlLSIOyl7pHSokqDS2fD7jKBjpYNwK6y/thdLghbK+bBr+VyYnQJxqd0lTsRzo5SWtJOhXzQqSC1kD/aFs6OXmXvR8eSpVH9vhJYOnMKoQjHxYiTiI0LNTA4I3dY+aVmmJ1VCybPkFxcmmrYBLdTqy0ZjeKyYC5uxvV3nQxHdt6bAqnZCWV2Wk8Bmovz+SJSTSNRgdUb0X2v20iUEmVAT6NLa/pUzZQ7tXDeBPSfpTdIPBrapq6HRFaoOKpC0rQo1V6akNBTmP9TY3xz363ocvctGFsoAAsYj+4ocyuCS96C3SVzEcCctJbZHS0bRHiDOM3maiB/U8sFUP2pgdheKRdWVsqJGaUDMJjWuPetHvSgdqV2oXaiduQxOhUOIqx5MPjue9C+ZHHUerA4Zg9sDcQcZ7YjEJsUwZyrPZYWUbAmM8+E1BkTyxITkFTNChVZXt5+CCnNpgYX8PT2cnkrasmIUOTnOecUkHQictOtFaRBhNQAGp6Mgtx9gZUb0gGNcQFVDpw+VXXduPMGziwA1Z3iJqB/T71B4mFtZr1hJacV1ZifeFYkU9XiWTtjGJfGhmJR15ZoV6UkRhQpiF+L5MPCuwgZY8YdZW+hC5sbO2gRd5bLTiWgRun+EkYDZvkA7Cjvb3QndXvFbNhYOQhLy/phZnEPRhPSfgU86FPQg17UblTB2u1Wf3QvmA3dC+RAH7q9vUvnRssSOTC+9luIOrIZUUnncD4pFBrzFJ8Sh+Rkupt01VOSk40RTQ8zyYMzfEK+AilL4gJCd5LrunN5qbCzyBYVhqCIeATSUmaLSEM2urTZotIcQLksX2gSCnAn+ZatRffg7abgYlKiWUoOoN4qJzojmFZdQKX/LwDqZiXLdTf19+sNEo+N2fRERxLv/II0hhqryqd+PVZ8JEVhSec2+DF/PkwucQ/G3VMQU+7MhhWl82JDubzYXC4HtpYnsEazGd1ZIZAxZwC2V/BztKIvp77YyenOij7YWMaD1aU9mF3Mg5GEchAh7ZefkFJ78HdPam+C2ocu9WAuW0ZXefkDt6A149afX62Ck8FLWc8v4ELkSSQlxTD0iyeUApQgkgd5vzJk1uuUa5CWxJKklTzBn92oJRIuwhNNjYmHb3gifCOS4BuZBL+oJAREJRPQFOSMSMYtdPkL0PXNv3QterqAxhlABaUz3jjFnUqzhjQLQOmGp9qRXO7v9At+o1VZUZakWa2/qb9Pb5C4FlSAspJRk2l6pLKopqbLdUymPxhNGIYPQruihdHpjlwYXyI/Jt7pi99K58RGArqFruw2xpo75MbScm6n5dxenmCW98W28j7YVsGH8x7CS63g6MZyfvitVADGMv4cRAj7U3tTBWdPwtnLBXQQf09mvLr0wYIY/UAB1Cnqj9avPIx9c8bQlJ1j3mjpo0leIh3eJDqyyrqg5L3FjEHgKo1S1HBbPZnSl1o1/jxyx5xFUHgkfMMS4AlPgoeA+ghQagAhzRaZjJxcnvdCAvJzP7csWY0eu52nWbwBFZxWrwmot4srICWamtFS7vL/C80sWaW5qdevN0g86ZXGtaRG7aB1ahorlhkKF6+ewhiEzZ3ImLQQWhb2x8j782D6fUFYUzIbtpak+0o4d5QnoEYDCKasJwGt6HGUUG534dzB35sq+mFFheyYdCetJCEcQCvalypXV4DKgvYr5FjQqXSFV1TIh8UP3opR5fKhx9250ahwLizq2N45k2jmN45w8qaSwHOQJWVQ7Qwj1nBihp4hnIyiPpYciUJpscgREwPf0GjCSUAjEx2NSKAlTYQ/IQ0ksDkZf95iAV1MQHf9SUClLoipSSmICA1DCm8s+q2HvU0SXfAbpdo/5ezpc5g9YzaiwqPpeXCFXeed9qZev94gyQiooFTFtg9Xq6JzfTzd3Rj+i0w6j7S40zi+cBraPlQane4riDElGJMW8cXGe/2wqXQgtjAG3UIXdwsh3UJAt9BibiWQVgWpABWoG2hVV1QKwhxa0eG0lANlMamyoGo4kgXtS0CH8PdETn+7NwhrS+bA2vuDsOmeIEy/qwB+uKccpn5Ph/U4TWRsMmISouiex9FI8aYSSyV8iHIGIgyllokMQXaaVh8y4R9Gq0nXVlB6CKUn0pnK1fWnBtK9zUFA8whQWuECBLT3LsfFjb0GoJnVqf2OpjJOlixZuAjfNmqMLRs3md9JCfRWJLrggtgo53kp5NBoan7bSuGuy6De67NIZ/ZDOX/2App9+x22bXZuOCmJXJnV9vrtfRz7O3O6f7reIMkaUKsuoBq5msi/agWNjT7NdFG4MGsCOjxeHt3vyY+FxXJjGQFbcq8v1hDQjWWzYXMpP2wrTetZmlNa1x33ebCHerikB0cYex4o4UEw57fSNV5WLjsm3ONjYOxN1RBCASor2ofzGsU0jtP5RXywqWRO7CqVHbuLe7Cu/K3oVrI4Pi5cFIOq10KogSce4XEXaI1IVCwDxwuRppFIz3Q+d+Y4SibFIle0XNpkeEKpcm0JqU+Yo7787Usw/akGUGquC/G4hZa40OI16L/LbcVNjWapXD+g8kRsrU5OckDs0K4dvmvaFIP6D0C88mpF3UR0g81rWPQ4nhVWhFQ1crmL0l+tYoXLE+N559F6rtL6FKY36ay4s2EXwtHq51bYvcN5OsdsQ1V6m0aSksjtvY4hkM3+3GPcVFdvkDAGda+MgZQqN8sql+mfIHUqmG6/1ERaK1qhi1uXo9OzVdErpy+m5/PDtLv8Ma+4L1aW8MfmkgHYWoJxZ4lABN+bGwfvzotj9wXiOKE8XjYIZyvcipD78uBQcVrDUoGYQ5BH3OPEnD0IY/dCPpz6oJeGF97mwUgun003d0uJHNhfJhuCS3G+UgCmMf4dVCYPGnN9syfKYP+iqTwP5i+VFZ4W6QKzu4i5fT8iGvfFJKJwfBoCQwnoxRQCmgpPGKe0pL4XGXuGUjVP9SOofgTWLzQOQedjkCcCuG3xWgza7TzNEp2mpjTdujICaiG1oF4C1g0XXBO2d+8e1KtbB+vWrkHNr2rg3FnnVSqpivuZMioygiArkBZMobhw9jzhcLZVw9KFc/IJHImNjqF6Ae4CFR2pAJx742axUbFIjHPhpRzYe8BY0B1bnRvOqROnHCtKiY9V8K7tnJqn5eEXw407bMWchvaVuaL+U/UGSUZALaRWzRWQKgfuvK5MWhLSEnWxEnBy1ULMfuVFjLuzMMYWzYNxBGomQVpE2JbRYq7ldHvRHNhxV37O58fKindicaX7saBYMWwrfjcOctl2Qr20rAdTSvmg/20+hNMf3Qr7oVshX/Qo7Ivet/li8O0eTGesupnu7f4yAdjB9JvoPm8sx2Nwfv4DgWhzdwC+L38njs2ZaPJ8jn/HUV+k5pL7GkULeSEWAQTT70IafC6mEdRUTlP4m1aTU39aVYHqH8aprGpoPAIuxCBXeBruXLIew3c7FieKgMqryApQqYU0syapZZwyavQIfPNNI8THx6LlLz9h0qQJZnmKRiJRpk2bgmHDhmDJokVo26o1Gn/9NVq1bIkd27YhOdHZx4Wz5zBi6DB0bNferOvSqTP2Be81gCbFOzAfOXQUfXv1xc8tWuLr+l9j6KBhXJeEg/sOotZXtRmHzsHIYSONNf2p+c/YtN5xtyUCev+e/Rg8YDB6dO2B9m07YOqkqbw5XMxYNW7qDRPHxbVqIbXqvS6rXCTrrk0H8uBurPjoXYKV0zToDKFrOriIB8OokwjWnKL8TQvX5I6CGFqjAX7tOATzvumAYY8+j5FFCmFZqdxYW8HXxKIDbwtwnqC51R9dChFSgtrjdl8zSH8ywV9PK7y/rPpXCT7h3EOLHMwbwXq6ytPK5UWPu/XoWyHMHdAHi1nXHzUxJkHkfBBvKAVpoQSo/3kYSB0VsISUsPqFckpI/WlZZU09BtBYM+Tv7t82YuQujT1S25NeKXZlQDOq+kflhyQjKjaSECajZcufMHHieLOvcePGoHHjrxETE4XoaLVqpWHsuNF4/fVX0aNbN6xbsxZnTp7ChLHj0KBefezasdNsd2j/AcybMxfHjhzF4YOH0Ld3H3z52RfpFnTzxi2oVaMWIR5BIA9h84Yt3MYZ23zsyHHUZFgwoO8AzJk5h+s2GxBr1aiNIwePmjTHmaZ+nfqYPmU6bwYXsHPbLjRu2Jj7G2nWp6rbyop3Zf0n6g2SSxb0SpoOK3ORZUbUDRMOnD+KGV+8j+9ze9D2tkC0L5YdreiqdiNUbYv74d178qFuw58waPl5DFqViIkrozF53HoM/fpndH2gEobemx/DaYH7FclFOAPQqaCf0S60ol1oVTUWeAJ19T1+BNQfuyr6IriCH46X8MOZe3xxoLi6cXJg2f1+6M4bxOd35sbrPzVD8UNHjAvriUtBYHwE8kRF0sVNgz89REHqf57z5wWo4LRKS0pApYpJA8PiDaClVu3ApAOHzFlH/S5AHRc3SU+7UHbv2YU6dWrh2LEj5vcuxrXVa3xBtzc43YKOGTvKuL4njh0zv60M7NcfbVpp/JPiTWd/VvYG78GHH3yI7a7b2pJWs3eP3mY+s5w7cx61v6qT3kgkiY6IwcfVPsayJXroDujaqRt6de9l5q2sXrEGXTurF5nVwb0RGPGurP9EvUFCQLn3LC2mqxkAzZwT/WblS4tASmwI0g5uwIKGn+DH23OgPa1gz3wBaF8wCNXvvQ1Nvv0BA5YdRcdlcei+EuiwOAa9F57EuNlbMaXnBAx543N0uvNO9C8ciP4ErEchWlK6ul0JaFe6zX3UUEQrvKqYL/aV8cfuij7YVckHR0v74vR9vjha0hd7CO4Wxqa/lvdFu/t98Npj9+Dhgd2Rb+d+eE5GwXM2HtmoAfTQ/AiotwX1lXrBGUCrGxBB9zcqmRY4Dv7Rqbh96XqM3O1YUNq6dBdXUXpmIC/ppXWJKQnGgs6dNwefffYJBg0agJkzp6N375746KNqWLToV7dMgaFDB6NRo4Y4e4axaYoaanQNgOlTp+LH738w87HR0Vi4YAGBbY1ePXoaF/ezjz8lRKvNblr88BOtrus6J6YiIZY5ViMS5dzpc6hXux526Q0R7mU9ffIMPv/kc6xfs9787kCXtnHDbwykg/oPxpCBQ9C6ZWs0/aapUzVuAnpJb5AQUP41yj9ZQWrhlF4GqJU0xCayIiVTj27BtC/fwC9FbkGHwnegWZEyaPLWVxg6Zwf6rQhH1wXRGL4O6LcW6LEyDP1+O47Ji49j+ZRtmNesI7rfX5Qw+qL/HUGMPwnov/zQmWDqmdGx1BV3EdDSAQimBd1RiZazHK1oaT8cIbR7Nd63AtPQ/Z3+oD+6P1IA/37wXlRu3QpFF65GvqMxyEswA6g+hNSXcDqaamJRTxghpfqF0wWOIrjRjFPVFxqWgNvjgLzjZqHPilXmjCNTIwygTjOabUqzevm/ZFrGNE6jYiLRpm0rDBzUH/MI6vgJYzFv/hy0aPEjvm3S2MSkGhut+LNBg/oIOa6xxxS37CdNmIBmTQgIZd3qNfjis8+xcf0GRIZHYNOGjWhQt74DGC/bLz/9gnGjFYVTuLlagE3jDucVRzao24AxreMuSwTtpx99ijUr15jf7dq0Z3zb0VjZjes2YuumbWbfK5etdEDPXB30+5+qN0i8ALXKP96wWguaDuqVJA1JtKSIPQuc2YcFXTvi/bIvos477dFrxC70WRqLTguiMJDe02DW8d5rU9F1XTw6rY1Fx+Wx6Db3PKYvPIFxrXqhVdni6HZnTvS6nW4u3dsOjD8F6LiChO9OP+wrFYg9FfwJqB+nfjhU1tED5Xywh3GpYtP11FW0poPu8EGTskXx8Msv4PZR03Dn6QT4nVVsKUgvNRQJTk8klVZTgAbRpc0WnoZcTF9482kETFiFfD/1wfhVeiEK3cHUMNlEnrVTJppe7V+SHumj7D+wFw0a1sPZs3oV9iXZtGkD49CG2B3sADNy5HDUr1+X4IUjLtppjZV06tARrVr+YuZlMUeNcOJByZFDh9HkmybYQJgkTb9phk7tO5n5dHEvYej5UMazDU1caeXC2Yv4+MNPsGTRb+a3GpQ6d+hs5i8TWU/v6qD5f7LeIMkCUKsuoFbTAZVeSZxK6AxPZ7w0ZRca9djMuDMFfZclo8+yFPRcyilv0L3WpqH7umR0XZuMLmtS0GVlHNotOo1hc7dhTrde6FGxGPow5uxexIP2jGPVNzqegK4s4o/9erytfCB2VgxwAfXFYeqhsh4cLOPBAU73crqjlA+W3J8LY4rkQPW78qPwJ58gx68rEXg2kVDy5I0SULq2Bs5YagzdWkKai3FpvrOpKLgrArdN3Aq/70ehWL2OWLLlgDm32LRQ1lE3BrxakbiS7A5O6Na9K9q2bc25VCQmxSMlJYnwJpj5RgS0X78+Jt3YsaPxyScf4df583H08BHjzs6fMxevv/oagnftNscUrD81b44TR48hPiYWE8aNR/XPv0wHbMbUmXjv7fcwa/osM3IoPibBgCm41O0iC7rLqx80IjQSX3z6JX6dt9As2kn3t07NOpgycQou0uIK4DN0g7Wv9L5QK7Zq/FP1BskVAOWfzIBmUCXKSpzlwlSdMHO3xqHvgnD0WRJPC5qM3kuT0Iuw9l6dhh5rUtFNYFI7r06mxqDT6nPovWQf5i9Yh0U/foeut/ugLwHteEcAet3qi/EFfAhoAPaXzE4ws9GCOoAepPU8XNaH6sFhgik9ROsZTNd3eem8mHF/QbShVS763zcQMHwGcpzXIAWevDQd0BQXUMagBLjIsWQU2x4F3zEb4dthJnK2moj7v+6KNcEaaq+RgxcdQNPLzEuzEL1XSdKtWxfj0jriLHM2SjVWs127NoiNjcbgwQPQpMk3Jubs3LET3c22aP3LL5g/dx7jSedGeOzIEbRv246x5o+0lB0wa8ZMdO3UxbigEgGnGPSbr7/Fd02+w/dNv0e3zt0QFR5lQFXXyqkTp83gBrm/4RcjGN82T3eRkxOSsX3LdmOFf/rxZxN7tmvdLt1tNq243uf9T9YbJH8BoN7zzth09T8u2ROHPvOOY+iqBPT5TUrLSUh7LU9Gz5Up6L4qBV1X080lqAK00+pYdF4bji7rI9F+wVEsnrsBE6u9iVb5Peh65y3oXSCAgPoR0MDLAWUceoiAHiGYUgvp3jIBWFU2P2bcVwBtKtyPu15+C/lmLEX2Cxqk4AIa6gIalgIfurm5uazY8VTcNe8YCvVcA0/j8fB8NxaeZoNRuXl/HL6oPkh9syWUJUFPQadvi8RbsxC9buXixfOIioogsI5FtYk1gCGa8emRo4eMRVUM2rZtG7Pu/JmzBGWrGbcriYqIMG5vWkqKGaSwe8dOnAoJMbs6deIkIsPUVUM/hhZTIuungQn7gvfh7KmzJn5MiE1I705JTkwxMGq5Go3UpZLE33HReh8Mz5Zp93N7wXo65LSzXNnO6rz/qXqD5CqASnkFvNWslHhPLwUjqg4hTLbmPOMX/umz+CL6LyWoBLT3b0nGgvZcloQeK5LRbSVd21V0cWVFZUFXJaEz3dz2K+PRYXk0Ri04iHXDxqFD6WLoXDjIPIo2vqAsqAPovvLZsKuCA+j+cnRvGX8eJZTHaDnl6gZrzG+5IKwvUwArSt6KBvfnRdEWdVHk+FH4nosnkDz5MMKpPtJwAnsmETmDI1DiUBoCJ26Dp9Fo+NYfD99GE+HfYhI8DXvhyU5jcFGnmxpLL4GQWQtqi8bqFSXzyksbOSO1Lq0fMLAf2rZrbcbt2u4UWU4zr2QpqY4l9dqleXTNFWPdmC87OiiDKL9Sih0OKEAziNZzU7X+2rQZxO7Dyb6j3r+zWv931hskV4lB+SeDclmWoqvgrOZ9FTvo247bnYKBm+LRe0Us+i5NQK/fEqkElHFoT6ksKLUrrWg3WVFZ05VJ1AR04rTD8nh0W3iOsdA2jKlZG83z+2IQY9BJikHvootbKgfjzCDsKxdoWnH3l/ehMvYs547zJaBbK3ugx912lRWghfDFM/ei2OIhyBZ3Hp5zsU78KUDDHS10AbhjNdf1XgpPy2nw+WE6cjebiaDvpiPbL1Phqd8Vj7QeiHOmFVSfVormOfPHlSpilkIY3LcTXtrIDqNMNcvj3Zd6Dx02GK1+aWnG6MbHxhlLqRFEgjDNS1OSHIDNOj1qF59oLKJprdVuqcY6UjVNHxSv5ZpXNjgxMSWnSmfG+2qZq4LdWtgMY3G91Z6zptzGPbXLVWLnlcamk9htvdf9r+gNkqsAmoW6E1t+mioaEphyqtQuOfsw0GNVLHquS6alJJhLpXRtpWokovZYQV3JGJTafRWn1K60pl1oRTtS23O+9bJEDFlyAVNHLkHjksXRObcHs24noMX8sK90Tsad2XGoTCCOlVYDkQe7K3mwjVDuLu+LvWrJfYCgEtqdZW7BiMcq4aMereDZvZYwhsJzIZEWMwWBp1NxCzOde18M8q48hcBBa+HfaTGyd16C3G0WInfzufD9bhqytyKgdTqjWv8p5mNK9q30phR+T2UycmlBivkejvubHooemrcD6TU2d++ePQQwyYBowNTjf26faJYqYBMdCAWVIE11YXKg1XG4c+X5z6j3PixQFDU8OcfmzUaQu8uNaBupxIVe+ZEqj04XEBPcBDSDeNIL+hqFonqkJCo/e3PWVI1B9Gih8TXzj6dhwNpo9KIl7E3Iei5PIpSynCl0b1MJqQvo8lRCmkYrSkANqGl0c1PRcS3BJNg/r0tD69VAz/lhmDjrMNq//Qna5/Vgyd0erL0/G2PLnNhfNgcBzYbjBPQIAd1FOLdUEaABOEo3N4TLLtCariqfDy2++hLPLFsFz7EwJ+Y8m4zshPNfx9KQ47cT8BtHl1aWs/tieHosgV+XxcjZbiHytFwA3x9mINtPE3Hb90MwbPtJ6DEBDZJXn6Ypm2uUW5bqioATeMl0VQWirKHGQCfG6zMYBDVV7ieBo8rVdSAVjFmDqvV6xlRW0I7FNeJ1zD+U3yuprRCcGsvMqbWyau3dy5hXY341nvcMY1/zpIy36KdU+7Ki/WU+zv+C3iDJCKgtrCxUgKrsZDGtqjMlgqrRnfMYfA7dHIF+a2Pp2sq9peUkoIo5ZTmtOoByukKQWlAJ6Ko0dFiTjFbrUtBiPfDLWqDromhMWHoRk37piv53+WHlfR5sJJh7y+YioLKi2QinDw7SUu6hBd3LuPMEAT5/rx/OluQyWtEO/y6Hf3fuhVKHLyAb3dq854BbDici+wa6s1N2wdN/Nfx6roBP92UEdAk83RbBp8siZCegOX6eh4Dms+D5qi8e+GU8glnn9ey37Kcpl2uUWZbK9OZ5UIKoGHLOrNmYOnkKxo4azelkDB86zPRnKsaMCAtPh1fuq3FrM0HprQbwlDTExcRj4fyFmDtrrhlnO2zIcNM4JDEgZZWvP6iy0iZOpcRFx2PJwiVo26otvm30rRm3q64cTevXaYBfmSebbu6seZg0fhJmTpuFyRMmm+VGbgKaQa4bUD07bAGVE6b7s37Lei48CgxcLzgjaT0d7b0ihoAmGEBN3Ent5U4toFYFqayo3Nz2a1INnNJOS+MwZNl5LBgwAuNoCdfcTytZMRf2lMuNA2VyMdbMZuLOAwRTkB6jxTx/TyBOF8+JXeWCMPC/9+LZFk1QZOVeFD4B5DwYh1u3EdRZ++AZvA6edvORo+caZOtE69nuV3g6LYKHcPrQgga1X4SglvMR0Gw6CtYbger9VpqbURQLQvbTlIsK4CpllqVa4R1v9YqVZlRQra9q4r133sVnn3yKl198CdOnTjNJBGZCXLwB2rGiAlSuqjvNDKgajZif2Kg4MyTvg/eqoWaNWnj/nfex0x0xlMGy/hlxz0eus7pp1LLbo2tP029ar059fPj+h2ZU0heffoEvP69uhhCOH+MMO9QzqBrErzQ1q9fEV19+ZVqKjfze8vx/RW+Q/C5AdWmdTgYHVMk+WqVRayLRc2kE+qyKJmwX0XPlBXRfHobuS6PR/bd4aiI1Cd2XaJqIbkuT0G15MrpSu9HKdl+heDUZvZfT6hLYTquANgKU8WjPpaewhnfZWY8Vwap7PdhaKRdjzNw4WDo3XdwgHCagR6khZTw4SUBPU7dU8cfI/9yHRr80xmPL1iLPqjN0ZeneTtkDz7DV8PSitez6G63lcvhRPV0433khlxHQrgS14zz4tJoLn5/nI9t3C1Cs9iRM2eDwGKPGFk5N6HiNMrtMTXrNOKL+zYb1WJk/+ACffPgRvvzsc3zMqaC1XSpxMXohmuJKxwV23Fhvd/dyQKMjos1AeQGgp1EESvBOZwyx3N+/RNzzSU5QqcAMjnj7zXfQ+OtvUKdWXQL5hblBSA2IBHLcaOfpnT279hqQv/zsSzMe+CtCmhjnxN43LWhGuX4XlxNBqQYhxZ2hTLv9GDB7YwqG0vr1YHzZdWkCrV4kutKCdl+VgB5c3msl0PsKqnX0LtGNVrU7LW3fxfHot5AA/wZaUlbgtSnosjQEmxcsxtyn78bq4moIyoM9ZQkoLehBxqCHXECP0IJuZwy66ikPer5aENW+/RSPzqbLOpFADlhPVzaYQG6gG7uCEBLQzlwnSHvSevbSlPFnT1nQefC0mgxP8wnw+3kmsjWYgud/XIJw1mu9dCKOFVLloKLKXEZXVbd8BZlaZMMJ4C8/t2RFrcUKXZuW5jN88tHHtKKf4N233sayJSwEbpcQG+fC6QVohnj0ckA1EEGAynIKgA8/+IhQ7GEGZEHtrfVPins+Aurk8ZNm3K6spKCTVRSA39DN/aHZD+Y50+851Ygmiax57a9q49OPPzNP1NT4ooYDusrpJqAZ5PoANcvVqaB3E+kTv8BB/pm5MREjaAGHMWbsS4vXi9pjHS0fwftlYRpazQdazgZaTAeaU1tMT0NLalvOd54JdOf16jkPGLCMLvJyWmLqOG47kNBqH11XJ6L30rPYOnMJljx1P1bf4UEw3dqTZQNwqgTdWeoFquLNXZWzYdKz96D1Ww/g7dpvodAPzQngWHh6z4fn5xkEcg11LZUWszNhlMVUo1AfgtqXYPZaCN9uCxHQejZ8WkyEp9kg5PhuAO6s1xt9F57EmSjCybodx7JQFTf1KKuyuorq9SUCSSI3tmb1Gsa9rf7FFwbQ6p9/gc85lRXt2L49XdVo08ViAPW2oFkCqhZcB1ANTPiZUDguZC0zvlbPgkpMDPpXCI9jWogpeshbUOpZ0up0Z+W+CsyTJ06ZtzPE0v09FXLa3DgkGnxfl1ZWlt0Cmh4b3wQ0g1wbUC4zfWEpiUhM450/LckMRpi0KRaDl6dhxCZgELXNr0Dd0ZH4clgo3ukVgud+2YNnmwfjyW+346F6G1C1zno8WGcdHqu3Hs/V24TX6m3Fe1/vwkdND6Feh0jU6xKJb3tFoM24ZPQhoAN3AP3WxGPKujgk76W7178jjj5xD45UvgMnyt5iull2V8yOTQ/kw/Kqd2Lks4+g3gdf4Km6rXDH9wMR0JaQdSGYPQioXNfOtJSdaCkVZ3ZSvEntIkj5u8ci+HWah2ytZiKAdxNPs9HI/mM/PNxpACYFHzVdSOqdlGsvD0JTOYoqrsvK62rKDeJjtAfezLr3wDtvvUULVwcv/vcFjB09hlamGa3eu/jg3ffwdYOGZsxtImNQ01B0TUDVtcFc8Th6E4Ks1N7de7F21VqsWr7KPP+Z4fr+WVG9cAHV0y8OoLXw2cefm0YhWWytV2yqGFUAKs5UXdI6WdDPvCzoTUCzlqsD6v7mtUcCzUUk54NDkzF9WzT6EyJZxM/6nMNr7Q/jyWbbUKbmShT7bBmKf7UBlRvvQ9VGB/AI9dFGB109gMca7sNT9fbgqZrb8Xj1DXik5lpUqbMaVb5ZgQpN5qHkdxNRuesUvDRyPmqOmosVh2ORLJ/6xElg7hyMfOp5DH3yOfR+8SW0eOM11Kr2CT78pD7+U7st7m06EoG/LICnw0rGkQSyI+c7EdD2dFvbc7495ztwXss6L4Bf518RyDSBbWZzu2nw/DSOsM5CwMA5eHLcHIzfs8+tL/IanJ5PC2q6FaWml9fVlGWoLhBBtnnDRmM51Sj0zdeN0OzbJnQTT+DnFj/hfcL5VfXqdP8+wYB+/Z0BCgmJptvlEpxZA2qUVtqMIpIog1a8r+0fFbu91JyPdgos+nUx8/2BeTrmpRdeRtdOXU2fqOC0z6BqqtZb5UnxcGYX94qA6hBW7TKJXaf0UjufVfqrqXf6693OpvHaxny/9jrF+dJ7Rr2SXA6o1GbEnLAWuHEndd5uxppzzqJa+6144YfteKbJNlSpuw5VaBmfaLYXDzXdj8rfHEAlwlilwQE8WH8/1+/DA3X3UvcQxmA8WHMvqtbag0rfbETJlgtwb69JKDpmGIpOHog7pvfBv2Z0QaUFffHyhG5Yn3QeF3lcPRW5lR7Sxz/3xRP1u6B8gx6465s+yPvdQGT/bghy/DAS2VuMQ9DPk5C91Qxkbz0LOVrPRc7WC5Cz1QLkoAa1WQD/tvPg034uPG1n0fWdSiincMqYs/Ukuroz4LtyC+5jBWoXcgZHWAZyytSdJDCt6rdtyTalY8vrasqEGo0TExmFUSNG4M3XX0fd2rUNkAP69jNwLV64CF/Sza1Xp66xovXr1jPjcNWwlBBHy8upbSC6EqC6ZqrsDiDxZlytRMdOB9eK/enmL12tuOu1P6d/M9W02uq3rKOBiv9lQesy1pXb+gFB7em+hUHHlzqQJhsLqvTBOx0Ler2A6ljGWuu3Fc7LU9A+1cAkVR7VCKZ9pQ+UcPeRvj9v1XIdVsd0581UklV6K5pXWlfNiCuvxr8riUC0D014z6cwPLmSXBlQO09JTNEHIYAZ24AGA2ktGyxA5S9+xYM1VuKROrSCdFkfrL0eletsRIV621G+3m5O96AyoaxSh1DWDiaQ+/Bw9cOoWuMwKtTfifubrsBdnaag0Mg+yD3/B2TfXAs5dtREzuC6yLOvAe4I/gZV1zbFx6taYmB8MLrw+C8fi0HlvWdwx4bjKLzsCO5cfAiFpm9DnrGrkWvEcmQfuAj+PefCt8scWkoC2GYmPL9Qf6Lb2pwwtiCMspTtua47LWofurej1iDHwgO4ZcMpFN4dgkoXL6JmxHnoRSCKtQWonFLNS/8ooNbanDl1Gk2++ZaV8ksD46svv2LeOSTRS8Dq161L1+8T1PiyOqq9/z7WrHIeEFc8enVAeZE5TaGVjomU1fW66MqDFfeaZik2v95prpRey9200yZPM3AKumqMe/WQtzlfuz8l483hzwCaYUywnV5D0oc2eu/Pa79mmpVkzoNVb8kiD7yNuHNZi0C0jx1er2QENFOGzJ2FfyIiwzDptwP4T7NVKF13GyrW24YHau9Ala+2ompNaq2tqFJzEyrV2oRytbegLNeVrytIdzPtblSpvweP1j+Ip746jYcbHsbdXWnVJvRAwG9NEbClOjyHXoLn9CPwnH0YnnOPUh+HJ+TfKHDkbdy24jkEzv4afvsOw0Nj4CElegGYprlpWvOdAvIeT0b+I4kosD8C+XefQ75tp5F74wn4rTgI3+UH4Vl6IF0DVx1F/m0XUHBnKArsDcctR6JR4FwqCpO84mfD8P7xY3CQ4Kmn6YNSDpSCVPPSLF3cLMrPW22FXbjgV3z0QTXTcitIf/qxOULo3koE3fgxY431rF2zJt57+x1079oNcTF08xmDqkXXDPtzIc0MqOkfpYur12Mq/ty72xnJs2HtBgOtOYZ7ozCZp8THxJt4VV0fev5z3579pmLLEqm7Ro+sKYadNGEyRg0fZQY9jB01zuxz3er1WM9p545dDGRqIProg4/wfdMfsHXzNrNfPRCuRqGIsEhj4dSwdN2A2npJUV3USCQLqp6uWTB3gXkj4XDmSS9G0/yYkWPM43CLFiw25yExrrX3/tx9Kj/Ki14Rs3XTVpNfPa2TIZ13XjTr3pX1GtJ1a9abcli/dj22bNmCRPdti0lJqh0ZxVrLmJgYk3bz5s1Yv349du3ahVOn9EES7jsLV/cSoDYjXirYtWrfiWi812QUHvp6BSo3O4SydbejXK2dBHIXHqi5k3Bu53QbKtTagtI1N6N0ne0oQytZusFOlGq4E+WbHkTF74/j4Ran8ECvzfjX3P7w2dIAnv0fItuhD5Dj2GvIdfy/1OcQcPJpeM48Bc+pZ5HjyKsouucN5N3SBr7Hz8ATyQzTpOn7KdkvJiLXhVQzOsiPvncgpzk4za2HrfWy6cgU5IxKdT4pSMLy8BrdQsoK8Hdhav6wNOQ6l4Ac5+KR43Q0AT+P5/efxGyet0YLmcCbZ6+iFpC2/1dTLUu3nhKVly1HqVcZWrFulNxZAShLqTh04vgJ5liCS7Jp/QZ8/umnxrp++tHHjEdrYPfOXSaN3q4gGG1jUUZAneUaSSSwunTsii8/q276QWXVtm1x3oivSimxw+7CLoSZFlf1U6prxDbwSDTaR10kn3z0KV7670t4/ZXXafFfwztvvmNahwWkQNMxNP/5p1/go2rM85dfoWH9r02XiyxrtfeqGRBUHhaKawJqy1HiNT176hw6tu9kunA++VBdUu/h/Xc+MC3W1d770Ey13wZ1G5h3Kcn9lruv/Rm4uQ97kzp3+jzatm6HL5jP75p+z7zWQ7/e/Qx85vg2L1adzYwsXbyM+f7KlFnd2nVRk9dy7z590JI3dPcl5BY4Ta0bKyjr1auHr776CtWrV0ejRo0webIzkspC7C2XA2qEC5jYfomg7fh9KPvxaDz9/VZUbLAVFRrIjd2JCownK9Xei8qKJ2vvJrQ7UJKQ3l9/G0p9uwelfjyI0i1PoET7c7i3/yncSVe04IIeyLa5BuF8D56jr8Hv6BsIOPYqsp14GdlPvIBsIf+hNf03PAQ1R8hLyL+dsE54H9lOnoMvAfUNI4wRKQgKS0Z2zbMs/bncP4LKeT/zXGciPGFx8IRSw/Romd4kz2XUgNAE+F3g8oh4+MQmISA6FnlPnkGl9bswmYBf5KnH67yd8ky/TlJBKdW8LbIMF89qhrK8JEcPHeXFrIPqtJy1a9YyoO7b41xUI9zmdMhJ01j0zptv0c390qQdNXyEAVCiBiPBmSWgbjdLpOkH/YWV911TiVSB7Zv+7EgiAwTlAC2sRvoI5uoERTBp7KyG5dlRPhp08NEHH5s3/gmohvUamnfqCmqlEWBmxBAruvpCpQJUgxaafdvMtO7KMitvsszXA2i6pXdFcaysY6MGjUz3jFR5077fe+f9dDC1Lz1YLhU8unF0at/ZgY5irCp3bUMAWdu333jbxNDfML/K15aNTpeU40G66mbH3uA0TFH9zEqvcvj444+xfLnzNsT4ePlZl8Qb0Llz56JGjRpGP/uM51+7Nk6ccD2oawKaPtGdOMl8/DaEsx/0OIRStVfi4UYbUbneepSrT0tJC1mmHsGte9DRegdpNfehVKNg3PftbpRpfQzle4ai0qA0lB5LF3L+bviu7wzPvjfgOfIk9UUC+jI8x1+Dz4k34HPydQSceAUBx1+g9SSkJ59BzpP/Rd6tVRknPk94DyCIZZyNVjOI1k/vCwokoAGuGjgJqdQ3XK8tSTaW1ici0Ux9o5LNZwWzcd6jTz8kEtJkWs6YUDwachxdD51FjAJOqnFjMolznew/t5zsjC1Db7XrrFLGjhpr+jnlvirGbK6387l32SSvV2hOmTTZ9IUqFlWDUQPecQWuYlAH0KxdXAMo64Eqo14YpgokS6eGm+1bsgZUA9pVqVXZVZk1P6j/IOaxjgMaYVR3iEYEyXKqMr/1+lt449U3jEV947U36Yq/b+AQ6NU/r2FA1qiiN197y+ThuWeeS3+Dvbpcrgmoq2r4UaOUYOrepYfJo7RJ4yaEr67Jj0AcOmgo5syaa6bfcp2O+Q5vThZiTWVN5c6bR+x4HHv+cm0//Uh90DW436YmT+PHOCOe0humpLym5jfl5PFT5gao8vnqS97EeJP6kjfTvn37pru33rBZOOXe9uvXz1hO6XvvvYeOHTsa11jprwmozQsvI+9gzl1g6xng0YbzUPWbDahcdy0q1d1MQHfQfd2DkgS0VP1DKFn/MEo2OIwSXx9Aqe8OoGK7EDzYNwJVRyfjkalA+dkJKLJmHnLuqQ+fo4w3jxPAY69QX+X86/CceB0+Ia8jUICe+C8Bfc4B9NQLyLX5AXjGPoWgUxsRRNc0kK5tEC1dEKHMRiiNBZW6cNqpb2QqNdl879NXb5R31U9fMIsRoDGMZcNQ9nwIGh87aT6Fz3ru+LBXFFtYrtgCs4uzUq5PYEWLoZvV/PsfWXk/pHWpT7fqMyz+daF7UEesm7t/7z78+P33xnrWqVXLuLlzZs4yXS7OiCLFclcCNM24rRpJ9M6bsqA1zHuJ9DYEiQXUWijFqrKesoA1WJnlJsoiCSC5kLJQejO9voSm7hS9WV6NQiuWrjCxqV6vorfOa8SSBVmv61y5bJV5dYpitNV0M/U6FcGh416Xi+sUhRHFlm/yRiAVENpOLzObN3ueGcWUPkyQEnIshOW6xLyiReclCy/LLmiHDtZb9WV8VNY6CNNzew3s1w1J5yB3V6+Fkdg0Nj/mOJwX1CoreSdm5FQN3nB5jX5u+TNCQ0PTgbMuroX29OnTaNq0Kb74guELw5iPPvoI48aNS288umYMqtXuLpm5eDO/7jjwZJPFqFBvpelOeaDOZs7TetYnoPUP4D5azuKEs/wPZ/FIx0g82os6KAaPjUlGlamJqDw3DiWWbcGtu1vTfVVjEK3nSQKoeVpPB1Ba0JDXaD1fvgQo3dzsIc/Ds7wEXdwH4dk5HL7R52k1ExDEeNNY0YgE8+5aA6hrQS2gfpFpBDKFmkTLSTjN5wUJJi2rJ5oaF4uCF07g0zPHsSIpxfTxprf8XFFsYbmibeyiK6htqFBDiXPHrW4aiNQAdOpEiIHLcU25M8HKiV5nopdTv/v222asbq0aXzFW0ovGZIESWMmvZkG9AX3nKoAq886gAVUyVUxNP2MeNSJIVlDvwdV2dpsryYypM9IrrNzqgf0Gumu8hIe7nlZcG6tLZfEEQ73a9c3TMCo/WcO2rdrhxFHHLdT+VMbqc/V2izWaqmO7TsYySo37zZvQ8t8cN9TeLLS9+m1lRRswbtVNRu9qMtdW4k4Fq70RaMiiykeWUze26l8wFqerWos30w0bNpg0ceoWc8W6vDt37sS7775r0r3//vvGLd6xw/Us3AamzJI1oPosdUoidA0HzzuKh+rPR+WG6/FgvY0EdAvK16UFrb8X5b49hio/XcRD7aPxdJ80PD8M+PdoAk2X9pFJQMXZkSi9dCeKbu2DPLKS56vAc/4ReM4QQFpHzwlaUC730Hp6CKg/AfVnHGpc3NPPMgbldOHd8EwpQ1C/4TJaUUKW7QIBDU9GYGQ0AWUc6WVFLwHqwGkApSU1lpPzphWYljh3WAxeC70IvSo6jFcpPkH9jLYAriS2sFxRWrsos6qicb0ZnM55ubfvvf2ugbPae++jd89eplVWsDmNO9yI6Q2wvOP+tmgxK9XnrMCK8b40kO7czovJO3NSQoLZ5i8F1I0hnYaXd00lVGNTeqX3OlctU2UVQGoh1YvJtL0qrGLY3j37mOF9sppKI9XxTFlw+2uOJJJS1PKs+FEwKK1ccOVR7+c1wwyZTnAaS6fNORV4Op7m9ZmLRoxZ5eYqHtW5devS3cToNq1EXoDyrgYtWVxN9R5gibW4Jn/8r8f2Wv/Shvv6lHlxQoIvP//SuKyffPIJJk7Ud4G4nbwc1221sM6bN8+4tWogeuONN/Djjz/iwoULxoJaq5tZMrxRwc4iVYCmQvFw9RbTUebjmXii6V5Ura8ulu0o+3Uw7qm3C2W+P4H/9Af+Oxz4zwjg+THAs3Tfn2YejWv7awjuXzMHRYKbIdepZwko4Tz/DAGllTxNEEMYgwrSk9JX4HviZfiGMDY9ScvJ9LmPPQvPvCIEtBg8c96kFZ0I/9Aw02IbKOsZRUAJngANIJRSAyjdW1lNH8WaspbRqWbqw2WCM+hiCp6gq6zvhepB85OJ3IGVy8vIS9waakWFZRdlUsWxNpYNPR9m3Kd33nqHFaUW47bXWcmc9+vqaRUDpywoVbAJWlnKZk2a8O78hWntfeXFlzBiGAuaEhMV5cLogPnXAPol035l0g4ZqJJh/p36e7lwU52bQFXFVYOJLLBAkIvbv09/3kBYf1xQrFU03gS31THlOssaCtTMgFqv49D+Q4TzE2P5BM5bjH97dutl0nm7tZeVvXbl5n3iuInGgtoGIx3LvnnfHketvHqHsPJfn1ZUNxl9p0aia6dzUCOVRJ6QWqp1Q9KwRkH/8Ycf40veROW2KsaMiGAlpAg4wRetr79TBg0aZNxaNRC98sor5rfc2sjIyHSgM0vGV57Yib4fz7QsX7xbfzKqVl+HhxocROUGwSjfeA+KN9qN4t8fRNWe0Xh2FKEcBzxDfXYC4aTlfHwy8OCsBJRasRJ37+iIQoeqIei0+jgfoxK+swRTkMqKniKQVk/S7T3JdSdfhB+tZ56DT8AzLR8847LTzaUlXVgLQWc3Iictj19EJAKiowhoPMFM9tIU83VsP7qJnphY51WasTxRTnNGxOFfZyLx+O4zmMBz41makFOt7+nilkPW4tYAK0prF3krK4f5xIpbSRQTqaJ9wgtZg+6Q3mVrRghxe709wXm+kxu6bq79kO/kiZPwPl0iDaJ/ly6xHkMLvcC7E0WNRZes558HVKoKqrT7gvebdQaarISbqtKq20JpJgpQVlhBpydnBtDFFSDWcpoy0am51lh9rmq8UvdNVoCab5xS9MC5hg6qhVVfZlMMar9nmg6otslKnUPhyMEjaPFDCwOn9qP4evQIunlcn35+TK++VLVW6zgCVDcZSUwkKw/Xqx9XNyRtqxZjNYgp72qY6tShE97h9ZEVbdCgAY4ccb65I1Btl4vc3MaNG5vGJFnaDz74AIsXLzaAap1i0KsAyj8mQHU0zQVUg1derz4Zj9fcjUe+PonKjQ6gXJN9KP/zMTzaLwbP0GI+ORZ4ilBafZJwPjoFqDQ3AvdtGIci++og/9FXke3MQ84AhLOE8Cwt5hmCekauLKdGBaxAfcVAGsj485Z9j8IzMQc8IzzwDCGkMwj5zm7wiTjpfEqQhRcQGUdrSiWogRHSBPhHEeCYMMaZEVTBSaWhuvV8Ep44FIG+pxmwe92AjVyhLmYUFaBXIaq47CJvVV1z6pipSG3oEslN++LTz82jZOPGjKF7lcS78wUzhE+uriymXFepGoP0oPaeXbtRk3fbau9/QIA+N8+NClpZWD3l4sShf40FlSqtALMtrlcsE56jA6iOmRFQDVTQd1y0rd7s4A2odZfVMCWLmBWgSmOsH+f79OyL115+3bic2n/Tb5s5gw64m/SRUjqNrFQT5lEPr/fu0cdYa/XXyvqpRVcW0T6NI1GjltxWtVrLKmo0lBkYoTzzvz54LFhVrta9VZ4OHzjC6zker77yKmrWrGnAmz9/vtlnAq+lAJQGBwcb66lYVfFn3bp1cfToUZNGgMrSXgFQZtK8UtNRDQxP1YuruDiMgL741RQ81PAg483TeOCX03ikWyjeoAv7AlVwPkmr+QShfIJQPknV9BFqxbmhuHfTANx28D3kPfEkAs5VdAElgGcI6FnCeYYurOJRqYGUFvW0LOjLyHbieeTfS5d4QhA8wz3wGeLH+YLwzFUD03z4x0bCl0D6R8jFjSGggjTOWFT/qBgCGko4Ix1Ao+j20ostdiwWnx0Ixy5e2yjHC3FEp656e+l6XUFsObmi9JeKzlGvfahy6gXRuns7TfmK8T6ihXIGAlyP6Nufb73+humW+ajah2jxY3NER0YhPDSUFcz7NSh/EaC0Dulf3XYZyCDajMsFklxE6QS6kWrAEXQCwLiHLIvMFvTSMfcaay2vQlB7A2qtmkZD6QPDalWWe6rGKz3wLTAFlgkftLurqL0hqBVYNw696UGuvLpp9HSPcw7O8XTOKi9ZUMW7ajAKOXbSrBPo6v/UNg3rfW3ANC3cvLno3KZNmYZXX33VxJbVqlVDp06dDHgSTaXTpk0z6wXxW2+9ZQYoSBSfytJakDNLxu+DSglraqKz84MXCF39GSjdIgT3tI9AuQExeGRcKv5NAJ8imILzSVpNAfo4l8m1fYzThxl/VpgXhrs3DkfhA58hD2ELOPcg48+nCKngfI1TAnqOgJ4lcFJjUWlBzxBgWtGgEy+gwB5azPGB8Iz0wH+oB9lH05KOzwXP4vfge2gKrfJh+F2IgX84waQVNe4u1Y8xhW9MFOGMp6YRzkQUDAtD1WM70SMmxIypTWYcJzFFolP/qwDNVKkX/7rYXEwHAsZSapFt1ZqxVHfe2Xuar5Jpmq49My6zA+fVJ6rBDfpY0oplTkukrO1f6eKmA+q+fcH7VNPFPWdbuQWo4jwLqKAbPHCISZcBUG3qHNpYUAOoKnmNjBbUAqNzcGD53HSBCJopk6aalmADnvapvFxJTR41A9ctJaC16/M8q5v2ADX2yEU3DVdMplFFevO+3FxZUZXZ2lXrzH6sOz1/7gJjzZVnjWDS0EetP3EsBE2bNsOHH35oLKRGCh13P3qlbhdZxm7duhnXVusE8YgRI8x6wZt55JG30ILqTF21L6d2P/Sz8mAcin46BPd2O49KM4H7J6ei7JRkVB6fgkdlOa3Smj5OUB/zBnRuLIqt/RWFd7dCniMfwu8crWEo9SJd2fOE9DyBPEcwLaTpgHLdqVcRFEJA9xLQcQR0FMGk+hLUAKpnyO2MTd+A/65pTE8Qz/NEwlJMS62/ATSOLi01PsVMg6JO4/64Dcg1vQZKDH8HC6M2IC4lFnGMV+3FzADW5eXkii0rV+y23qplLuxyx5p/39wAqoYOASoLqu6Tt998C2+98Sbevoq+9cYbZtyu4LQD6DUVwHKBBeQNsaDXApRldSULKld+8AACym0vB9Q5ZjqgWVhQ7U9y8VyocUll8QToB+9Ww/ixEwzAxu3U9dLurqRMYi3o6BFjzHk5+/uCbnUdnKc1tG56ggugXFUNi5T11AAMDftTS7Kuo56cUeu0biqCVKOz5BYb4WGGDxuOt3ldBajc19WrVxvgomgIZCWbN29uXFtZUHWv7N2717TcSrMau2vFAdRCmv45Auf85wSHo8Q301FiSAwqLgDumwGUmpaMBwjhI4TyMcL5OKdPEE5jPamKPx+epi6WFNy7LBh3bJyC/MGt4H/8bbqvT8Nz4d9Uwnj2GYKleep5QqrGIy9AsxlACbQAleWUEtJAWlL/wYXgGVickH4CT/BS7iscvhdoQcP1CQdaTbq6vmq5jUyDJ/ocbolZA8/SL+A3rgTyjyyBp0e/g0XHVjjnqYto71xuMRjNUjKtdCtCBuWyhBhV3FToY7dO7KlxtZ8y5pIlZUWmFdVoIlnEq6lafDUmV29bEJia1zOkjRp+jeCdu0wMKjWtuZz+PwPoFS2oc8yMFjRrQPWYnHVt5UpqNJS6c5TuugCl2uPJ0smC2jHDinsVeijW1f6shdTgf8ErK6qbh4YpnjpxyqTT6Kwfv2tuGqrM0D6ep/e3VZctXWbiT7XQNmzYEAMGDEjvXjl48KBZJoDVD6qGpDNnzmToirmSZLKgKhydOQuBf/utOoonBwSjMgEsI51KCzotBZWmpKDqpFRCmoZHCeijXPcI4XxYSkAfIqCVCXOZuQm4b9EZ3Ll8HQpuHISg7bVwy9k3kYNQBl6g1bxAMC9SNS+LevYSoIEnX3Bi0LEBxsU1DUWyoEM8yDYgJ7INoqs7/F+MSQn+2q4I2r+cUJ/hTYCxJ2PSgAtpyH4uHnkvroDvzprcNhd8CXnOqbmQe9ht+M+4lzB+zxjEIwoxqeeRlOy4vOkXPkuxZeWK0nkVn9X4aD07mUYXtY+BxDbvf/N1Y9MP6ryHyAHwisr1gliD6tVQpAe4zSB6Aq5RSHpVp0SNTaYyyoKa/tT/dUB1AZzuDVkyNcgIUFksAWqs3nUCai2oxtsqlpWLqwEV2l+0nu7hPnQ87VPlcvzICePmqrx0zZROAyUkejOFM5SxumkJ1lsTL7pfitP5yZVt1LiRaaXVSKH69eub7hOJxt9qmeBUQ9HQoUON5bRDAK8mGS1omoiW2Y02x223aA+eGXkMDxG8quPT8ODEFFSeTBd3kgPowxOlaXiYgJo01IcEKF3cBwhp2Vl0i+cCxX+NwL2LN6Hosh7wmfc4fDaXhu9huq8nHiWQtKTnZEUVk750OaBjaEGH+sAzmIAO88BvqB98hmSnqnU3N61qEaZ5AJ5JtKYbJiFv2DnkjkhEAZZd/pNHCO+PtMKF4ZkQgIAxfvAbGYico3Lgjv6FUL51KYzYPhBJiEREzDn6pE4xZFkxzVXPtNJ7kaum9ZbLjxw8Zr4qJkj0ljtZgOlTp+PkiRAcPnDQfFLw2DX06OHDJp0+nKRB9rKkGomkxqKfmrcgiBdZsenm0oKaAQ9/AwtqphQNjfzpx59M3lV+mg7oO8DAmW5HtLsrqY7p7Mo8IqfB/oo91derhp70p3p4PFlI/Y6OiDFurcpAVlJTfXpRIius8cd6a4TGItt3/Ko1WHmVqF9TVlIQyppu2rTJLG/Tpg1ef/111KlTx3TF6HEziSxoVnGnt2QANI21Kzk1AXEJEaaPsM2SA3h0xDE8OCUNVSckourERDw4KQlVJiYR0BQ8REirTkpz4OR5WFUMKkBLEtD75gHl56fhkdmHUWffFrROm4biK+nqjioAz7yi8CykHnoCvmdegIdQetTNcvoV+J16HvkPyMXNxpjTBz6CdLgv1Z+gEtphtKzD1MLL/YwkgKOLwTOR8e3CjgjauQRFTm+EZ11reMaXgmeKH6eEm1bYd4Q/fLmffEPzolSf4ni09QMYv0MBO+9o1CR1MWUp9qq7tU3ivchWGLdSzJw223QR2AEAGjx+7LDzNbHfI+rvlAwZNNhYTw1akKurQffLly7l8VLNw9xydY01/R8HVOltOg0ZfOE/LxrXVOcgl9Psy01n8pJZ3WOZR8z4OzIsCt27dGeI8Dk9k7q0gHRBCZm6TSTKv87HHlMvQLMD4DWiSl0ycoe7dOxizlHusa6pffhA8WlCXAJSeR2W8nqooejzzz/HO++8gx49ehhL2axZM9PK+/XXX5sYVC6v5A8BmpQaj+i4UNPO0XLxATwy8gSq0LV9cGIsAY03kFYloA9NSqbFTCGwhNQF9EFXrQUtQ0ArzAeemxeLpqsisZP7PIxQLMFqfLr7O+QYSHhG3APPzPuQZ+dTuPXMW/A59bLr6j6LfIcfgmdydmM5fUYQ0JEEdBRhGykVrNngOzQnAob6wl8NSWNoUUeUZ/qnaFEf57a3ccrlU7n9OAIqV3mksx/foUHIPyA/inUrgkrtyqLDhlY4jgMIwTHaU8eDsNfcEc055ZQu3otUYG7iFDLVtVN3vPLiq+aurcrVvWsPLne6RdJj3usRDV6gHD54CPV4B1ZsqhhWr0wxwwXdxiIB+newoEpjntukaITSyy+8YqyWBg+oBVaD4SU2fZZKMeN+KfrEoh4jU97UuCNPRoMQ7HrjUnMb4w5zqlhTT8gYV5blJldW7q3yKZdbjVXt27QnmHFmqKDKU28uFGz79u0zAMqCakhfixYtsHbtWjNAXpZTbm7v3r1Ny63AvFrsaSULCxqPGBfQXxbv9wI0jmAmGDjTAaUVrTI5DVUIZRVCaQF9kPNVphPamcCzvyaj1rpw/Mby0BiYC6nncI4Y7CQMzfa0R7HhVeA77A74Lr4feY8yDj1NOM/REp79N/IffRg+MxlrEiyf0QTLqCClCrQRBHU4dYR+q7X3Fk5lTQsR1jyMX7mcltNDOH3UyGQApRrIA+FHNznvgHy4q8/tuLvlv9BicWOcwD6cJqSJqfR3VQgGPN7V00l0C9VWBvenmXfl5PGzqF2jrhM/8cKqFVdPf0j0TqJL/ZfXUKYxj6Fx37KO3bp0ZQyl987WYEXRy8Vq0GV2Bo1rvePu/q8DeimdnoRRn6V9akQNPerTVFrbPWJEUx3DTrkr+21UPYVjh/qpAUjdNTauVN4MmPyvm4KxppTePXqbdBq2KOutN+KrFV7XUa271u3VMbR9QlyiueeGh4fjm2++MbGmnvXUfLt27UzXimJTLbfPjNqulWtJloBaC2oBfWAqIUy3ngST+pCJQxmXUk3saa2o4JwBPEo4X5qWiOoLz0De+jGq9pqCKMTiPOcvYBeC0XxvG1Sc8hh8hheke3ovPBqLe/4V+Jx5DgWOPwa/OYROruk4QjXGAior6KUCdhQBHam4lDqK7q9J63TN+Mm6Wji9APUMDzKWNOfgHLhn0O0o3+ZutF39Ay3pPoSnneMFo0VSQQgWPeHD3AtUWy/MTPqPSzJl4gy8+drbrLDO0LdvGzUxz13GRscSIFUIbmS3s/vIUvmHaa2bqwH0ei2nBs4rHpUV1StSJIpBvV3cn/9HAdW+jVIEoQY9aJ+yfoJGg9+PH3H6GNX1YQEz6m6r0UOC5ujhY2Y7ubbOCKFPzdsYIkKdUSqKPZUnky/+t0/brFq+2hxTgxsU/8qi6tyksqLrVq8z+dW5G8iTCan7PO/06dONeyuLKbVwqg9ULbl6okVyLdfWynUCSugmyHoKTrq1E53Ys+okgjghDc+MS8HT451WXKV9gNbz5TkpqDtlP5adS4HeuHIW3C/ieP4aOOxMYwjqcRzE6JCBeHUqrWa3/PBs/Td8z70Fz5GnkT/kKWRfdBsh86WLSqjGCjoBKchcNcBpOdcL0hFq9RWwzjr/4QSUmgFQWVylo4vsGR4In2G+yEFQiwy8DXd1uhNfLa6Ovfx3mjeRi8nhDPN0t6MrSUjVvi1ETfHqT6ZyVvdK65ZtTaujAFWlUmuuRsbILTJwegN6NVEapjVjczl/gC6UxuVqsIJ9Jcr3zb7DKT3MTdE7dPXSsOuzoLrm3oA6Lc1/BlDFbn8M0K8yAqr0TlJa0Y3mIWzTqsq0cnX18PbZ0/qOuyNqOFJXifZvW4GjIqKN5VMcKTDV6KOWXD0aJzHDCXVIqhnyx/+mu4W/9TVybaOykNVUF5ngVB5Urhrep/HCFm5tn+jeRLdu3WpiUKnAtG9PkNvbunVrnD+vrxldv1wXoMZ9dQEVnFUmOnA+SH1yHPDf0al4ljdy09VCOJ+bk4gaC85g9flU88EhaRRLIJZ7TQLdAlb2VEKaQABiiUESEd4SuRC1VjSAZ0IFeDY/Cr/T/0WuE0/g1g0lkX0y3Vy5qwJ0DAHz6he9BB7XGfCoxrJ6r3NVXTXS4QR+mD9da7q5Q6X+jHGl2ZF9RAHk7lII78/9HMuxGSd5E4mkc678KvdClPdN/vWCVBNdZIpGu6gPTW6VGhPU2KAHl1UBdae16X+3uNv1693HdLkoFtVU8ai+kCZRPBofG3/JgrJyXr8FvQSo/Y6LgSWzaDNVam9Ax040jTDpFlQDFZju+gDVSCIXUIpNo0ofLkvHn4NcK6onTXQcvclBo4zMUymZRAML5BqrgUlAqU9T5/bay6+ha6du5hE6x53lFeQhDWC6WXFey7VMcGuAieJNNe4JUPvspx4UtyOiTF61D2qyurgoAvCHH34wo4VkQQWpdW+nTiVIlKsNTMgsvxNQWU9aU6qmVamPEdB/jwGe1tMsBPSNqVGov+AUfgtzPuqbkhzPffIOx3PRI+CJXpAKW6MpoUwXgnAcQYuDHRA0oyryHHwV+Y4+h9t2VUWuhUUYR/pfDqcF1IJnNTOYbhofjekd7kMwfeFPKAOGBJipWnXNPhmr6hjZRudFQNu8eGrqS5iK2bTyxxBGSKP5L8HknuXEK+PWO6cCynXlObb6+RdeWOcdOaoYeiGX+stMq+KfEDMggbJy2XLu+wNWbj1RoZd0fWje/CfRAHqJjqdXnuj1JOr3U7/dts0ZAbVABO/cYwBRZRY06o6wY3EtLBlEi7ipA6gTCwpQQa4WTrmFesJDZSJATWV2C8ruTzcAHUsVX1ZRnoZ9VtSmEfgaTaTjnQ45Y97aoG00qsgOsH+f56W3IajRR28aHDpomAknNO5Z8AtOPeitPOkhbF0DucU6lqyucU/NlAd2QbOPlS1bstzAqbLRzUHva5I3pAe+ZWnlQtuyMPmWV+RK165d091cWU+NwdX02DEFekx+HY1DVn4XoOoHzQxolQmOPsk0L4wOR8PJh7CEHtdJ7jKKGsuKG8+8y0OX3VTlTuJcsrGnkVwSRY3ksnNcepz29CBanumFQr8+jzw7/ovbD7+Ighsq0rIGOaB5w+ltQTNDmoUKUF8C6jfMLx1Q9aua9V778xniizx98uFfne/A08P/jXlxC2hHLyCE/yKZ33hzFrKhFP4xAwQoG9dv4F2+nmMdaEVVQdTgoAqguOjPil6/qXfnfte0mYlBv67fwLwW5efmLczgeeM6UzQKR4CqYsmqybXT6y8ltv/Pjp4RuKrsqvRqSFHF3sd4WWIqbmbRIdIBVd9rivm+pwC1ceLwoc44U3MzUAV2suXAStHrQHUsNbyoT1LW8JIFNZP0bRQvOuUXa169ouPoGLJouvno97v0EDRET/N21Nal/HxuBh9oaJ/2ozBDx5LqtwOpXFUejFnQTUWiG5fe+KC3B2o/AlRlJPdWsapthBKcNq9J7hDZUaNGmVZcDftT36cGLXz//ffpA+ivN/6U/A5AE1F1AgF1gbSAVqJq5NAzk2Lw+fjD+HVfPEJ5omG8/vrQkKpBAvOjrMluJqivkX8FaIoXoKm0n4nEIJGgnsZhdDgyCCXWfYygXa+j0KGX4DPvX6a7JQOU3vOZVdBlscxASgsqMAWpYPWxaS38SjPYg3zD8qJA51vw4vDnMfXiJBxlvi4ilM6u+kwpKmeeo23EGTNyFJ5+4klauGrm7q4B1WrmVxoLxJ8S10pPmzLV9IO++/Y7tA7V8PILL2LIoEEmSXgo/ZCDR0yllAXQ0yV6ZaZePymxFtTEwxQ9WSIrISujyqy41bxOhMc5776VXvlPF50zT/4SoKno27uf6bzXPp5+4pn0h511zt4urraRyAXVzUOPmwkCY0HTBw4455iu3sJVasARNIot1WWicpYLr9+KT3VTVHihG5P6LvXuXL3bV3k2cDIPGQF1IBWgxlWVJedxnZtcKwP766++gReff9E8NiirLohNOSp/qgjKMqFLTqHLn5xsHiNTC66eWlEsqge5R48ebUYO/R44Jb/PxZ2gRiIXTrXaUtXn+Z+pofho8h7M2B+DOGXYdbG1V+0niZlyVM0scnITeF5qKIrhOV5SB2NuFXYG0cmn8RsO4bHznZBr11vIt7a80zIrSAUULaHTguuCZVW/Dbju+kyAajsfxaDDGXMOCzBTj+lj5TptLzfaS3ONDsDtHW/B80Mfx+zoabSjFxCZFoMk69LoJF0LGnruLEFYiXWr12D1ytXYtGGzqQgmjcrlrxAeNyYqGrt27MDSJb9hxbJlWL50Gc6dPuOsTmLJsiIeOnCYbtoy46qpH08v10qvUJxaV1LPbOqduUqj13wIAHXMKwa0EJv8W9Fm/K3tdW6a6nP3eomzWjd1zMO8QViAbQU24haZGswUl6u7Y+O6TdixdWc6MDZ/6eolslqyXuoLXbF0pXFr9YIvvVNIDUctfvyJMWIXTJ08jWWywrk5ch/Kh2nU0aWQxWSedSxB6VhQZ17HNnlw86vzUJy7hmWzjK6t4nhZ8vT3GSmde36pvC5yXQWo3t63Z88e80D2unXrTMORfapFgFq9HrlOQDWSKB4P0Yo+ZLpYHKtZifropAR8OG4nZh2KoO1j4cfQpWVYqcJQHrhXngMzzgXJLAV9wjDFAOo0FLEaGBWcWid4jaTF0a4mYiH3Wh0DcNf6B5B9RnYHsqEaWSSwGDsKRsE01lXNG1DVlRLANGrZddW02ko1AknK/Wk6gsuUVt01FlLtayItLufv6p8fFbvfjdf6P4e5h2aa7EXHR9NEsNxUUITiSmJbFf8qse60dWe9RV0tVxVd5uurF1dOp+WqMraSX+H0zHI3bYZ9Xev4Wu+t2l77svuRWuEyWWnzbiH+94bLiuA0NyPv/dh5qoGU6zMAKuFE8WpmUTpzbnZf7lTwpaSypruQWrEvDLPLrBX9ywF9cIIzUEEjh/Q0y8OzaEGpL4w7h1m0nMIqhueTGE+XQd6cdknhZeQ/NalYVfRG18doAtdry0ROL3VhaCswH1GIwCliug7B+C6pBYrOvQu5R+Q0Y2n96Zoay5cZUKm1pCMJsSAclpPTHC6QLpQWVsFpACXABlJuoy6bMVS1HI/0Rd4BgSjaPy/ua/8vPNfucYzbNoqO7jkk6E6ki2gacFhiKfqQTwzLII4uEG9CqjjXdx1+n3CfGsQg11rqvERMFsI5niqZYl65YqZBQ28PkKupvLjXxVvkViqvVk0apZVmFncfqvRWtX9zHKqOa9xVp0pd2peXaBulVzpBYI5pxR7Xalb74G8Dnfcyb7HbZV6v396qNCoyFzqj2q+WU9SYpKF8ahmW5VZ+LZxOWldTWMsZfghOAyqvg33OU6qnWgTqDbOglWkpq0yMwwOTklGBbm0F/n54UhLemROLsQcJpoBMphVkBpwTd8/c7IV3MAOgYNTUqjr+tU7p3OPz3yXRvFMKcYxN92AHBiT3w3OznkShQXmRd1gQstMq+tMF9YwhSILUWk8vl1Z9nLK2PgJabrH6RGWFpTZdVmpdZSnTasBDnqGBuL3brSjRqRT6Hx3IHCoWCecp6i7pnCtvx1TmXdn3Pp0bKfY49rim2FyAVLy2iG2ebPorydXWa50uM/etG4FReyydulnGRJmP6y3uPjLkSWKX22X2t93PXyle+74MUB2PE3uOpsXXPT97nhk0E6AWUllNTe28Xf57IL0MUDMWN/4SoA8TULmyD9CVrTgpDWVoPSuoxXb8RQzalYgwsxuK24J1SWzJcnkaraRRkizVMnMErVc6ZdSqt+i3mpOicdK0oR7HXEzDU9MeRME+2ZGzP62dnnIRmHRHNebWTPXbwuUNnHeM6W1xvVVdLZlVwwUnULk+aHguFBxeFMX7lEfXFZ0YOZ/jDSQKcSw3FjlPR+pmPfPp3Gixx7R6taL9o+Lu9xKgztRUXFPBHU2/tDYP3uKdp2ut0/Z2X3+1uPtPh9NLdUwz756PA2IWapZfDmhmFZh2/g8DmpoO6EUX0H0OoDOA8rScFRV3TqD1HHQc/XYBOyOACCVUTi8THVxnICC91cIpdY7rpLWaWbRM0WkcHV410ZzAGixA60Pf4smJlXD74HzITcvm6U+AelP7qJtElpPzspZ2ai2nN6zXo5mA9hnhh8CReZB/wO0o17I8ui/uwptUJHNHh52nJANqKqj3qf1fi3dxeutfIdqPqZislFYJaUbLwkSqEtKsysDmx6qVzMul2t7u50YI95sO2h9VF1DFoNZiZlYLqfQPA6rP7elxs5i4MBdQurijQlBRD1/TcpYem4LXp4Sh/8aLOM1N1LRjy5Eb66+X6LdKVkB6q/Zs1Tnupb1k3ocrZrH+CNRQzmkk7wFsx0osxEyMiBmIlge+R42Vn+DZ0U+gZNfiuLfzXSjWtQiKdLkNt3UujMIdC6Jgh3wo0CEv8nXMjVs65aLmvII66/J2zok8nbMjV9dsyNktADm6+VP9kK27L/L1uAXF2tyP++tVQIeZPZmjeMTS0zWOgk7T+7Ts/N9B7PnYSu1O04G0ai9tVuduy8WqlczLpVfax18hdv+Z8/47VWVgW3GvR68XTsllgKak0FbFRhp8Wi46igdHnDRvR3h4WjIeG34CHdfL3XRET9Sp5VZ20dmHtygDOgMLY2bVOue4TlqrVxKlU8NSNFFQf+lFWtTTzMN5LtHfs1xyHvsQjKWhizD3zHTMPjsZU06PxvgTwzDyYH8M2dcbg/b1xIB93ald0X//FdRd129/F/Q52Bm9DnVEj8Pt0f1oW3Q71gZdjv+CLpzveaAvuq3tjymbZ+NiUrTT22KdhMyndbVT+18Sey5u5cyg9nJavdK5ey/3Xpd5eWb9q8XuN3O+/4B6W8Vr6e+RjIDSRKt1UP1fqmPNF55C2f6H8eTMePxn6HZ0WnkCB1kJ1SSieqieSw3WU9qsC/BaZ29L6HpU6XUkp9XXDnvQJ3ZpuxCVGsH8RPG31vE8mFaNUerOUTOTItkkppAmEulEpr2aJrgab9zXCG6t/YdTw7h1KNdowIKezIk1ObP10/zxPrW/o3hfluvRPyN/1X6uJN77/zN6gyTjazdpfjVoNiFKHSIC9Dwe6H8AL087gza/7cXRuCSTUs+jOM93OMiocl5ZsjqbP6o2r5qX2KkrvNGoqyE5Kcl0O1xSegauqq/wjynjCGmio2lmGcFPIfRp6tPlsW3+dJfMlLW/nej8rqX/K5JV3n+v3iC5ZEGlaoEkoMlRwhNovzAEr47ci3qLTmIjDZNiTllNPZ2igfB27I9SXzmP3mfxd1IXxnTb6b3uHyDep5uV/i9JVvn/PXoDhRbU60i68+shZdOxCXSftg7NZ2zBTtbBkKREA6asZxjTaV6A2h5Ak0/zJ7O4+/5bqrdcaflNuSl/XLwAda0oXUJnZAywKjgEa04LSUkc/zkjZhV3SuXmZrCgl9VPu+D/SjNbsv9rtce/KTflrxG6uITRtBMTs1SB6VY2NQlzTnhqULvabNXkojkNbY8mzHHUBKbTwHE1Mzuv85Bqe6pxnd39Z9K0v7Gmhwv/vygv0PUos3lT/yJleep50KxabP+cpuH/A5PlKVwqM9YnAAAAAElFTkSuQmCC;" parent="1" vertex="1">
                    <mxGeometry x="501.83000000000004" y="481.03" width="181" height="63.97" as="geometry"/>
                </mxCell>
                <mxCell id="0MlqO0iR2Z8GzJs1VqW2-32" style="edgeStyle=orthogonalEdgeStyle;rounded=0;orthogonalLoop=1;jettySize=auto;html=1;entryX=0;entryY=0.5;entryDx=0;entryDy=0;" parent="1" source="0MlqO0iR2Z8GzJs1VqW2-10" target="0MlqO0iR2Z8GzJs1VqW2-3" edge="1">
                    <mxGeometry relative="1" as="geometry">
                        <Array as="points">
                            <mxPoint x="302.33000000000004" y="300"/>
                            <mxPoint x="302.33000000000004" y="300"/>
                        </Array>
                    </mxGeometry>
                </mxCell>
                <mxCell id="0MlqO0iR2Z8GzJs1VqW2-56" value="" style="image;sketch=0;aspect=fixed;html=1;points=[];align=center;fontSize=12;image=img/lib/mscae/Docker.svg;" parent="1" vertex="1">
                    <mxGeometry x="340" y="331" width="41.83" height="34.3" as="geometry"/>
                </mxCell>
                <mxCell id="0MlqO0iR2Z8GzJs1VqW2-57" value="" style="image;sketch=0;aspect=fixed;html=1;points=[];align=center;fontSize=12;image=img/lib/mscae/Docker.svg;" parent="1" vertex="1">
                    <mxGeometry x="480.5" y="247" width="41.83" height="34.3" as="geometry"/>
                </mxCell>
                <mxCell id="0MlqO0iR2Z8GzJs1VqW2-58" value="" style="image;sketch=0;aspect=fixed;html=1;points=[];align=center;fontSize=12;image=img/lib/mscae/Docker.svg;" parent="1" vertex="1">
                    <mxGeometry x="170" y="512" width="41.83" height="34.3" as="geometry"/>
                </mxCell>
                <mxCell id="0MlqO0iR2Z8GzJs1VqW2-59" value="" style="image;sketch=0;aspect=fixed;html=1;points=[];align=center;fontSize=12;image=img/lib/mscae/Docker.svg;" parent="1" vertex="1">
                    <mxGeometry x="320.5" y="516" width="41.83" height="34.3" as="geometry"/>
                </mxCell>
                <mxCell id="0MlqO0iR2Z8GzJs1VqW2-60" value="The project uses docker containers for MySql (source), Python pipelines and Airflow." style="text;html=1;strokeColor=none;fillColor=none;align=center;verticalAlign=middle;whiteSpace=wrap;rounded=0;" parent="1" vertex="1">
                    <mxGeometry x="160" y="570" width="720" height="30" as="geometry"/>
                </mxCell>
            </root>
        </mxGraphModel>
    </diagram>
</mxfile>